<svg xmlns="http://www.w3.org/2000/svg" width="256" height="256" fill="none" viewBox="0 0 256 256">
<!-- SVG created with Arrow, by QuiverAI (https://quiver.ai) -->
  <path d="m127.5 4.5h22.47c4.89 0 5.32 5.31 3.58 8.3l-109.5 233.2c-2.08 4.28-6.14 6.14-9.98 6.14h-21.01c-4.5 0-5.81-4.61-4.2-7.6l110.6-235.1c1.91-3.62 5.03-5.01 7.99-5.01z" fill="url(#paint0_linear_319_482)"/>
  <path d="m240.2 43.87-114.8 79.96c-12.38 8.29-11.43 26.88-0.23 33.88l114.8 80.6c4.34 3.13 7.47-0.35 7.47-3.41v-23.99c0-5.09-2.47-8.08-4.94-9.78l-86.6-60.63 87.15-60.27c3.06-2.17 4.39-6.38 4.39-9.51v-23.61c0-4.35-3.77-5.86-7.17-3.24z" fill="url(#paint1_linear_319_482)"/>
  <defs>
    <linearGradient id="paint0_linear_319_482" x1="82.27" x2="82.27" y1="4.5" y2="252.2" gradientUnits="userSpaceOnUse">
      <stop stop-color="#48D46A" offset="0"/>
      <stop stop-color="#2EB753" offset=".4844"/>
      <stop stop-color="#0C8E38" offset="1"/>
    </linearGradient>
    <linearGradient id="paint1_linear_319_482" x1="181.1" x2="181.1" y1="42.54" y2="239.7" gradientUnits="userSpaceOnUse">
      <stop stop-color="#FBAF17" offset="0"/>
      <stop stop-color="#F8991D" offset=".5156"/>
      <stop stop-color="#F36C21" offset="1"/>
    </linearGradient>
  </defs>
</svg>