<svg width="366" height="247" viewBox="0 0 366 247" fill="none" xmlns="http://www.w3.org/2000/svg">
<path d="M205 52L204.819 50.8225C204.275 47.2857 203.329 43.8225 202 40.5L199.5 35.5L197 31.5L193.5 26L192.271 24.4977C190.094 21.8372 187.7 19.3623 185.113 17.0987L185 17L180.5 13.5L176.5 10.5L175.887 10.0233C173.305 8.01521 170.489 6.32841 167.5 5L163 3.5L159.848 2.65948C156.962 1.88978 153.987 1.5 151 1.5H146H144.741C141.585 1.5 138.433 1.74102 135.314 2.22095L133.5 2.5L132.689 2.66219C129.901 3.21982 127.162 4.00163 124.5 5L120.5 7L118.09 8.2978C115.367 9.76388 112.758 11.4316 110.284 13.287L110 13.5L106 17L102.5 21L99.5 24.5L96.5 29C95.5 30.5 93.4 33.6 93 34C90.2567 36.7433 89.4249 40.8692 88.2839 44.5773L88 45.5L87.7593 46.5833C87.2546 48.8543 87 51.1737 87 53.5V59.5V64.5C87 67.8276 87.2749 71.1496 87.822 74.432L88 75.5L89.5 80.5L91.5 87L93 91L93.7393 94.3268C93.9116 95.1022 94.226 95.8391 94.6667 96.5L96 98.5H84.5H81.4062C78.4724 98.5 75.5424 98.7082 72.6381 99.1231L70 99.5L64 101L57 103.5L56.1503 103.743C54.3888 104.246 52.6885 104.943 51.0802 105.82L50.2773 106.258C48.7666 107.082 47.1476 107.689 45.4677 108.063C44.1598 108.353 42.8241 108.5 41.4843 108.5H38.5H33.5H30.9217C29.9785 108.5 29.0399 108.369 28.133 108.109C26.7276 107.708 25.4255 107.008 24.3157 106.056L22.5 104.5L20 102.5L16.5 99.5C14.9836 97.9837 12.4428 98.3124 11.3623 100.165L10.4585 101.714C10.1557 102.233 9.9563 102.806 9.87132 103.401L9.63329 105.067C9.54454 105.688 9.5 106.315 9.5 106.942V110V113L9.99098 117.91C9.99698 117.97 10.0074 118.029 10.022 118.088C10.3191 119.277 8.90182 120.135 7.98611 119.321L6.97293 118.42C6.66827 118.15 6.27484 118 5.86725 118H5.37988C4.50554 118 3.67636 118.388 3.11662 119.06L2.58995 119.692C1.88568 120.537 1.5 121.602 1.5 122.703V125.5V128.5V129.78C1.5 133.241 2.00533 136.684 3 140L5 145L6.0103 148.233C7.00183 151.406 8.24693 154.494 9.73357 157.467L10 158L13.5 164L14.6497 165.868C16.5463 168.95 18.709 171.86 21.1131 174.565L21.5 175L26 180L29.5 184.5L33.5 188.5L34.3987 189.527C36.1241 191.499 38.1222 193.214 40.3327 194.621L40.8151 194.928C41.9359 195.641 43.1208 196.248 44.3542 196.742C46.4384 197.575 48.3783 198.732 50.1028 200.169L50.5709 200.559C52.5126 202.177 54.6864 203.494 57.0196 204.466L59.5 205.5L65.5 208L70 209.5L75 211L80 212.5L80.5775 212.624C84.8472 213.539 89.2017 214 93.5683 214H95.5H96.9303C99.6376 214 102.339 214.251 105 214.75C107.661 215.249 110.362 215.5 113.07 215.5H118H123.28C126.741 215.5 130.184 214.995 133.5 214L135.535 213.618C139.502 212.875 143.387 211.745 147.135 210.246L149 209.5L157.238 206.205C158.41 205.736 159.538 205.163 160.609 204.494C162.196 203.502 163.645 202.305 164.919 200.934L169.5 196L173.046 192.201C175.345 189.738 177.439 187.091 179.308 184.288L180.5 182.5L184.324 174.853C184.773 173.955 185.1 173.001 185.297 172.017C185.432 171.34 185.629 170.678 185.885 170.037L185.934 169.916C186.31 168.975 186.572 167.993 186.716 166.991L187 165C187.329 163.026 187.201 161.003 186.626 159.087L186.57 158.9C186.192 157.64 185.637 156.439 184.923 155.335L183.132 152.568C181.397 149.886 180.249 146.868 179.763 143.711C179.588 142.572 179.5 141.421 179.5 140.269V136.507C179.5 134.192 179.958 131.9 180.849 129.762L181.817 127.439C181.938 127.148 182.107 126.881 182.318 126.647C183.93 124.855 182.659 122 180.248 122H173.988C173.663 122 173.339 121.972 173.02 121.915L168.856 121.18C166.293 120.728 163.788 119.995 161.386 118.994C159.797 118.332 158.259 117.556 156.784 116.67L156.21 116.326C153.082 114.449 150.196 112.196 147.616 109.616L146.5 108.5L143.604 106.183C142.218 105.074 141.089 103.678 140.295 102.09L139.47 100.44C139.161 99.8217 139 99.1404 139 98.4496C139 95.9921 140.992 94 143.45 94H152.5C155.421 94 158.263 93.0526 160.6 91.3L161 91L167 87L172 83.5L172.091 83.4394C174.802 81.632 178.292 81.4772 181.152 83.0374C181.716 83.3449 182.244 83.7133 182.727 84.1361L184.166 85.3955C185.386 86.4629 186.504 87.6414 187.505 88.9159L190.679 92.9552C191.224 93.6482 191.864 94.2601 192.581 94.7723L193.783 95.6308C194.575 96.1961 195.523 96.5 196.495 96.5C198.325 96.5 199.986 95.4305 200.743 93.7647L201.714 91.6294C201.904 91.2105 202.06 90.7766 202.178 90.332L204 83.5C205.974 78.237 207 72.6208 207 67C207 62.0213 206.35 57.0638 205.068 52.2532L205 52Z" fill="#FEFEFE"/>
<path d="M96 98.5L96.1026 98.7053C97.3593 101.219 99.013 103.513 101 105.5C101.329 105.763 101.759 105.332 101.495 105.004L94.6667 96.5M96 98.5L94.6667 96.5M96 98.5H84.5H81.4062C78.4724 98.5 75.5424 98.7082 72.6381 99.1231L70 99.5L64 101L57 103.5L56.1503 103.743C54.3888 104.246 52.6885 104.943 51.0802 105.82L50.2773 106.258C48.7666 107.082 47.1476 107.689 45.4677 108.063C44.1598 108.353 42.8241 108.5 41.4843 108.5H38.5H33.5H30.9217C29.9785 108.5 29.0399 108.369 28.133 108.109C26.7276 107.708 25.4255 107.008 24.3157 106.056L22.5 104.5L20 102.5L16.5 99.5C14.9836 97.9836 12.4428 98.3124 11.3623 100.165L10.4584 101.714C10.1557 102.233 9.9563 102.806 9.87133 103.401L9.63329 105.067C9.54454 105.688 9.5 106.315 9.5 106.942V110V113L9.99098 117.91C9.99699 117.97 10.0073 118.029 10.022 118.088C10.3191 119.277 8.90183 120.135 7.98611 119.321L6.97293 118.42C6.66828 118.15 6.27485 118 5.86724 118H5.37989C4.50554 118 3.67636 118.388 3.11662 119.06L2.58995 119.692C1.88569 120.537 1.5 121.602 1.5 122.703V125.5V128.5V129.78C1.5 133.241 2.00533 136.684 3 140L5 145L6.01029 148.233C7.00183 151.406 8.24693 154.494 9.73357 157.467L10 158L13.5 164L14.6497 165.868C16.5463 168.95 18.709 171.86 21.1131 174.565L21.5 175L26 180L29.5 184.5L33.5 188.5L34.3987 189.527C36.1241 191.499 38.1222 193.214 40.3327 194.621L40.8151 194.928C41.9359 195.641 43.1208 196.248 44.3543 196.742C46.4384 197.575 48.3783 198.732 50.1028 200.169L50.5709 200.559C52.5126 202.177 54.6864 203.494 57.0196 204.466L59.5 205.5L65.5 208L70 209.5L75 211L80 212.5L80.5775 212.624C84.8472 213.539 89.2017 214 93.5683 214H95.5H96.9303C99.6376 214 102.339 214.251 105 214.75C107.661 215.249 110.362 215.5 113.07 215.5H118H123.28C126.741 215.5 130.184 214.995 133.5 214L135.535 213.618C139.502 212.875 143.387 211.745 147.135 210.246L149 209.5L157.238 206.205C158.41 205.736 159.538 205.163 160.609 204.494C162.196 203.502 163.645 202.305 164.919 200.934L169.5 196L173.046 192.201C175.345 189.738 177.439 187.091 179.308 184.288L180.5 182.5L184.324 174.853C184.773 173.955 185.1 173.001 185.297 172.017C185.432 171.34 185.629 170.678 185.885 170.037L185.934 169.916C186.31 168.975 186.572 167.993 186.716 166.991L187 165C187.329 163.026 187.201 161.003 186.626 159.087L186.57 158.9C186.192 157.64 185.637 156.439 184.923 155.335L183.132 152.568C181.397 149.886 180.249 146.868 179.763 143.711C179.588 142.572 179.5 141.421 179.5 140.269V136.507C179.5 134.192 179.958 131.9 180.849 129.762L181.817 127.439C181.938 127.148 182.107 126.881 182.318 126.647C183.93 124.855 182.659 122 180.248 122H173.988C173.663 122 173.339 121.972 173.02 121.915L168.856 121.18C166.293 120.728 163.788 119.995 161.386 118.994C159.797 118.332 158.259 117.556 156.784 116.67L156.21 116.326C153.082 114.449 150.196 112.196 147.616 109.616L146.5 108.5L143.604 106.183C142.218 105.074 141.089 103.678 140.295 102.09L139.47 100.44C139.161 99.8217 139 99.1404 139 98.4496C139 95.9922 140.992 94 143.45 94H152.5C155.421 94 158.263 93.0526 160.6 91.3L161 91L167 87L172 83.5L172.091 83.4394C174.802 81.632 178.292 81.4772 181.152 83.0374C181.716 83.3449 182.244 83.7133 182.727 84.1361L184.166 85.3955C185.386 86.4629 186.504 87.6414 187.505 88.9159L190.679 92.9552C191.224 93.6482 191.864 94.2601 192.581 94.7723L193.783 95.6308C194.575 96.1961 195.523 96.5 196.495 96.5C198.325 96.5 199.986 95.4305 200.743 93.7647L201.714 91.6294C201.904 91.2105 202.06 90.7766 202.178 90.332L204 83.5C205.974 78.237 207 72.6208 207 67C207 62.0213 206.35 57.0638 205.068 52.2532L205 52L204.819 50.8225C204.275 47.2857 203.329 43.8225 202 40.5L199.5 35.5L197 31.5L193.5 26L192.271 24.4977C190.094 21.8372 187.7 19.3623 185.113 17.0987L185 17L180.5 13.5L176.5 10.5L175.887 10.0233C173.305 8.01521 170.489 6.32841 167.5 5L163 3.5L159.848 2.65948C156.962 1.88978 153.987 1.5 151 1.5H146H144.741C141.585 1.5 138.433 1.74102 135.314 2.22095L133.5 2.5L132.689 2.66219C129.901 3.21982 127.162 4.00163 124.5 5L120.5 7L118.09 8.2978C115.367 9.76388 112.758 11.4316 110.284 13.287L110 13.5L106 17L102.5 21L99.5 24.5L96.5 29C95.5 30.5 93.4 33.6 93 34C90.2567 36.7433 89.4249 40.8692 88.2839 44.5773L88 45.5L87.7593 46.5833C87.2546 48.8543 87 51.1737 87 53.5V59.5V64.5C87 67.8276 87.2749 71.1496 87.822 74.432L88 75.5L89.5 80.5L91.5 87L93 91L93.7393 94.3268C93.9116 95.1022 94.226 95.839 94.6667 96.5" stroke="#1A1919" stroke-width="3"/>
<g filter="url(#filter0_f_8_144)">
<path d="M166.517 137.091L158.08 168.438H155.318L163.756 137.091H166.517ZM163.403 155.295V153.25L179.869 144.864V148.136L167.238 154.222L167.34 154.017V154.528L167.238 154.324L179.869 160.409V163.682L163.403 155.295Z" fill="#1A1919"/>
</g>
<path d="M194 98.5L195.051 99.0253C196.707 99.8534 197.43 101.829 196.701 103.531C196.568 103.842 196.39 104.132 196.173 104.392L194 107L190.5 112L187.5 116L185 119C183.058 120.942 180.513 122.165 177.783 122.469L177.5 122.5C174.175 122.5 170.858 122.172 167.597 121.519L167.5 121.5L164.732 120.946C163.249 120.65 161.802 120.19 160.42 119.575C158.813 118.861 157.305 117.944 155.932 116.846L155.5 116.5L151.5 114L149 112L146.5 110L143.692 107.192C143.232 106.732 142.727 106.318 142.185 105.957L141.477 105.485C140.509 104.84 139.726 103.953 139.206 102.912C138.742 101.983 138.5 100.96 138.5 99.9216V99.29C138.5 98.4459 138.729 97.6177 139.164 96.8938C139.705 95.9913 140.536 95.2988 141.522 94.9293L142.632 94.5129C143.537 94.1737 144.495 94 145.461 94H150H152.852C153.947 94 155.037 93.8658 156.099 93.6004C157.686 93.2035 159.187 92.5189 160.528 91.5805L162.356 90.3008C163.118 89.7676 163.917 89.2913 164.749 88.8755L165.919 88.2906C166.966 87.7669 167.922 87.0779 168.75 86.25C169.578 85.4221 170.534 84.7331 171.581 84.2094L174.535 82.7325C175.487 82.2564 176.566 82.0943 177.616 82.2693C178.521 82.4202 179.368 82.8158 180.066 83.4134L181.511 84.6521C182.168 85.2157 182.762 85.8495 183.282 86.5423L185.5 89.5L186.5 91C188.48 93.9706 191.029 96.5196 194 98.5Z" fill="#373436" stroke="#1A1919" stroke-linecap="round"/>
<path d="M183.525 154.199L185.2 156.433C185.704 157.105 186.494 157.5 187.333 157.5C188.806 157.5 190 156.306 190 154.833V151.5V146.942C190 144.65 190.163 142.361 190.487 140.092C190.828 137.701 191.349 135.338 192.043 133.024L192.5 131.5L192.798 130.755C193.931 127.922 195.272 125.177 196.809 122.541L198 120.5L198.276 120.052C200.741 116.046 203.859 112.479 207.5 109.5L209.459 107.541C211.483 105.517 213.671 103.664 216 102C218.661 100.004 221.497 98.2516 224.472 96.7639L225 96.5L229.946 94.7013C230.313 94.5681 230.699 94.5 231.089 94.5H234.735C235.546 94.5 236.073 93.6467 235.711 92.9215C235.576 92.6525 235.336 92.4508 235.048 92.3644L231.768 91.3804C230.927 91.1282 230.054 91 229.176 91H225H218.308C215.795 91 213.309 91.5103 211 92.5C207.352 94.4897 204.008 96.9918 201.07 99.93L199 102L194 108.5L190 115L186 122L183 127C181.024 131.282 180 135.943 180 140.659V141V142.171C180 145.352 180.69 148.496 182.024 151.385L182.634 152.706C182.877 153.234 183.176 153.734 183.525 154.199Z" fill="#272727" stroke="#1A1919" stroke-width="2" stroke-linecap="round"/>
<g opacity="0.8" filter="url(#filter1_f_8_144)">
<mask id="path-6-inside-1_8_144" fill="white">
<path d="M168 95C168 94.5338 168.122 94.0823 168.345 93.7234C168.568 93.3646 168.879 93.1209 169.222 93.0346C169.566 92.9483 169.921 93.0247 170.227 93.2506C170.533 93.4766 170.77 93.8378 170.897 94.272C171.024 94.7062 171.034 95.1861 170.924 95.6286C170.814 96.0712 170.592 96.4486 170.295 96.6958C169.999 96.9429 169.647 97.0442 169.3 96.9822C168.954 96.9202 168.635 96.6987 168.397 96.3561L169.5 95H168Z"/>
</mask>
<path d="M168 95C168 94.5338 168.122 94.0823 168.345 93.7234C168.568 93.3646 168.879 93.1209 169.222 93.0346C169.566 92.9483 169.921 93.0247 170.227 93.2506C170.533 93.4766 170.77 93.8378 170.897 94.272C171.024 94.7062 171.034 95.1861 170.924 95.6286C170.814 96.0712 170.592 96.4486 170.295 96.6958C169.999 96.9429 169.647 97.0442 169.3 96.9822C168.954 96.9202 168.635 96.6987 168.397 96.3561L169.5 95H168Z" fill="#1A1919"/>
<path d="M168 95C168 94.5338 168.122 94.0823 168.345 93.7234C168.568 93.3646 168.879 93.1209 169.222 93.0346C169.566 92.9483 169.921 93.0247 170.227 93.2506C170.533 93.4766 170.77 93.8378 170.897 94.272C171.024 94.7062 171.034 95.1861 170.924 95.6286C170.814 96.0712 170.592 96.4486 170.295 96.6958C169.999 96.9429 169.647 97.0442 169.3 96.9822C168.954 96.9202 168.635 96.6987 168.397 96.3561L169.5 95H168Z" stroke="black" stroke-width="2" mask="url(#path-6-inside-1_8_144)"/>
</g>
<path d="M144.5 198V202.5C144.5 203.984 145.473 205.292 146.895 205.718L148.676 206.253C149.222 206.417 149.79 206.5 150.36 206.5H150.844C153.485 206.5 155.998 205.36 157.737 203.372L157.867 203.223C158.288 202.742 158.66 202.22 158.977 201.665L159.526 200.704C160.174 199.57 160.928 198.501 161.777 197.51L163.5 195.5L165.158 193.289C166.051 192.099 166.835 190.831 167.5 189.5L170.5 187L173.5 184.5L174.077 183.923C174.691 183.309 175.254 182.645 175.759 181.938L176.302 181.178C177.094 180.069 177.67 178.822 178 177.5L180.5 174L183.5 169.5L184.128 168.621C185.369 166.883 186.343 164.97 187.019 162.944L187.431 161.708C187.477 161.569 187.533 161.434 187.598 161.304L187.815 160.87C188.231 160.038 188.115 159.038 187.52 158.324C186.684 157.321 185.189 157.195 184.198 158.045L183.192 158.907C182.738 159.296 182.194 159.568 181.61 159.698L179.214 160.23C178.406 160.41 177.617 160.664 176.857 160.99L176.264 161.244C175.099 161.743 174.04 162.46 173.143 163.357C172.386 164.114 171.756 164.988 171.277 165.946L170.5 167.5C169.464 169.054 170.104 171.168 171.828 171.887L173.431 172.555C174.132 172.847 174.745 173.315 175.211 173.914L178 177.5C177.67 178.822 177.094 180.069 176.302 181.178L175.759 181.938C175.254 182.645 174.691 183.309 174.077 183.923L173.5 184.5L170.5 187L167.5 189.5H160.5H155.882C154.46 189.5 153.197 190.41 152.747 191.76C152.584 192.247 152.311 192.689 151.948 193.052L150.505 194.495C149.855 195.145 149 195.55 148.086 195.641L146.49 195.801C145.36 195.914 144.5 196.865 144.5 198Z" fill="#272727"/>
<path d="M167.5 189.5L170.5 187L173.5 184.5L174.077 183.923C174.691 183.309 175.254 182.645 175.759 181.938L176.302 181.178C177.094 180.069 177.67 178.822 178 177.5M167.5 189.5H160.5H155.882C154.46 189.5 153.197 190.41 152.747 191.76C152.584 192.247 152.311 192.689 151.948 193.052L150.505 194.495C149.855 195.145 149 195.55 148.086 195.641L146.49 195.801C145.36 195.914 144.5 196.865 144.5 198V202.5C144.5 203.984 145.473 205.292 146.895 205.718L148.676 206.253C149.222 206.417 149.79 206.5 150.36 206.5H150.844C153.485 206.5 155.998 205.36 157.737 203.372L157.867 203.223C158.288 202.742 158.66 202.22 158.977 201.665L159.526 200.704C160.174 199.57 160.928 198.501 161.777 197.51L163.5 195.5L165.158 193.289C166.051 192.099 166.835 190.831 167.5 189.5ZM178 177.5L180.5 174L183.5 169.5L184.128 168.621C185.369 166.883 186.343 164.97 187.019 162.944L187.431 161.708C187.477 161.569 187.533 161.434 187.598 161.304L187.815 160.87C188.231 160.038 188.115 159.038 187.52 158.324C186.684 157.321 185.189 157.195 184.198 158.045L183.192 158.907C182.738 159.296 182.194 159.568 181.61 159.698L179.214 160.23C178.406 160.41 177.617 160.664 176.857 160.99L176.264 161.244C175.099 161.743 174.04 162.46 173.143 163.357C172.386 164.114 171.756 164.988 171.277 165.946L170.5 167.5C169.464 169.054 170.104 171.168 171.828 171.887L173.431 172.555C174.132 172.847 174.745 173.315 175.211 173.914L178 177.5Z" stroke="#1A1919" stroke-width="2" stroke-linecap="round"/>
<path d="M100 55.5L103.05 51.3056C103.671 50.4526 104.52 49.7922 105.499 49.4004C106.16 49.1359 106.866 49 107.578 49H108.128C109.037 49 109.939 49.1465 110.801 49.4338L111.144 49.5479C112.044 49.848 112.9 50.2667 113.69 50.7931L115.5 52L118.5 53.5L122 55.5L123.191 56.0103C124.721 56.6662 126.343 57.0843 128 57.25H131M173.5 61.5L173.487 61.4671C172.844 59.8602 171.729 58.4861 170.289 57.5261C169.765 57.1764 169.203 56.8858 168.615 56.6595L166.104 55.694C164.04 54.9 161.901 54.3168 159.719 53.9532L157 53.5L151 53H145.5H140L139.578 53.0528C137.225 53.3469 134.973 54.1847 133 55.5L131 57.25M173.5 61.5H185M173.5 61.5C173.5 63.494 173.282 65.482 172.849 67.4286L172.5 69L171.5 72.5L171.207 73.3787C170.736 74.7911 170.166 76.1683 169.5 77.5L169.449 77.6026C168.82 78.8593 167.994 80.0065 167 81L166.137 81.8626C165.713 82.2865 165.249 82.6675 164.75 83L164.588 83.1078C164.197 83.3686 163.833 83.6675 163.5 84C163.167 84.3325 162.803 84.6314 162.412 84.8922L161.5 85.5L160.811 85.8445C159.941 86.2796 159.017 86.5967 158.063 86.7875C157.356 86.9288 156.637 87 155.916 87H155H153H150H148H146C144.35 87 142.716 86.6732 141.192 86.0385L140.111 85.5879C138.387 84.8696 136.821 83.8205 135.5 82.5C134.506 81.5065 133.68 80.3593 133.051 79.1026L133 79L132.6 78.1992C131.871 76.7426 131.383 75.1781 131.152 73.566C131.051 72.8562 131 72.1402 131 71.4232V69.5V67V64V61.5V59.5V57.25M185 61.5L186.01 60.238C186.666 59.4176 187.445 58.7034 188.319 58.1206C189.429 57.3807 190.673 56.8654 191.981 56.6038L193.332 56.3336C194.441 56.1117 195.57 56 196.701 56H201H205.5H211H213.5H217C217.919 56 218.76 56.5194 219.171 57.3416L219.585 58.1708C219.858 58.7161 220 59.3174 220 59.9271V61.3004C220 62.0971 219.902 62.8908 219.709 63.6638L219 66.5L217.5 71L216 74.5L215.524 75.7702C214.843 77.5863 213.998 79.3368 213 81L211 83.5L210.484 84.0165C209.183 85.3173 207.572 86.2652 205.803 86.7706C205.268 86.9233 204.723 87.0346 204.172 87.1036L201 87.5H199.558C198.521 87.5 197.484 87.4264 196.457 87.2796L195.365 87.1236C194.79 87.0414 194.222 86.9075 193.671 86.7236C192.243 86.2477 190.946 85.446 189.882 84.382L189 83.5L187.828 82.0932C186.95 81.0404 186.278 79.8327 185.844 78.5325C185.615 77.8458 185.455 77.1383 185.365 76.42L185 73.5V70V67V64.5V61.5Z" stroke="#1A1919" stroke-width="5" stroke-linecap="round"/>
<path d="M111.5 135.5L119.5 141.5L126 147.5L134.5 155L140.01 158.77C142.666 160.587 145.459 162.195 148.365 163.578L154.5 166.5L164 169.5L168.5 171L173.292 172.743C173.763 172.914 174.214 173.134 174.639 173.399L176.081 174.3C177.275 175.047 178 176.355 178 177.763C178 178.57 177.761 179.358 177.314 180.029L176.723 180.916C176.244 181.633 175.648 182.264 174.958 182.782L172 185L169.795 186.575C168.934 187.19 168.013 187.717 167.045 188.146C165.038 189.039 162.865 189.5 160.667 189.5H160.5H154.5M154.5 189.5H150.5H145.5M154.5 189.5L152.88 191.93C151.973 193.29 150.754 194.414 149.325 195.208C147.8 196.055 146.085 196.5 144.34 196.5H143H139.5H132.5H127.5H123.5H122.662C120.568 196.5 118.487 196.162 116.5 195.5L114.293 194.838C112.438 194.281 110.66 193.496 109 192.5L105 190L102 188L98.5 185L95.5 182L92.5 179C91.5065 178.006 90.6797 176.859 90.0513 175.603L90 175.5L88.5 173M145.5 189.5L141.5 188.5L138.552 187.517C138.517 187.506 138.485 187.489 138.456 187.467C138.144 187.233 138.416 186.745 138.779 186.886L145.5 189.5Z" stroke="#1A1919" stroke-width="3" stroke-linecap="round"/>
<ellipse cx="8" cy="9" rx="8" ry="9" transform="matrix(-1 0 0 1 161 61)" fill="#1A1919"/>
<ellipse cx="5.5" cy="8.5" rx="5.5" ry="8.5" transform="matrix(-1 0 0 1 201 62)" fill="#1A1919"/>
<path d="M240.104 97.1118L236.666 94.924C236.225 94.6432 235.741 94.4353 235.234 94.3085C234.425 94.1062 233.577 94.1152 232.773 94.3346L228.591 95.4752C228.53 95.4917 228.472 95.5141 228.416 95.5422C227.564 95.9679 227.795 97.2416 228.742 97.3413L234.321 97.9285C234.766 97.9754 235.191 98.1368 235.556 98.397L237.101 99.5005C238.02 100.157 238.764 101.028 239.269 102.038C239.75 102.999 240 104.06 240 105.134V107.5V111.5V114.642C240 116.21 239.845 117.774 239.538 119.312C239.18 121.098 238.612 122.854 237.858 124.513C236.963 126.482 235.798 128.342 234.413 130.004L234 130.5L231 135C229.336 137.329 227.483 139.517 225.459 141.541L224.5 142.5C222.172 144.828 219.62 146.92 216.882 148.746L216.5 149L215.866 149.555C213.631 151.51 211.156 153.172 208.5 154.5C206.527 155.486 204.352 156 202.146 156H199.5H193.5H192.032C190.763 156 189.577 156.635 188.873 157.691C188.314 158.529 188.111 159.555 188.309 160.543L188.608 162.039C188.836 163.179 189.837 164 191 164H195H198H201H205.5C207.5 164 209.667 163.333 210.5 163L210.844 162.871C213.264 161.964 215.514 160.655 217.5 159L220 157L221.5 155.75C222.498 154.918 223.418 153.998 224.25 153C225.082 152.002 226.002 151.082 227 150.25C227.998 149.418 228.918 148.498 229.75 147.5L231 146L234 143L236.5 140L239 136.5L241.5 132.5L243.5 129L244.608 127.061C245.201 126.023 245.69 124.929 246.068 123.795C246.685 121.944 247 120.005 247 118.054V114.5V109.411C247 108.143 246.831 106.88 246.497 105.656C245.844 103.26 244.576 101.076 242.82 99.3202L242.67 99.1699C241.892 98.3923 241.032 97.7022 240.104 97.1118Z" fill="#272727" stroke="#1A1919" stroke-width="2" stroke-linecap="round"/>
<g filter="url(#filter2_i_8_144)">
<path d="M232 97.5L228.5 96.5L226.921 96.1052C226.641 96.0353 226.354 96 226.066 96C225.371 96 224.691 96.2058 224.113 96.5915L223.5 97L221.5 98L219 99.5L215.5 102L213 104L209.5 107.5L206 111L202.5 114.5L200 117.5L198 120.5L197.494 121.26C196.501 122.749 195.665 124.338 195 126L194 128L193.922 128.156C193.309 129.382 192.832 130.671 192.5 132L191.5 134.5L190.5 138C190.167 139.997 190 142.017 190 144.041V144.5V147.5V149.5V152.571C190 152.856 190.028 153.141 190.084 153.421L190.352 154.761C190.445 155.227 190.749 155.624 191.174 155.837C191.389 155.944 191.625 156 191.864 156H193.5H195.5H197.5H200H202H202.419C203.466 156 204.506 155.831 205.5 155.5L207.5 155C208.496 154.668 209.442 154.205 210.316 153.623L210.5 153.5L212 152.5L213.5 151.5L213.951 151.199C214.649 150.734 215.299 150.201 215.892 149.608C216.628 148.872 217.451 148.229 218.344 147.693L219.5 147L219.803 146.773C220.933 145.925 222.001 144.999 223 144L225 142L227 140L227.725 139.275C228.573 138.427 229.335 137.498 230 136.5L231 135L232 133.5L233 132L235 129.5L236 128L236.427 127.359C236.807 126.789 237.11 126.17 237.327 125.52C237.442 125.174 237.582 124.836 237.745 124.51L238 124C238.333 123.334 238.618 122.646 238.854 121.939L239 121.5L239.5 120L239.515 119.94C239.837 118.652 240 117.328 240 116V114V112.5V110.5V108.5V107C240 105.672 239.837 104.348 239.515 103.06L239.5 103L239.473 102.918C239.162 101.985 238.638 101.138 237.943 100.443L237.746 100.246C237.582 100.082 237.435 99.9031 237.307 99.7106C236.79 98.9355 235.987 98.3974 235.073 98.2147L234 98L232 97.5Z" fill="#D26812" fill-opacity="0.37"/>
</g>
<g filter="url(#filter3_f_8_144)">
<path d="M225.472 96H228L354.03 107.589C355.754 107.747 356.476 109.873 355.205 111.049L220.275 235.895C219.209 236.882 217.479 236.438 217.02 235.059L190.545 155.635C190.515 155.545 190.479 155.458 190.436 155.373L190.211 154.922C190.072 154.645 190 154.338 190 154.028V153V150.5V147.5V144V140.666C190 140.555 190.009 140.445 190.027 140.337L190.474 137.655C190.491 137.552 190.517 137.45 190.55 137.351L191.5 134.5L192 133L192.5 131.5L193 130L193.447 128.213C193.482 128.071 193.533 127.934 193.598 127.804L194.5 126L195.5 124.5L196.5 122.5L197.5 121L198.5 119.5L199 118.5L199.89 117.165C199.963 117.055 200.047 116.953 200.14 116.86L201.399 115.601C201.466 115.534 201.529 115.462 201.585 115.386L202.915 113.614C202.971 113.538 203.034 113.466 203.101 113.399L204 112.5L205 111.5L206.5 110L207.36 109.14C207.453 109.047 207.555 108.963 207.665 108.89L208.667 108.222C208.887 108.075 209.075 107.887 209.222 107.667L209.778 106.833C209.925 106.613 210.113 106.425 210.333 106.278L211.335 105.61C211.445 105.537 211.547 105.453 211.64 105.36L212.5 104.5L213.5 103.5L214.399 102.601C214.466 102.534 214.538 102.472 214.614 102.415L216.5 101L218 100L221 98L224.578 96.2111C224.855 96.0723 225.162 96 225.472 96Z" fill="#D26812" fill-opacity="0.37"/>
</g>
<defs>
<filter id="filter0_f_8_144" x="154.818" y="136.591" width="25.5504" height="32.3466" filterUnits="userSpaceOnUse" color-interpolation-filters="sRGB">
<feFlood flood-opacity="0" result="BackgroundImageFix"/>
<feBlend mode="normal" in="SourceGraphic" in2="BackgroundImageFix" result="shape"/>
<feGaussianBlur stdDeviation="0.25" result="effect1_foregroundBlur_8_144"/>
</filter>
<filter id="filter1_f_8_144" x="167.5" y="92.5" width="4" height="5" filterUnits="userSpaceOnUse" color-interpolation-filters="sRGB">
<feFlood flood-opacity="0" result="BackgroundImageFix"/>
<feBlend mode="normal" in="SourceGraphic" in2="BackgroundImageFix" result="shape"/>
<feGaussianBlur stdDeviation="0.25" result="effect1_foregroundBlur_8_144"/>
</filter>
<filter id="filter2_i_8_144" x="190" y="96" width="50" height="64" filterUnits="userSpaceOnUse" color-interpolation-filters="sRGB">
<feFlood flood-opacity="0" result="BackgroundImageFix"/>
<feBlend mode="normal" in="SourceGraphic" in2="BackgroundImageFix" result="shape"/>
<feColorMatrix in="SourceAlpha" type="matrix" values="0 0 0 0 0 0 0 0 0 0 0 0 0 0 0 0 0 0 127 0" result="hardAlpha"/>
<feOffset dy="4"/>
<feGaussianBlur stdDeviation="2"/>
<feComposite in2="hardAlpha" operator="arithmetic" k2="-1" k3="1"/>
<feColorMatrix type="matrix" values="0 0 0 0 0 0 0 0 0 0 0 0 0 0 0 0 0 0 0.25 0"/>
<feBlend mode="normal" in2="shape" result="effect1_innerShadow_8_144"/>
</filter>
<filter id="filter3_f_8_144" x="180" y="86" width="185.85" height="160.428" filterUnits="userSpaceOnUse" color-interpolation-filters="sRGB">
<feFlood flood-opacity="0" result="BackgroundImageFix"/>
<feBlend mode="normal" in="SourceGraphic" in2="BackgroundImageFix" result="shape"/>
<feGaussianBlur stdDeviation="5" result="effect1_foregroundBlur_8_144"/>
</filter>
</defs>
</svg>
