<svg width="363" height="289" viewBox="0 0 363 289" fill="none" xmlns="http://www.w3.org/2000/svg">
<path d="M109.244 202.584L108.69 204.247C107.915 206.571 105.306 207.722 103.067 206.727C102.852 206.632 102.646 206.518 102.45 206.388L99.6304 204.508C97.7093 203.227 95.892 201.797 94.1954 200.231L90.2442 196.584L85.7442 191.084L83.9925 189.013C81.5001 186.068 79.3132 182.877 77.4655 179.489L77.2442 179.084L74.7442 172.584L73.6444 169.284C73.0482 167.495 72.7442 165.622 72.7442 163.737V160.785C72.7442 158.713 73.4496 156.702 74.7442 155.084L77.2442 156.584L76.7442 151.584L76.2442 148.084C75.9113 145.753 75.7442 143.402 75.7442 141.048V138.584V135.705C75.7442 134.347 76.2838 133.044 77.2442 132.084C78.2047 131.123 79.5073 130.584 80.8655 130.584H81.3598C81.9466 130.584 82.5304 130.665 83.0946 130.827L83.179 130.851C84.8303 131.322 86.248 132.39 87.1582 133.846L88.2442 135.584L89.9863 139.503C90.1573 139.888 90.3834 140.246 90.6575 140.566L90.926 140.879C92.2381 142.41 94.5022 142.685 96.1429 141.513C96.5402 141.229 96.9874 141.023 97.4611 140.904L100.744 140.084C103.712 139.193 105.744 136.462 105.744 133.363V131.426C105.744 130.865 105.793 130.306 105.891 129.754L107.244 122.084L107.633 118.97C108.038 115.73 108.918 112.567 110.244 109.584L110.476 108.982C111.983 105.062 113.92 101.32 116.25 97.8256L116.744 97.0836L117.382 96.1722C119.287 93.4517 121.425 90.9027 123.773 88.5545L124.744 87.5836L128.744 84.0836L133.744 80.5836L138.244 77.5836L142.244 75.5836L147.244 73.5836L151.244 72.0836L155.244 71.0836L159.744 70.5836H164.744H169.744L171.122 70.7214C173.532 70.9623 175.916 71.4182 178.244 72.0836L182.744 73.5836C185.403 74.2482 187.981 75.2019 190.432 76.4275L190.744 76.5836L194.244 78.5836L194.354 78.6461C196.61 79.9352 198.748 81.4201 200.744 83.0836L204.244 86.0836L204.88 86.7192C206.787 88.6264 208.556 90.6665 210.175 92.8242L210.744 93.5836L213.744 98.0836L216.244 103.084L218.244 108.084C219.895 111.385 220.88 114.978 221.143 118.66L221.244 120.084L221.744 125.084L222.244 130.584L222.354 131.57C222.613 133.903 222.576 136.26 222.244 138.584L221.244 143.584C220.912 146.575 220.264 149.523 219.312 152.379L219.244 152.584C218.58 155.242 217.626 157.82 216.4 160.271L216.244 160.584L213.744 164.584L211.744 167.584L211.299 168.207C209.932 170.121 208.408 171.92 206.744 173.584L208.729 173.042C211.052 172.409 213.233 171.342 215.159 169.897C215.882 169.356 216.565 168.763 217.203 168.124L219.717 165.611C220.401 164.927 221.14 164.301 221.926 163.739C223.462 162.643 224.81 161.306 225.92 159.78L228.244 156.584L231.744 152.584L234.744 148.084L234.918 147.77C236.466 144.984 238.245 142.333 240.236 139.844L241.244 138.584L243.284 135.729C243.589 135.301 243.958 134.923 244.378 134.608L244.433 134.567C245.284 133.929 246.328 133.584 247.392 133.584C248.272 133.584 249.143 133.823 249.898 134.276C250.773 134.801 251.461 135.589 251.863 136.527L252.744 138.584L253.005 139.366C254.157 142.822 254.744 146.441 254.744 150.084V150.611C254.744 153.552 254.059 156.453 252.744 159.084C253.939 159.084 254.999 159.848 255.377 160.981L255.56 161.532C255.682 161.897 255.744 162.28 255.744 162.665V166.584V171.084C255.744 173.084 255.078 175.917 254.744 177.084L252.744 182.084L251.446 184.94C250.655 186.68 249.482 188.219 248.013 189.443C247.501 189.869 247.024 190.335 246.585 190.837L243.744 194.084L241.244 197.584L238.244 201.084H240.043C243.738 201.084 247.328 199.852 250.244 197.584L252.057 196.496C252.507 196.226 253.021 196.084 253.546 196.084C254.313 196.084 255.049 196.388 255.592 196.931L255.643 196.982C256.036 197.376 256.315 197.869 256.45 198.408L256.59 198.968C256.693 199.377 256.744 199.797 256.744 200.218V202.084V205.084V207.084V210.084V213.434C256.744 213.532 256.721 213.629 256.678 213.717C256.398 214.276 257.013 214.858 257.556 214.548L258.827 213.822C259.092 213.67 259.41 213.639 259.7 213.736L261.01 214.172C261.814 214.44 262.516 214.947 263.025 215.624L263.113 215.742C263.529 216.296 263.815 216.936 263.95 217.615L264.092 218.324C264.193 218.829 264.244 219.343 264.244 219.858V219.97C264.244 221.36 263.921 222.731 263.299 223.974L262.244 226.084L260.744 229.084L259.9 231.053C259.464 232.072 258.949 233.056 258.361 233.996L257.612 235.196C257.036 236.116 256.593 237.113 256.295 238.157C255.93 239.432 255.35 240.635 254.58 241.714L253.244 243.584L252.833 244.304C251.775 246.154 250.576 247.919 249.244 249.584L246.744 253.084L243.744 256.584L241.244 259.584L237.744 263.084L235.744 265.084L235.095 265.733C233.203 267.625 231.067 269.256 228.744 270.584L224.244 273.584L220.744 275.584C218.089 277.243 215.225 278.539 212.226 279.439L211.744 279.584L206.744 280.584L202.244 282.084L198.744 283.084L193.744 284.584L193.351 284.671C190.617 285.278 187.842 285.684 185.048 285.883L182.244 286.084H177.744L173.244 285.584L167.244 284.584L161.244 283.584L157.244 283.084L152.244 282.084L148.744 281.084L144.744 279.584L140.744 278.084L140.112 277.813C138.207 276.996 136.406 275.955 134.748 274.711C133.747 273.96 132.693 273.283 131.594 272.684L131.067 272.396C128.858 271.191 126.789 269.748 124.896 268.091L123.744 267.084L123.507 266.876C121.005 264.687 118.739 262.243 116.744 259.584L114.244 256.584C112.581 254.587 111.096 252.449 109.807 250.193L109.744 250.084L109.556 249.707C108.35 247.294 107.316 244.799 106.463 242.241L106.244 241.584C105.248 237.599 104.744 233.507 104.744 229.399V228.584V223.084V220.891C104.744 218.379 105.255 215.893 106.244 213.584C107.239 211.593 107.952 209.474 108.362 207.287L109.244 202.584Z" fill="#E8E8E8"/>
<path d="M116.744 187.584L112.744 195.084L109.244 202.584M109.244 202.584L108.69 204.247C107.915 206.571 105.306 207.722 103.067 206.727C102.852 206.632 102.646 206.518 102.45 206.388L99.6304 204.508C97.7093 203.227 95.892 201.797 94.1954 200.231L90.2442 196.584L85.7442 191.084L83.9925 189.013C81.5001 186.068 79.3132 182.877 77.4655 179.489L77.2442 179.084L74.7442 172.584L73.6444 169.284C73.0482 167.495 72.7442 165.622 72.7442 163.737V160.785C72.7442 158.713 73.4496 156.702 74.7442 155.084M109.244 202.584L108.362 207.287C107.952 209.474 107.239 211.593 106.244 213.584C105.255 215.893 104.744 218.379 104.744 220.891V223.084V228.584V229.399C104.744 233.506 105.248 237.599 106.244 241.584L106.463 242.241C107.316 244.799 108.35 247.294 109.556 249.707L109.744 250.084L109.807 250.193C111.096 252.449 112.581 254.587 114.244 256.584L116.744 259.584C118.739 262.243 121.005 264.687 123.507 266.876L123.744 267.084L124.896 268.091C126.789 269.748 128.858 271.191 131.067 272.396L131.594 272.684C132.693 273.283 133.747 273.96 134.748 274.711C136.406 275.955 138.207 276.996 140.112 277.813L140.744 278.084L144.744 279.584L148.744 281.084L152.244 282.084L157.244 283.084L161.244 283.584L167.244 284.584L173.244 285.584L177.744 286.084H182.244L185.047 285.883C187.842 285.684 190.617 285.278 193.351 284.671L193.744 284.584L198.744 283.084L202.244 282.084L206.744 280.584L211.744 279.584L212.226 279.439C215.225 278.539 218.089 277.243 220.744 275.584L224.244 273.584L228.744 270.584C231.067 269.256 233.203 267.625 235.095 265.733L235.744 265.084L237.744 263.084L241.244 259.584L243.744 256.584L246.744 253.084L249.244 249.584C250.576 247.919 251.775 246.154 252.833 244.304L253.244 243.584L254.58 241.714C255.35 240.635 255.93 239.432 256.295 238.157C256.593 237.113 257.036 236.116 257.612 235.196L258.361 233.996C258.949 233.056 259.464 232.072 259.9 231.053L260.744 229.084L262.244 226.084L263.299 223.974C263.921 222.731 264.244 221.36 264.244 219.97V219.858C264.244 219.343 264.193 218.829 264.092 218.324L263.95 217.615C263.815 216.936 263.529 216.296 263.113 215.742L263.025 215.624C262.516 214.947 261.814 214.44 261.01 214.172L259.7 213.736C259.41 213.639 259.092 213.67 258.827 213.822L257.556 214.548C257.013 214.858 256.398 214.276 256.678 213.717C256.721 213.629 256.744 213.532 256.744 213.434V210.084V207.084V205.084V202.084V200.218C256.744 199.797 256.693 199.377 256.59 198.968L256.45 198.408C256.315 197.869 256.036 197.376 255.643 196.982L255.592 196.931C255.049 196.388 254.313 196.084 253.546 196.084C253.021 196.084 252.507 196.226 252.057 196.496L250.244 197.584C247.328 199.852 243.738 201.084 240.043 201.084H238.244M74.7442 155.084L77.2442 156.584M74.7442 155.084L76.3736 157.157C76.7701 157.662 77.5515 157.147 77.2442 156.584M77.2442 156.584L76.7442 151.584L76.2442 148.084C75.9113 145.753 75.7442 143.402 75.7442 141.048V138.584V135.705C75.7442 134.347 76.2838 133.044 77.2442 132.084C78.2047 131.123 79.5073 130.584 80.8655 130.584H81.3598C81.9466 130.584 82.5304 130.665 83.0946 130.827L83.179 130.851C84.8303 131.322 86.248 132.39 87.1582 133.846L88.2442 135.584L89.9863 139.503C90.1573 139.888 90.3834 140.246 90.6575 140.566L90.926 140.879C92.2381 142.41 94.5022 142.685 96.1429 141.513C96.5402 141.229 96.9874 141.023 97.4611 140.904L100.744 140.084C103.712 139.193 105.744 136.462 105.744 133.363V131.426C105.744 130.865 105.793 130.306 105.891 129.754L107.244 122.084L107.633 118.97C108.038 115.73 108.918 112.567 110.244 109.584L110.476 108.982C111.983 105.062 113.92 101.32 116.25 97.8256L116.744 97.0836L117.382 96.1722C119.287 93.4517 121.425 90.9027 123.773 88.5545L124.744 87.5836L128.744 84.0836L133.744 80.5836L138.244 77.5836L142.244 75.5836L147.244 73.5836L151.244 72.0836L155.244 71.0836L159.744 70.5836H164.744H169.744L171.122 70.7214C173.532 70.9623 175.916 71.4182 178.244 72.0836L182.744 73.5836C185.403 74.2482 187.981 75.2019 190.432 76.4275L190.744 76.5836L194.244 78.5836L194.354 78.6461C196.61 79.9352 198.748 81.4201 200.744 83.0836L204.244 86.0836L204.88 86.7192C206.787 88.6264 208.556 90.6665 210.175 92.8242L210.744 93.5836L213.744 98.0836L216.244 103.084L218.244 108.084C219.895 111.385 220.88 114.978 221.143 118.66L221.244 120.084L221.744 125.084L222.244 130.584L222.354 131.57C222.613 133.903 222.576 136.26 222.244 138.584L221.244 143.584C220.912 146.575 220.264 149.523 219.312 152.379L219.244 152.584C218.58 155.242 217.626 157.82 216.4 160.271L216.244 160.584L213.744 164.584L211.744 167.584L211.299 168.207C209.932 170.121 208.408 171.92 206.744 173.584M206.744 173.584L202.244 177.084L197.744 180.084M206.744 173.584L208.729 173.042C211.052 172.409 213.233 171.342 215.159 169.897C215.882 169.356 216.565 168.763 217.203 168.124L219.717 165.611C220.401 164.927 221.14 164.301 221.926 163.739C223.462 162.643 224.81 161.306 225.92 159.78L228.244 156.584L231.744 152.584L234.744 148.084L234.918 147.77C236.466 144.984 238.245 142.333 240.236 139.844L241.244 138.584L243.284 135.729C243.589 135.301 243.958 134.923 244.378 134.608L244.433 134.567C245.284 133.929 246.328 133.584 247.392 133.584C248.272 133.584 249.143 133.823 249.898 134.276C250.773 134.801 251.461 135.589 251.863 136.527L252.744 138.584L253.005 139.366C254.157 142.822 254.744 146.441 254.744 150.084V150.611C254.744 153.552 254.059 156.453 252.744 159.084M252.744 159.084L247.244 165.584M252.744 159.084C253.939 159.084 254.999 159.848 255.377 160.981L255.56 161.532C255.682 161.897 255.744 162.28 255.744 162.665V166.584C255.744 167.25 255.744 169.084 255.744 171.084C255.744 173.084 255.078 175.917 254.744 177.084L252.744 182.084L251.446 184.94C250.655 186.68 249.482 188.219 248.013 189.443C247.501 189.869 247.024 190.335 246.585 190.837L243.744 194.084L241.244 197.584L238.244 201.084M238.244 201.084L234.744 203.584M234.744 203.584L230.744 206.584L230.635 206.646C228.379 207.935 226.24 209.42 224.244 211.084L234.744 203.584Z" stroke="black" stroke-width="4" stroke-linecap="round"/>
<path d="M129.244 137.084L132.744 134.584L134.744 132.917L134.991 132.69C136.135 131.642 137.559 130.948 139.09 130.693C139.525 130.62 139.966 130.584 140.408 130.584H141.686C142.723 130.584 143.76 130.657 144.787 130.804L146.131 130.996C146.539 131.054 146.941 131.149 147.332 131.28C148.889 131.798 150.208 132.857 151.052 134.264L151.244 134.584L151.835 135.568C152.439 136.574 153.164 137.503 153.994 138.334C154.824 139.164 155.55 140.093 156.154 141.099L156.744 142.084C157.688 143.343 159.17 144.084 160.744 144.084H162.744H163.749C164.741 144.084 165.728 144.222 166.682 144.494C168.043 144.883 169.313 145.539 170.419 146.423L171.244 147.084L171.771 147.61C172.714 148.554 173.244 149.833 173.244 151.167C173.244 151.444 173.221 151.721 173.176 151.994L173.067 152.649C172.853 153.931 172.449 155.175 171.867 156.338L171.244 157.584L169.244 161.584L167.244 165.584L165.834 167.699C164.779 169.281 163.512 170.711 162.068 171.949C161.187 172.704 160.363 173.541 159.62 174.433C158.712 175.522 157.686 176.53 156.579 177.416L155.744 178.084L153.793 179.384C153.096 179.849 152.446 180.382 151.853 180.975C151.116 181.711 150.293 182.354 149.4 182.89L148.244 183.584L146.915 184.343C145.492 185.156 143.882 185.584 142.244 185.584H139.744H136.744H134.244C132.929 185.584 131.632 185.277 130.455 184.689L130.244 184.584L129.306 184.115C128.6 183.762 127.933 183.335 127.317 182.842L126.64 182.3C126.048 181.826 125.544 181.25 125.154 180.6C124.559 179.608 124.244 178.472 124.244 177.315V176.084V173.084V169.084V165.584V161.584V158.935C124.244 158.07 123.901 157.24 123.289 156.628C122.931 156.27 122.494 156 122.014 155.84L120.573 155.36C120.022 155.176 119.455 155.042 118.879 154.96L118.336 154.882C116.948 154.684 115.539 154.672 114.148 154.846L112.244 155.084H111.404C110.307 155.084 109.221 155.293 108.203 155.7L108.155 155.719C107.55 155.961 106.918 156.13 106.274 156.222C104.627 156.458 102.947 156.185 101.459 155.441L100.744 155.084L99.2376 154.18C98.5816 153.786 98.0082 153.269 97.5491 152.657L97.1996 152.191C96.8998 151.791 96.6934 151.329 96.5954 150.839C96.376 149.742 96.7194 148.608 97.5104 147.817L98.2442 147.084L98.9981 146.48C100.159 145.552 101.415 144.748 102.744 144.084C105.053 143.094 107.54 142.584 110.052 142.584H110.244H114.244H115.426C117.295 142.584 119.153 142.311 120.943 141.774C122.471 141.315 123.936 140.668 125.304 139.848L125.744 139.584L129.244 137.084Z" fill="#008610"/>
<path d="M135.744 132.084L134.744 132.917M134.744 132.917L132.744 134.584L129.244 137.084L125.744 139.584L125.304 139.848C123.936 140.668 122.471 141.315 120.943 141.774C119.153 142.311 117.295 142.584 115.426 142.584H114.244H110.244H110.052C107.54 142.584 105.053 143.094 102.744 144.084C101.415 144.748 100.159 145.552 98.9981 146.48L98.2442 147.084L97.5104 147.817C96.7194 148.608 96.376 149.742 96.5954 150.839C96.6934 151.329 96.8998 151.791 97.1996 152.191L97.5491 152.657C98.0082 153.269 98.5816 153.786 99.2376 154.18L100.744 155.084L101.459 155.441C102.947 156.185 104.627 156.458 106.274 156.222C106.918 156.13 107.55 155.961 108.155 155.719L108.203 155.7C109.221 155.293 110.307 155.084 111.404 155.084H112.244L114.148 154.846C115.539 154.672 116.948 154.684 118.336 154.882L118.879 154.96C119.455 155.042 120.022 155.176 120.573 155.36L122.014 155.84C122.494 156 122.931 156.27 123.289 156.628C123.901 157.24 124.244 158.07 124.244 158.935V161.584V165.584C124.244 166.584 124.244 168.684 124.244 169.084C124.244 169.484 124.244 171.917 124.244 173.084V176.084V177.315C124.244 178.472 124.559 179.608 125.154 180.6C125.544 181.25 126.048 181.826 126.64 182.3L127.317 182.842C127.933 183.335 128.6 183.762 129.306 184.115L130.244 184.584L130.455 184.689C131.632 185.277 132.929 185.584 134.244 185.584C135.044 185.584 136.244 185.584 136.744 185.584H139.744H142.244C143.882 185.584 145.492 185.156 146.915 184.343L148.244 183.584L149.4 182.89C150.293 182.354 151.116 181.711 151.853 180.975C152.446 180.382 153.096 179.849 153.793 179.384L155.744 178.084L156.579 177.416C157.686 176.53 158.712 175.522 159.62 174.433C160.363 173.541 161.187 172.704 162.068 171.949C163.512 170.711 164.779 169.281 165.834 167.699L167.244 165.584L169.244 161.584L171.244 157.584L171.867 156.338C172.449 155.175 172.853 153.931 173.067 152.649L173.176 151.994C173.221 151.721 173.244 151.444 173.244 151.167C173.244 149.833 172.714 148.554 171.771 147.61L171.244 147.084L170.419 146.423C169.313 145.539 168.043 144.883 166.682 144.494C165.728 144.222 164.741 144.084 163.749 144.084H162.744H160.744C159.17 144.084 157.688 143.343 156.744 142.084L156.154 141.099C155.55 140.093 154.824 139.164 153.994 138.334C153.164 137.503 152.439 136.574 151.835 135.568L151.244 134.584L151.052 134.264C150.208 132.857 148.889 131.798 147.332 131.28C146.941 131.149 146.539 131.054 146.131 130.996L144.787 130.804C143.76 130.657 142.723 130.584 141.686 130.584H140.408C139.966 130.584 139.525 130.62 139.09 130.693C137.559 130.948 136.135 131.642 134.991 132.69L134.744 132.917ZM108.744 159.584L111.744 161.584L114.244 163.584L114.786 164.126C115.74 165.08 116.417 166.275 116.744 167.584" stroke="black" stroke-width="2" stroke-linecap="round"/>
<path d="M128.244 157.584L129.744 158.084L132.244 158.584L134.744 159.084C136.073 159.416 137.437 159.584 138.806 159.584H139.244H142.244H144.744H148.244H151.744H154.744H155.195C156.89 159.584 158.582 159.416 160.244 159.084L162.041 157.8C162.214 157.677 162.414 157.913 162.264 158.064C162.251 158.077 162.236 158.088 162.219 158.096L160.244 159.084V160.334C160.244 161.149 160.003 161.945 159.551 162.624C159.347 162.929 159.185 163.26 159.069 163.608L159.063 163.626C158.853 164.256 158.5 164.828 158.031 165.297L157.244 166.084L156.382 166.946C155.958 167.37 155.577 167.835 155.244 168.334C154.912 168.832 154.531 169.297 154.107 169.721L153.744 170.084C153.079 170.749 152.35 171.346 151.568 171.868L151.244 172.084L149.244 173.584L147.744 174.584L145.744 175.584L144.244 176.584L143.339 177.187C142.944 177.45 142.516 177.66 142.066 177.81C141.522 177.991 140.952 178.084 140.378 178.084H139.244H136.744H135.569C134.698 178.084 133.838 177.881 133.059 177.491L132.865 177.394C132.454 177.188 132.078 176.918 131.753 176.592C131.098 175.938 130.673 175.088 130.542 174.171L130.332 172.699C130.274 172.289 130.244 171.876 130.244 171.462V170.084V166.084V163.584V163.386C130.244 162.211 129.896 161.062 129.244 160.084L127.744 157.384L128.244 157.584Z" fill="#092C00"/>
<path d="M123.744 156.084L125.744 156.584L127.744 157.384M160.244 159.084L162.219 158.096C162.236 158.088 162.251 158.077 162.264 158.064C162.414 157.913 162.214 157.677 162.041 157.8L160.244 159.084ZM160.244 159.084V160.334C160.244 161.149 160.003 161.945 159.551 162.624C159.347 162.929 159.185 163.26 159.069 163.608L159.063 163.626C158.853 164.256 158.5 164.828 158.031 165.297L157.244 166.084L156.382 166.946C155.958 167.37 155.577 167.835 155.244 168.334C154.912 168.832 154.531 169.297 154.107 169.721L153.744 170.084C153.079 170.749 152.35 171.346 151.568 171.868L151.244 172.084L149.244 173.584L147.744 174.584L145.744 175.584L144.244 176.584L143.339 177.187C142.944 177.45 142.516 177.66 142.066 177.81C141.522 177.991 140.952 178.084 140.378 178.084H139.244H136.744H135.569C134.698 178.084 133.838 177.881 133.059 177.491L132.865 177.394C132.454 177.188 132.078 176.918 131.753 176.592C131.098 175.938 130.673 175.088 130.542 174.171L130.332 172.699C130.274 172.289 130.244 171.876 130.244 171.462V170.084V166.084V163.584V163.386C130.244 162.211 129.896 161.062 129.244 160.084L127.744 157.384M160.244 159.084C158.582 159.416 156.89 159.584 155.195 159.584H154.744H151.744H148.244H144.744H142.244H139.244H138.806C137.437 159.584 136.073 159.416 134.744 159.084L132.244 158.584L129.744 158.084L128.244 157.584L127.744 157.384M120.244 143.084L120.4 143.162C121.626 143.774 122.915 144.251 124.244 144.584C125.243 144.916 126.217 145.32 127.158 145.791L127.744 146.084" stroke="black" stroke-linecap="round"/>
<g filter="url(#filter0_f_8_127)">
<path d="M146.761 208.174L138.324 239.521H135.562L144 208.174H146.761ZM143.647 226.379V224.334L160.113 215.947V219.22L147.482 225.305L147.584 225.101V225.612L147.482 225.407L160.113 231.493V234.765L143.647 226.379Z" fill="#1A1919"/>
</g>
<path d="M181.244 128.084C181.744 118.583 166.744 115.084 163.744 127.084" stroke="black" stroke-width="2" stroke-linecap="round"/>
<path d="M129.744 122.084C130.244 115.584 121.244 112.084 116.744 120.584" stroke="black" stroke-width="2" stroke-linecap="round"/>
<path d="M276.87 135.585L276.276 132.792C277.879 132.452 278.922 131.896 279.407 131.125C279.892 130.354 279.983 129.255 279.68 127.829L279.027 124.758C278.663 123.044 278.607 121.623 278.861 120.495C279.122 119.355 279.623 118.43 280.363 117.721C281.112 117.01 282.056 116.442 283.195 116.016C284.334 115.59 285.603 115.228 287.002 114.931L287.941 119.349C286.848 119.581 286.045 119.902 285.531 120.311C285.025 120.709 284.734 121.226 284.656 121.862C284.576 122.489 284.632 123.252 284.823 124.15L285.685 128.207C285.835 128.911 285.848 129.611 285.724 130.305C285.599 130.99 285.236 131.653 284.637 132.293C284.035 132.924 283.112 133.522 281.867 134.087C280.62 134.643 278.954 135.142 276.87 135.585ZM294.476 150.097C293.078 150.394 291.772 150.58 290.558 150.654C289.344 150.728 288.25 150.592 287.277 150.247C286.312 149.901 285.479 149.26 284.777 148.325C284.086 147.397 283.558 146.076 283.194 144.363L282.538 141.278C282.235 139.852 281.705 138.885 280.949 138.378C280.192 137.87 279.013 137.787 277.41 138.128L276.817 135.335C278.901 134.892 280.627 134.675 281.994 134.685C283.359 134.685 284.445 134.856 285.254 135.197C286.06 135.529 286.661 135.987 287.056 136.571C287.449 137.146 287.722 137.79 287.873 138.503L288.736 142.56C288.925 143.449 289.183 144.164 289.511 144.704C289.841 145.254 290.318 145.607 290.942 145.765C291.577 145.93 292.441 145.897 293.534 145.664L294.476 150.097ZM277.41 138.128L276.276 132.792L281.264 131.732L282.398 137.067L277.41 138.128Z" fill="#008D10"/>
<path d="M78.4332 46.4146L77.2266 43.827C78.7113 43.1347 79.6032 42.3583 79.902 41.498C80.2009 40.6377 80.0422 39.5467 79.4259 38.225L78.0992 35.3799C77.3588 33.7921 76.9854 32.4199 76.9788 31.2631C76.9769 30.0938 77.2567 29.0804 77.8181 28.223C78.3882 27.3616 79.1802 26.5952 80.1941 25.9239C81.208 25.2526 82.363 24.6148 83.6589 24.0105L85.5679 28.1043C84.5552 28.5765 83.8448 29.0697 83.4368 29.5839C83.0333 30.0855 82.8652 30.655 82.9325 31.2923C82.9958 31.9211 83.2216 32.6517 83.6098 33.4842L85.3627 37.2433C85.6669 37.8956 85.8369 38.5738 85.8727 39.2781C85.9045 39.9737 85.7004 40.7011 85.2602 41.4601C84.816 42.2106 84.0509 43.0009 82.9649 43.8313C81.8748 44.6531 80.3642 45.5142 78.4332 46.4146ZM98.8528 56.5938C97.5568 57.1981 96.3259 57.6728 95.1598 58.018C93.9938 58.3632 92.8977 58.4773 91.8714 58.3603C90.8537 58.2393 89.8976 57.8022 89.0031 57.0491C88.1211 56.3006 87.31 55.1324 86.5696 53.5447L85.2369 50.6867C84.6206 49.365 83.8868 48.5421 83.0357 48.2181C82.1845 47.894 81.0165 48.0782 79.5318 48.7705L78.3251 46.1829C80.2562 45.2824 81.8888 44.6831 83.223 44.3849C84.5532 44.078 85.6505 44 86.5149 44.1507C87.3752 44.2928 88.0636 44.604 88.5801 45.0841C89.0925 45.5557 89.5028 46.1218 89.811 46.7827L91.5639 50.5418C91.9481 51.3657 92.3607 52.004 92.8016 52.4567C93.2466 52.9179 93.7908 53.1552 94.4344 53.1685C95.0906 53.1865 95.9251 52.9593 96.9378 52.4871L98.8528 56.5938ZM79.5318 48.7705L77.2266 43.827L81.8482 41.6719L84.1534 46.6154L79.5318 48.7705Z" fill="#008D10"/>
<path d="M51.0907 179.1L50.4 181.871C48.8104 181.474 47.6287 181.516 46.855 181.997C46.0813 182.477 45.5181 183.425 45.1653 184.84L44.4058 187.886C43.982 189.586 43.4087 190.888 42.6858 191.791C41.9514 192.701 41.0962 193.312 40.1203 193.625C39.1352 193.936 38.0374 194.033 36.827 193.917C35.6165 193.8 34.3176 193.569 32.9301 193.223L34.0229 188.84C35.1071 189.111 35.9696 189.174 36.6103 189.031C37.2395 188.896 37.7285 188.559 38.0773 188.021C38.4237 187.493 38.7081 186.783 38.9303 185.892L39.9337 181.867C40.1078 181.169 40.4026 180.535 40.8179 179.965C41.231 179.404 41.8474 178.967 42.6671 178.654C43.4846 178.351 44.5766 178.218 45.9432 178.256C47.3074 178.304 49.0233 178.585 51.0907 179.1ZM41.6276 158.339C43.0151 158.685 44.2705 159.091 45.3939 159.556C46.5173 160.022 47.441 160.623 48.1649 161.36C48.8796 162.094 49.3476 163.036 49.5688 164.184C49.7832 165.321 49.6784 166.739 49.2546 168.439L48.4917 171.499C48.1389 172.914 48.1913 174.015 48.6488 174.802C49.1064 175.59 50.1299 176.182 51.7195 176.578L51.0288 179.349C48.9614 178.833 47.3155 178.271 46.0909 177.664C44.8641 177.065 43.9622 176.435 43.3853 175.774C42.8061 175.122 42.4669 174.447 42.3677 173.749C42.2662 173.06 42.3037 172.362 42.4801 171.654L43.4835 167.63C43.7034 166.747 43.7845 165.992 43.7267 165.363C43.6712 164.724 43.3975 164.197 42.9057 163.782C42.4071 163.355 41.6156 163.006 40.5314 162.736L41.6276 158.339ZM51.7195 176.578L50.4 181.871L45.452 180.637L46.7716 175.345L51.7195 176.578Z" fill="#008D10"/>
<path d="M217.974 32.0059L217.139 34.7363C215.572 34.2573 214.39 34.2375 213.592 34.6768C212.794 35.1162 212.182 36.0332 211.756 37.4278L210.838 40.4298C210.326 42.1052 209.685 43.3748 208.916 44.2388C208.135 45.1091 207.249 45.675 206.258 45.9365C205.258 46.1952 204.157 46.2348 202.954 46.0552C201.751 45.8756 200.466 45.5768 199.099 45.1588L200.419 40.8391C201.488 41.1658 202.346 41.2746 202.993 41.1655C203.629 41.0627 204.135 40.752 204.511 40.2333C204.885 39.7237 205.206 39.0297 205.474 38.1513L206.687 34.1848C206.897 33.4965 207.225 32.8787 207.67 32.3314C208.111 31.7931 208.75 31.3892 209.585 31.1197C210.417 30.8592 211.515 30.7838 212.877 30.8934C214.237 31.0121 215.936 31.383 217.974 32.0059ZM209.61 10.778C210.977 11.196 212.21 11.6669 213.307 12.1906C214.405 12.7143 215.296 13.363 215.98 14.1366C216.656 14.9075 217.074 15.8721 217.234 17.0303C217.389 18.1767 217.21 19.5876 216.698 21.263L215.776 24.2786C215.35 25.6732 215.344 26.7757 215.76 27.586C216.176 28.3964 217.167 29.0411 218.734 29.5201L217.899 32.2504C215.861 31.6275 214.247 30.9804 213.056 30.3093C211.862 29.6473 210.994 28.971 210.453 28.2806C209.909 27.5993 209.605 26.9075 209.543 26.2051C209.477 25.5118 209.551 24.8164 209.764 24.1191L210.977 20.1526C211.243 19.2833 211.363 18.5329 211.339 17.9014C211.317 17.261 211.071 16.7204 210.602 16.2799C210.126 15.8275 209.354 15.4379 208.285 15.1112L209.61 10.778ZM218.734 29.5201L217.139 34.7363L212.262 33.2453L213.857 28.0291L218.734 29.5201Z" fill="#008D10"/>
<path d="M319.767 153.571C321.439 152.892 322.801 152.694 323.852 152.976C324.779 153.224 325.421 153.794 325.779 154.685C326.168 155.584 326.192 156.667 325.852 157.934C325.422 159.542 324.311 160.967 322.52 162.21C320.73 163.453 318.677 164.377 316.361 164.982L315.018 163.131L315.229 162.343C316.401 161.928 317.424 161.324 318.299 160.532C319.174 159.739 319.735 158.879 319.984 157.952C320.141 157.365 320.164 156.725 320.051 156.032C319.939 155.339 319.739 154.723 319.454 154.182L319.767 153.571ZM324.693 147.238C323.581 146.94 322.813 146.403 322.392 145.627C321.978 144.821 321.917 143.877 322.207 142.795C322.505 141.682 323.089 140.861 323.96 140.333C324.83 139.804 325.837 139.693 326.981 139.999C328.063 140.289 328.826 140.841 329.27 141.656C329.723 142.44 329.808 143.357 329.526 144.408C329.22 145.552 328.616 146.384 327.715 146.904C326.844 147.433 325.837 147.544 324.693 147.238Z" fill="#008D10"/>
<path d="M34.6475 97.8342C35.3506 96.1719 36.1733 95.0688 37.1155 94.5248C37.9469 94.0448 38.804 93.9934 39.6868 94.3705C40.5974 94.7316 41.3807 95.4802 42.0367 96.6165C42.8687 98.0575 43.091 99.8506 42.7036 101.996C42.3162 104.141 41.5179 106.246 40.3086 108.311L38.0505 107.952L37.6425 107.246C38.1773 106.124 38.4738 104.974 38.5321 103.794C38.5904 102.615 38.3795 101.61 37.8995 100.779C37.5955 100.252 37.1588 99.7837 36.5894 99.3735C36.0199 98.9632 35.4431 98.6681 34.8588 98.4881L34.6475 97.8342ZM33.6535 89.8725C32.6559 90.4485 31.7338 90.6114 30.8872 90.3611C30.0247 90.0831 29.3134 89.4592 28.7534 88.4892C28.1774 87.4916 28.0103 86.4981 28.2519 85.5087C28.4936 84.5193 29.1272 83.7286 30.1525 83.1366C31.1225 82.5766 32.0526 82.4275 32.9428 82.6895C33.8171 82.9238 34.5262 83.512 35.0702 84.4543C35.6622 85.4796 35.8235 86.495 35.5541 87.5004C35.3124 88.4898 34.6789 89.2805 33.6535 89.8725Z" fill="#008D10"/>
<path d="M3.74422 142.584L4.0082 142.98C8.63957 149.927 17.1621 153.179 25.2442 151.084" stroke="#008D10" stroke-width="9"/>
<path d="M297.744 91.0535L298.217 91.1058C306.516 92.0234 314.486 87.5853 318.076 80.0472" stroke="#008D10" stroke-width="9"/>
<path d="M153.068 23.7941L153.005 23.3224C151.887 15.0482 145.653 8.38899 137.47 6.72932" stroke="#008D10" stroke-width="9"/>
<path d="M244.744 86.9076L245.216 86.8439C253.49 85.7267 260.149 79.4924 261.809 71.3097" stroke="#008D10" stroke-width="9"/>
<path d="M294.627 193.584L294.616 194.059C294.425 202.406 299.541 209.959 307.364 212.878" stroke="#008D10" stroke-width="9"/>
<path d="M278.872 31.1383L278.387 31.283C270.416 33.6587 264.831 40.8306 264.48 49.1406" stroke="#008D10" stroke-width="9"/>
<path d="M53.7442 229.672L54.2475 229.614C62.5098 228.658 69.2556 222.565 71.0439 214.442" stroke="#008D10" stroke-width="9"/>
<path d="M82.4817 102.465L82.4411 101.96C81.7746 93.6697 75.9206 86.7154 67.8651 84.6447" stroke="#008D10" stroke-width="9"/>
<defs>
<filter id="filter0_f_8_127" x="135.062" y="207.674" width="25.5504" height="32.3466" filterUnits="userSpaceOnUse" color-interpolation-filters="sRGB">
<feFlood flood-opacity="0" result="BackgroundImageFix"/>
<feBlend mode="normal" in="SourceGraphic" in2="BackgroundImageFix" result="shape"/>
<feGaussianBlur stdDeviation="0.25" result="effect1_foregroundBlur_8_127"/>
</filter>
</defs>
</svg>
