<svg width="175" height="321" viewBox="0 0 175 321" fill="none" xmlns="http://www.w3.org/2000/svg">
<g filter="url(#filter0_d_5_54)">
<path d="M110.5 186.5L106.5 191V191.629C106.5 191.873 106.557 192.114 106.666 192.332C106.877 192.754 107.268 193.06 107.73 193.162L110.845 193.854C111.281 193.951 111.708 194.083 112.123 194.249L114.85 195.34C115.948 195.779 117.004 196.315 118.007 196.942C119.66 197.975 121.152 199.246 122.436 200.713L124 202.5L128 206.5C129.995 208.827 132.219 210.948 134.639 212.83L135.5 213.5L138.526 215.425C140.142 216.454 142.017 217 143.933 217C145.297 217 146.646 216.723 147.9 216.186L148.046 216.123C149.01 215.71 149.909 215.159 150.716 214.487L152.5 213L154.306 211.452C155.357 210.551 156.804 210.268 158.117 210.706C158.698 210.899 159.225 211.225 159.658 211.658L159.726 211.726C160.542 212.542 161 213.648 161 214.802V215.5V220.5V223.175C161 224.384 160.805 225.584 160.423 226.731L160.041 227.876C160.014 227.958 159.977 228.037 159.93 228.111L159.045 229.528C158.655 230.152 159.369 230.879 160 230.5L160.471 230.147C161.463 229.402 162.671 229 163.912 229H164.252C165.069 229 165.87 229.222 166.57 229.642C167.493 230.196 168.187 231.061 168.527 232.082L168.695 232.585C168.897 233.191 169 233.826 169 234.464V235C169 235.993 168.84 236.98 168.526 237.923L168.364 238.408C168.122 239.134 167.813 239.837 167.441 240.507L165.5 244L164.352 246.679C164.118 247.224 163.812 247.735 163.442 248.198L163.307 248.366C162.461 249.424 162 250.738 162 252.092C162 253.018 161.784 253.931 161.37 254.759L160 257.5L157 262.5L153.5 267L149 271.5L144.5 275.5L140.5 279C138.504 280.663 136.365 282.148 134.109 283.437L134 283.5L131.518 284.741C130.507 285.246 129.538 285.83 128.619 286.486C127.212 287.492 125.688 288.325 124.082 288.967L121.5 290L117.5 291.5L112 293L111.455 293.909C110.821 294.966 110.059 295.941 109.188 296.812L107.452 298.548C107.154 298.846 106.798 299.081 106.407 299.237C105.25 299.7 103.929 299.429 103.048 298.548L102.5 298L101.688 301.654C101.563 302.216 101.5 302.791 101.5 303.367C101.5 305.076 100.946 306.739 99.9202 308.106L99.4511 308.732C98.8208 309.572 98.0649 310.311 97.2101 310.921L95 312.5L94.25 312.95C93.1474 313.612 91.799 313.72 90.6052 313.242C90.2042 313.082 89.831 312.859 89.4993 312.583L88.7858 311.988C87.611 311.009 86.677 309.773 86.0559 308.376L85 306L83.5 302L81.5 297H80H75.5H71L66 296.5L61 295.5L56.5 294.5L53.5 293.5L50 292.5L47 291.5L44 290.5L41 289.5L38.5 292L37.4142 293.086C36.5087 293.991 35.2806 294.5 34 294.5H33C31.6193 294.5 30.5 295.619 30.5 297V298.206C30.5 299.38 30.181 300.532 29.5771 301.538L29.3431 301.928C29.116 302.307 28.9558 302.721 28.8692 303.154L28.7497 303.752C28.5921 304.539 28.0798 305.21 27.3613 305.569C26.8055 305.847 26.1686 305.917 25.5658 305.766L24.2127 305.428C23.092 305.148 22.0685 304.569 21.2517 303.752L20.8148 303.315C20.274 302.774 19.8077 302.164 19.4283 301.5L18 299C16.0139 296.021 14.3297 292.824 13 289.5L11 284L9.5 279.5L8.5 276.5L8.44686 276.367C7.81695 274.792 7.33263 273.163 7 271.5L6.5 267V264V258.879C6.5 258.63 6.55806 258.384 6.66959 258.161C6.8793 257.741 7.26183 257.435 7.71676 257.321L8.57771 257.106C8.85818 257.035 9.14619 257 9.43529 257H11.5L10.1685 255.003C9.72611 254.339 9.40113 253.605 9.20772 252.831C9.06976 252.279 9 251.712 9 251.144V249V245.5V241.5V237C9 235.003 9.16496 233.01 9.4932 231.041L9.5 231L10.5 227.5L11.5 223.5L12 221L13 218C13.6656 216.336 14.4633 214.728 15.3853 213.191L15.5 213L17 210L18.5 207L20.5 203.5L22 200.5L23.1679 198.164C23.3887 197.723 23.6555 197.306 23.9639 196.92L25.0195 195.601C25.3306 195.212 25.5 194.729 25.5 194.231C25.5 193.756 25.3461 193.295 25.0615 192.915L24.1708 191.728C24.0572 191.576 23.9574 191.415 23.8727 191.245C23.3378 190.176 22.2446 189.5 21.0486 189.5H20.5H18.5H16H15.3034C14.4424 189.5 13.5893 189.336 12.7898 189.016C11.9388 188.676 11.1658 188.166 10.5177 187.518L9.90904 186.909C9.63669 186.637 9.34535 186.384 9.03722 186.153L8.64137 185.856C7.89077 185.293 7.28155 184.563 6.86195 183.724C6.62172 183.243 6.44662 182.733 6.34127 182.206L6.17386 181.369C6.05824 180.791 6 180.203 6 179.613V179.488C6 178.181 6.30434 176.891 6.88893 175.722C7.29366 174.913 7.82625 174.174 8.46618 173.534L9.5 172.5L10.8291 171.171C10.9429 171.057 11.0646 170.952 11.1934 170.855L11.5497 170.588C12.4285 169.929 12.8267 168.807 12.5603 167.741C12.5202 167.581 12.4656 167.424 12.3971 167.274L10 162C9.00533 158.684 8.5 155.241 8.5 151.78V150.5V141C8.5 136.397 9.34746 131.797 11 127.5L14.5 120L18.5 113.5L22 109L27.5 103.5L31.5 100L36.5 96.5L41.5 93C44.4852 91.3415 47.6885 90.1104 51.016 89.3425L52.5 89L60 88H67.5H68.3902C71.4542 88 74.509 88.3353 77.5 89L82.5 90.5L89 93C91.9959 94.3315 94.8887 95.8837 97.6546 97.6438L99 98.5L101.584 100.379C103.513 101.782 105.177 103.516 106.5 105.5L109.5 109L112 112L115 116L115.759 117.233C117.907 120.724 119.506 124.524 120.5 128.5L122 136.5L122.038 136.666C123.01 140.875 123.5 145.181 123.5 149.5C123.5 153.15 123.013 156.784 122.053 160.306L122 160.5L120.5 166.5C119.502 170.161 118.211 173.736 116.641 177.19L116.5 177.5L114 181.5L110.5 186.5Z" fill="#F9F9F9"/>
<path d="M99 196C100.995 195.002 102.887 193.81 104.648 192.441L106.5 191M106.5 191L110.5 186.5L114 181.5L116.5 177.5L116.641 177.19C118.211 173.736 119.502 170.161 120.5 166.5L122 160.5L122.053 160.306C123.013 156.784 123.5 153.15 123.5 149.5C123.5 145.181 123.01 140.875 122.038 136.666L122 136.5L120.5 128.5C119.506 124.524 117.907 120.724 115.759 117.233L115 116L112 112L109.5 109L106.5 105.5C105.177 103.516 103.513 101.782 101.584 100.379L99 98.5L97.6546 97.6438C94.8887 95.8837 91.9959 94.3315 89 93L82.5 90.5L77.5 89C74.509 88.3353 71.4542 88 68.3902 88H67.5H60L52.5 89L51.016 89.3425C47.6885 90.1104 44.4852 91.3415 41.5 93L36.5 96.5L31.5 100L27.5 103.5L22 109L18.5 113.5L14.5 120L11 127.5C9.34746 131.797 8.5 136.397 8.5 141V150.5V151.78C8.5 155.241 9.00533 158.684 10 162L12.3971 167.274C12.4656 167.424 12.5202 167.581 12.5603 167.741C12.8267 168.807 12.4285 169.929 11.5497 170.588L11.1934 170.855C11.0646 170.952 10.9429 171.057 10.8291 171.171L9.5 172.5L8.46618 173.534C7.82625 174.174 7.29366 174.913 6.88893 175.722C6.30434 176.891 6 178.181 6 179.488V179.613C6 180.203 6.05824 180.791 6.17386 181.369L6.34127 182.206C6.44662 182.733 6.62172 183.243 6.86195 183.724C7.28155 184.563 7.89077 185.293 8.64137 185.856L9.03722 186.153C9.34535 186.384 9.63669 186.637 9.90904 186.909L10.5177 187.518C11.1658 188.166 11.9388 188.676 12.7898 189.016C13.5893 189.336 14.4424 189.5 15.3034 189.5H16H18.5H20.5H21.0486C22.2446 189.5 23.3378 190.176 23.8727 191.245C23.9574 191.415 24.0572 191.576 24.1708 191.728L25.0615 192.915C25.3461 193.295 25.5 193.756 25.5 194.231C25.5 194.729 25.3306 195.212 25.0195 195.601L23.9639 196.92C23.6555 197.306 23.3887 197.723 23.1679 198.164L22 200.5L20.5 203.5L18.5 207L17 210L15.5 213L15.3853 213.191C14.4633 214.728 13.6656 216.336 13 218L12 221L11.5 223.5L10.5 227.5L9.5 231L9.4932 231.041C9.16496 233.01 9 235.003 9 237V241.5V245.5V249V251.144C9 251.712 9.06976 252.279 9.20772 252.831C9.40113 253.605 9.72611 254.339 10.1685 255.003L11.5 257M106.5 191V191.629C106.5 191.873 106.557 192.114 106.666 192.332C106.877 192.754 107.268 193.06 107.73 193.162L110.845 193.854C111.281 193.951 111.708 194.083 112.123 194.249L114.85 195.34C115.948 195.779 117.004 196.315 118.007 196.942C119.66 197.975 121.152 199.246 122.436 200.713L124 202.5L128 206.5C129.995 208.827 132.219 210.948 134.639 212.83L135.5 213.5L138.526 215.425C140.142 216.454 142.017 217 143.933 217C145.297 217 146.646 216.723 147.9 216.186L148.046 216.123C149.01 215.71 149.909 215.159 150.716 214.487L152.5 213L154.306 211.452C155.357 210.551 156.804 210.268 158.117 210.706C158.698 210.899 159.225 211.225 159.658 211.658L159.726 211.726C160.542 212.542 161 213.648 161 214.802V215.5V220.5V223.175C161 224.384 160.805 225.584 160.423 226.731L160.041 227.876C160.014 227.958 159.977 228.037 159.93 228.111L159.045 229.528C158.655 230.152 159.369 230.879 160 230.5L160.471 230.147C161.463 229.402 162.671 229 163.912 229H164.252C165.069 229 165.87 229.222 166.57 229.642C167.493 230.196 168.187 231.061 168.527 232.082L168.695 232.585C168.897 233.191 169 233.826 169 234.464V235C169 235.994 168.84 236.981 168.526 237.923L168.364 238.408C168.122 239.134 167.813 239.837 167.441 240.507L165.5 244L164.352 246.679C164.118 247.224 163.812 247.735 163.442 248.198L163.307 248.366C162.461 249.424 162 250.738 162 252.092C162 253.018 161.784 253.931 161.37 254.759L160 257.5L157 262.5L153.5 267L149 271.5L144.5 275.5L140.5 279C138.504 280.663 136.365 282.148 134.109 283.437L134 283.5L131.518 284.741C130.507 285.246 129.538 285.83 128.619 286.486C127.212 287.492 125.688 288.325 124.082 288.967L121.5 290L117.5 291.5L112 293M11.5 257L13 261.5C13.9985 263.83 15.1747 266.08 16.5182 268.229L17 269C18.3301 270.995 19.854 272.854 21.5495 274.55L22 275C23.9971 277.33 26.1701 279.503 28.5 281.5L32 284L35 286L36.7639 286.882C38.2516 287.626 39.6694 288.502 41 289.5M11.5 257H9.43529C9.14619 257 8.85818 257.035 8.57771 257.106L7.71676 257.321C7.26183 257.435 6.8793 257.741 6.66959 258.161C6.55806 258.384 6.5 258.63 6.5 258.879V264V267L7 271.5C7.33263 273.163 7.81695 274.792 8.44686 276.367L8.5 276.5L9.5 279.5L11 284L13 289.5C14.3297 292.824 16.0139 296.021 18 299L19.4283 301.5C19.8077 302.164 20.274 302.774 20.8148 303.315L21.2517 303.752C22.0685 304.569 23.092 305.148 24.2127 305.428L25.5658 305.766C26.1686 305.917 26.8055 305.847 27.3613 305.569C28.0798 305.21 28.5921 304.539 28.7497 303.752L28.8692 303.154C28.9558 302.721 29.116 302.307 29.3431 301.928L29.5771 301.538C30.181 300.532 30.5 299.38 30.5 298.206V297C30.5 295.619 31.6193 294.5 33 294.5H34C35.2806 294.5 36.5087 293.991 37.4142 293.086L38.5 292L41 289.5M41 289.5L44 290.5L47 291.5L50 292.5L53.5 293.5L56.5 294.5L61 295.5L66 296.5L71 297H75.5H80H81.5M81.5 297V286L81 269.5V259V249.042C81 249.014 80.9972 248.986 80.9917 248.958C80.8887 248.444 80.1282 248.53 80.1431 249.055L81.5 297ZM81.5 297L83.5 302L85 306L86.0559 308.376C86.677 309.773 87.611 311.009 88.7858 311.988L89.4993 312.583C89.831 312.859 90.2042 313.082 90.6052 313.242C91.799 313.72 93.1474 313.612 94.25 312.95L95 312.5L97.2101 310.921C98.0649 310.311 98.8208 309.572 99.4511 308.732L99.9202 308.106C100.946 306.739 101.5 305.076 101.5 303.367C101.5 302.791 101.563 302.216 101.688 301.654L102.5 298M102.5 298L102 285M102.5 298L103.048 298.548C103.929 299.429 105.25 299.7 106.407 299.237C106.798 299.081 107.154 298.846 107.452 298.548L109.188 296.812C110.059 295.941 110.821 294.966 111.455 293.909L112 293M112 293L113.5 289.5L115.5 285L117.5 281M117.5 281C117.5 281 116.073 266.403 116.5 270.5C116.704 272.452 117 275.5 117 275.5L117.217 277.02C117.405 278.338 117.5 279.668 117.5 281ZM117.5 281L118.022 280.391C119.664 278.475 121.006 276.32 122 274L123 271L124 266.5C124.332 265.172 124.5 263.808 124.5 262.438V259.5V256V255.05C124.5 253.354 124.333 251.663 124 250M124 250L123.019 247.548C123.006 247.516 123 247.483 123 247.449C123 247.125 123.47 247.082 123.527 247.401L124 250Z" stroke="black" stroke-width="4" stroke-linecap="round"/>
<path d="M27.4602 185.969L26.8692 185.17C26.7858 185.057 26.721 184.932 26.6772 184.799C26.444 184.09 26.8472 183.329 27.5648 183.124L28 183L29.7033 182.67L31 182.5L33.1567 182.346H35.1016H37.4858H39.3145H41.5C42.8283 182.448 44.1107 182.912 45.4402 182.998C45.4615 182.999 45.4815 183 45.5 183C45.9 183 47 183.333 47.5 183.5L49.5 184L51 184.5L51.7388 184.746C52.243 184.914 52.7709 185 53.3024 185C53.684 185 54.0643 185.044 54.4357 185.132L56 185.5L57.5 186L59 186.5L60.0762 186.802C60.5467 186.934 61.0045 187.107 61.4443 187.32L62.1611 187.667C62.2291 187.7 62.2932 187.74 62.3523 187.787C62.8316 188.168 62.868 188.887 62.4382 189.323C62.3242 189.438 62.1832 189.527 62.0295 189.579L60.7833 190L58.81 190.5L57.33 191L56.7913 191.136C55.8386 191.378 54.8595 191.5 53.8767 191.5H51.9033H50.4233H48.9433H47.4633H45.9833H44.5033H42.53H39.57H39.1588C38.1243 191.5 37.0968 191.331 36.1167 191L35.2156 190.772C34.5029 190.591 33.8124 190.332 33.1567 190L31.1833 189L29.7033 188L29.2863 187.718C28.5828 187.243 27.9653 186.651 27.4602 185.969Z" fill="#520000" stroke="black" stroke-width="0.25" stroke-linecap="round"/>
<path d="M43.5 159L44.0748 158.425C44.3576 158.142 44.6676 157.888 45.0004 157.666C45.6604 157.226 46.4002 156.92 47.1781 156.764L47.6661 156.667C48.2207 156.556 48.7849 156.5 49.3504 156.5H50.4162C51.137 156.5 51.856 156.571 52.5627 156.713L53.2064 156.841C53.7331 156.947 54.2434 157.122 54.7239 157.362C55.5631 157.782 56.2931 158.391 56.856 159.141L57.5 160L58.0219 160.696C58.6731 161.564 59.3852 162.385 60.1527 163.153L60.2261 163.226C61.4049 164.405 62.7137 165.446 64.1274 166.33L64.1887 166.368C65.3932 167.121 66.67 167.751 68 168.25C69.33 168.749 70.6068 169.379 71.8113 170.132L72.2623 170.414C73.419 171.137 74.6297 171.77 75.8835 172.307L77.5 173L78.5262 173.513C79.7839 174.142 80.7199 175.27 81.1062 176.622C81.3636 177.523 81.3636 178.477 81.1062 179.378L80.9756 179.835C80.6637 180.927 80.0787 181.921 79.2758 182.724L78.9627 183.037C78.3251 183.675 77.5888 184.206 76.7822 184.609L75 185.5L71.5 187L69.9492 187.517C68.9854 187.838 67.9923 188.063 66.9842 188.189L65.7649 188.342C64.9271 188.447 64.0779 188.416 63.25 188.25C62.4221 188.084 61.6263 187.786 60.8932 187.368L60.25 187C59.0909 186.338 57.8326 185.867 56.5236 185.605L56 185.5L54 185C52.3368 184.667 50.7076 184.183 49.1328 183.553L49 183.5L47.8757 183.125C46.6278 182.709 45.3449 182.406 44.0427 182.22C43.0155 182.074 41.9792 182 40.9417 182H39.5H35.5H32L31.6119 182.049C29.2076 182.349 26.8299 182.834 24.5 183.5L22.6827 184.019C21.5663 184.338 20.411 184.5 19.25 184.5H18.9954C18.0033 184.5 17.0161 184.362 16.0621 184.089L14.9073 183.759C14.3084 183.588 13.7495 183.3 13.2632 182.911L13.0588 182.747C12.0735 181.959 11.5 180.766 11.5 179.504C11.5 178.532 11.8406 177.591 12.4627 176.845L13.1687 175.998C13.7185 175.338 14.3818 174.782 15.1275 174.356L15.9832 173.867C16.9896 173.292 18.0702 172.857 19.1948 172.576L21.5 172L25 171.5L28.5 170.5C30.7973 169.844 33.012 168.825 35 167.5C36.6616 166.171 38.1708 164.662 39.5 163L41.5 161L43.5 159Z" fill="#FF0000" stroke="black" stroke-width="2" stroke-linecap="round"/>
<g opacity="0.8" filter="url(#filter1_f_5_54)">
<mask id="path-5-inside-1_5_54" fill="white">
<path d="M54 165C54 164.534 53.8779 164.082 53.6547 163.723C53.4315 163.365 53.1214 163.121 52.7778 163.035C52.4342 162.948 52.0788 163.025 51.773 163.251C51.4672 163.477 51.2302 163.838 51.1029 164.272C50.9756 164.706 50.9661 165.186 51.076 165.629C51.1859 166.071 51.4083 166.449 51.7047 166.696C52.0012 166.943 52.3531 167.044 52.6996 166.982C53.0461 166.92 53.3655 166.699 53.6025 166.356L52.5 165H54Z"/>
</mask>
<path d="M54 165C54 164.534 53.8779 164.082 53.6547 163.723C53.4315 163.365 53.1214 163.121 52.7778 163.035C52.4342 162.948 52.0788 163.025 51.773 163.251C51.4672 163.477 51.2302 163.838 51.1029 164.272C50.9756 164.706 50.9661 165.186 51.076 165.629C51.1859 166.071 51.4083 166.449 51.7047 166.696C52.0012 166.943 52.3531 167.044 52.6996 166.982C53.0461 166.92 53.3655 166.699 53.6025 166.356L52.5 165H54Z" fill="#1A1919"/>
<path d="M54 165C54 164.534 53.8779 164.082 53.6547 163.723C53.4315 163.365 53.1214 163.121 52.7778 163.035C52.4342 162.948 52.0788 163.025 51.773 163.251C51.4672 163.477 51.2302 163.838 51.1029 164.272C50.9756 164.706 50.9661 165.186 51.076 165.629C51.1859 166.071 51.4083 166.449 51.7047 166.696C52.0012 166.943 52.3531 167.044 52.6996 166.982C53.0461 166.92 53.3655 166.699 53.6025 166.356L52.5 165H54Z" stroke="black" stroke-width="2" mask="url(#path-5-inside-1_5_54)"/>
</g>
<g filter="url(#filter2_f_5_54)">
<path d="M39.017 221.591L30.5795 252.938H27.8182L36.2557 221.591H39.017ZM35.9027 239.795V237.75L52.3686 229.364V232.636L39.7379 238.722L39.8402 238.517V239.028L39.7379 238.824L52.3686 244.909V248.182L35.9027 239.795Z" fill="#1A1919"/>
</g>
<line x1="68.4134" y1="141.049" x2="81.0487" y2="154.587" stroke="#1E1E1E" stroke-width="2" stroke-linecap="round"/>
<line x1="81" y1="142.414" x2="68.4142" y2="155" stroke="#1E1E1E" stroke-width="2" stroke-linecap="round"/>
<line x1="1" y1="-1" x2="20.2132" y2="-1" transform="matrix(-0.707107 0.707107 0.754028 0.656842 37 141)" stroke="#1E1E1E" stroke-width="2" stroke-linecap="round"/>
<line x1="1" y1="-1" x2="19.5183" y2="-1" transform="matrix(0.731055 0.682318 0.731055 -0.682318 22 141)" stroke="#1E1E1E" stroke-width="2" stroke-linecap="round"/>
<g filter="url(#filter3_f_5_54)">
<mask id="path-11-inside-2_5_54" fill="white">
<path d="M96.7968 46.1444L95.7845 44.3728C95.3786 43.6626 95.724 42.7587 96.5 42.5L96.6563 42.4479C97.5399 42.1534 98.3429 41.6571 99.0015 40.9984L99.5 40.5L100.129 39.8708C100.704 39.2963 101.156 38.611 101.457 37.8565L101.571 37.5728C101.854 36.8641 102 36.1078 102 35.3445V35.2386C102 34.7481 101.94 34.2593 101.821 33.7834L101.66 33.139C101.554 32.7143 101.401 32.3025 101.205 31.9109L100.935 31.3709C100.647 30.7941 100.268 30.2675 99.8115 29.8115L99.4201 29.4201C99.1407 29.1407 98.8344 28.8896 98.5057 28.6704L97.8624 28.2416C97.6211 28.0807 97.3685 27.9376 97.1065 27.8133L96.8192 27.6769C96.2761 27.4192 95.6975 27.2446 95.1025 27.1589L94.4256 27.0613C94.1422 27.0205 93.8563 27 93.57 27H93.1555C92.3922 27 91.6359 26.8543 90.9272 26.5709L90.2368 26.2947C89.7477 26.0991 89.2865 25.8399 88.8651 25.5239L87.8411 24.7558C87.614 24.5855 87.3992 24.3992 87.1985 24.1985L86.6885 23.6885C86.2325 23.2325 85.853 22.7059 85.5646 22.1291L84.5 20L83.4675 18.2791C83.1576 17.7626 82.7717 17.2958 82.3228 16.8942L80.7642 15.5L78.9128 13.8646C78.6382 13.6221 78.3419 13.4051 78.0277 13.2166L76.8912 12.5347C76.3014 12.1809 75.6553 11.9311 74.9809 11.7962L73.5 11.5L70.4221 11.0603C70.1411 11.0202 69.8575 11 69.5736 11H68.8403C68.2828 11 67.728 11.0777 67.192 11.2309L65.0362 11.8468C64.6795 11.9487 64.333 12.0835 64.0012 12.2494L62.0685 13.2157C61.6906 13.4047 61.3336 13.6331 61.0036 13.8971L59.5206 15.0835C59.1746 15.3603 58.8603 15.6746 58.5835 16.0206L57 18L55.5 20.5L54.9354 21.6291C54.647 22.2059 54.2675 22.7325 53.8115 23.1885L52.8015 24.1985C52.6008 24.3992 52.386 24.5855 52.1589 24.7558L51.1349 25.5239C50.7135 25.8399 50.2523 26.0991 49.7632 26.2947L48.932 26.6272C48.3163 26.8735 47.6593 27 46.9962 27C46.6661 27 46.3369 27.0313 46.0127 27.0936L45.4376 27.2041C45.1465 27.26 44.8508 27.2882 44.5544 27.2882H44.4394C43.8209 27.2882 43.2101 27.4257 42.6513 27.6909C42.2203 27.8955 41.8276 28.1724 41.4902 28.5098L40.5 29.5L39.6441 30.3559C39.2175 30.7825 38.8624 31.2751 38.5926 31.8147C38.2029 32.5942 38 33.4537 38 34.3252V34.5V35.5263C38 36.1712 38.104 36.8119 38.3079 37.4237L38.3652 37.5955C38.4549 37.8648 38.5637 38.1274 38.6907 38.3814L39.0646 39.1291C39.353 39.7059 39.7325 40.2325 40.1885 40.6885L40.3115 40.8115C40.7675 41.2675 41.2941 41.647 41.8709 41.9354L42.8584 42.4292C42.9525 42.4763 43.0515 42.5129 43.1535 42.5384C44.0805 42.7701 44.5297 43.823 44.0557 44.6525L43.1892 46.1688C43.0637 46.3886 42.9689 46.6245 42.9075 46.87L42.1945 49.7218C42.0802 50.1792 41.6693 50.5 41.1979 50.5C41.0672 50.5 40.9377 50.4751 40.8163 50.4265L39.2368 49.7947C38.7477 49.5991 38.2865 49.3399 37.8651 49.0239L36.5 48L35.1857 47.0143C34.7309 46.6732 34.3268 46.2691 33.9857 45.8143L33.3357 44.9476C33.1124 44.6498 32.9173 44.332 32.7529 43.9981L31.769 42L30.8064 40.1037C30.6028 39.7025 30.4449 39.2797 30.3358 38.8432L30.1791 38.2166C30.0602 37.7407 30 37.2519 30 36.7614V35V33.5941C30 33.199 30.039 32.8049 30.1165 32.4174L30.3803 31.0986C30.4599 30.7006 30.5797 30.3116 30.7378 29.9378L31.488 28.1642C31.6747 27.723 31.9135 27.3057 32.1994 26.9213L33.7382 24.852C33.9125 24.6176 34.1037 24.3963 34.3102 24.1898L35.6985 22.8015C35.8992 22.6008 36.114 22.4145 36.3411 22.2442L37.3651 21.4761C37.7865 21.1601 38.2477 20.9009 38.7368 20.7053L40.5 20L42.5763 19.3079C43.1881 19.104 43.8288 19 44.4737 19H44.5H45.5H46C46.3201 19 46.6272 18.8728 46.8535 18.6464L47.2709 18.2291C47.423 18.0769 47.556 17.9067 47.6667 17.7222L49 15.5L51 12.5L52.5242 10.5948C52.8401 10.1999 53.2047 9.84644 53.6094 9.54297L55 8.5L57 7L58.3651 5.97614C58.7865 5.66009 59.2477 5.40091 59.7368 5.20528L61.5 4.5L65 3.5L67.5102 3.08164C67.8362 3.02731 68.1661 3 68.4966 3H71.5736C71.8575 3 72.1411 3.02015 72.4221 3.0603L75.5 3.5L78.4638 4.3468C78.8205 4.44872 79.167 4.58349 79.4988 4.74938L82.4315 6.21573C82.8094 6.40472 83.1664 6.6331 83.4963 6.89708L85.5 8.5L87.5 10.5L89.1029 12.5036C89.3669 12.8336 89.5953 13.1906 89.7843 13.5685L90.5 15L91.1439 16.2879C91.3798 16.7595 91.6901 17.1901 92.063 17.563C92.9831 18.4831 94.231 19 95.5322 19H95.6555C96.2148 19 96.7705 19.0902 97.3011 19.267L99.0955 19.8652C99.3648 19.9549 99.6274 20.0637 99.8814 20.1907L101.5 21L102.629 21.5646C103.206 21.853 103.732 22.2325 104.188 22.6885L105 23.5L106.312 24.8115C106.768 25.2675 107.147 25.7941 107.435 26.3709L108 27.5L108.705 28.9109C108.901 29.3025 109.054 29.7143 109.16 30.139L109.5 31.5L109.821 32.7834C109.94 33.2593 110 33.7481 110 34.2386V34.9059C110 35.301 109.961 35.6951 109.883 36.0826L109.5 38L109.108 39.9598C109.036 40.3192 108.932 40.6712 108.795 41.0115L108.295 42.2632C108.099 42.7523 107.84 43.2135 107.524 43.6348L106.756 44.6589C106.585 44.886 106.399 45.1008 106.198 45.3015L104.5 47L102.694 48.4446C102.234 48.8128 101.722 49.1113 101.174 49.3302L99.5 50C98.6909 50.2697 97.8234 49.7935 97.6165 48.9661L97.0993 46.8973C97.0334 46.6337 96.9316 46.3803 96.7968 46.1444Z"/>
</mask>
<path d="M96.7968 46.1444L95.7845 44.3728C95.3786 43.6626 95.724 42.7587 96.5 42.5L96.6563 42.4479C97.5399 42.1534 98.3429 41.6571 99.0015 40.9984L99.5 40.5L100.129 39.8708C100.704 39.2963 101.156 38.611 101.457 37.8565L101.571 37.5728C101.854 36.8641 102 36.1078 102 35.3445V35.2386C102 34.7481 101.94 34.2593 101.821 33.7834L101.66 33.139C101.554 32.7143 101.401 32.3025 101.205 31.9109L100.935 31.3709C100.647 30.7941 100.268 30.2675 99.8115 29.8115L99.4201 29.4201C99.1407 29.1407 98.8344 28.8896 98.5057 28.6704L97.8624 28.2416C97.6211 28.0807 97.3685 27.9376 97.1065 27.8133L96.8192 27.6769C96.2761 27.4192 95.6975 27.2446 95.1025 27.1589L94.4256 27.0613C94.1422 27.0205 93.8563 27 93.57 27H93.1555C92.3922 27 91.6359 26.8543 90.9272 26.5709L90.2368 26.2947C89.7477 26.0991 89.2865 25.8399 88.8651 25.5239L87.8411 24.7558C87.614 24.5855 87.3992 24.3992 87.1985 24.1985L86.6885 23.6885C86.2325 23.2325 85.853 22.7059 85.5646 22.1291L84.5 20L83.4675 18.2791C83.1576 17.7626 82.7717 17.2958 82.3228 16.8942L80.7642 15.5L78.9128 13.8646C78.6382 13.6221 78.3419 13.4051 78.0277 13.2166L76.8912 12.5347C76.3014 12.1809 75.6553 11.9311 74.9809 11.7962L73.5 11.5L70.4221 11.0603C70.1411 11.0202 69.8575 11 69.5736 11H68.8403C68.2828 11 67.728 11.0777 67.192 11.2309L65.0362 11.8468C64.6795 11.9487 64.333 12.0835 64.0012 12.2494L62.0685 13.2157C61.6906 13.4047 61.3336 13.6331 61.0036 13.8971L59.5206 15.0835C59.1746 15.3603 58.8603 15.6746 58.5835 16.0206L57 18L55.5 20.5L54.9354 21.6291C54.647 22.2059 54.2675 22.7325 53.8115 23.1885L52.8015 24.1985C52.6008 24.3992 52.386 24.5855 52.1589 24.7558L51.1349 25.5239C50.7135 25.8399 50.2523 26.0991 49.7632 26.2947L48.932 26.6272C48.3163 26.8735 47.6593 27 46.9962 27C46.6661 27 46.3369 27.0313 46.0127 27.0936L45.4376 27.2041C45.1465 27.26 44.8508 27.2882 44.5544 27.2882H44.4394C43.8209 27.2882 43.2101 27.4257 42.6513 27.6909C42.2203 27.8955 41.8276 28.1724 41.4902 28.5098L40.5 29.5L39.6441 30.3559C39.2175 30.7825 38.8624 31.2751 38.5926 31.8147C38.2029 32.5942 38 33.4537 38 34.3252V34.5V35.5263C38 36.1712 38.104 36.8119 38.3079 37.4237L38.3652 37.5955C38.4549 37.8648 38.5637 38.1274 38.6907 38.3814L39.0646 39.1291C39.353 39.7059 39.7325 40.2325 40.1885 40.6885L40.3115 40.8115C40.7675 41.2675 41.2941 41.647 41.8709 41.9354L42.8584 42.4292C42.9525 42.4763 43.0515 42.5129 43.1535 42.5384C44.0805 42.7701 44.5297 43.823 44.0557 44.6525L43.1892 46.1688C43.0637 46.3886 42.9689 46.6245 42.9075 46.87L42.1945 49.7218C42.0802 50.1792 41.6693 50.5 41.1979 50.5C41.0672 50.5 40.9377 50.4751 40.8163 50.4265L39.2368 49.7947C38.7477 49.5991 38.2865 49.3399 37.8651 49.0239L36.5 48L35.1857 47.0143C34.7309 46.6732 34.3268 46.2691 33.9857 45.8143L33.3357 44.9476C33.1124 44.6498 32.9173 44.332 32.7529 43.9981L31.769 42L30.8064 40.1037C30.6028 39.7025 30.4449 39.2797 30.3358 38.8432L30.1791 38.2166C30.0602 37.7407 30 37.2519 30 36.7614V35V33.5941C30 33.199 30.039 32.8049 30.1165 32.4174L30.3803 31.0986C30.4599 30.7006 30.5797 30.3116 30.7378 29.9378L31.488 28.1642C31.6747 27.723 31.9135 27.3057 32.1994 26.9213L33.7382 24.852C33.9125 24.6176 34.1037 24.3963 34.3102 24.1898L35.6985 22.8015C35.8992 22.6008 36.114 22.4145 36.3411 22.2442L37.3651 21.4761C37.7865 21.1601 38.2477 20.9009 38.7368 20.7053L40.5 20L42.5763 19.3079C43.1881 19.104 43.8288 19 44.4737 19H44.5H45.5H46C46.3201 19 46.6272 18.8728 46.8535 18.6464L47.2709 18.2291C47.423 18.0769 47.556 17.9067 47.6667 17.7222L49 15.5L51 12.5L52.5242 10.5948C52.8401 10.1999 53.2047 9.84644 53.6094 9.54297L55 8.5L57 7L58.3651 5.97614C58.7865 5.66009 59.2477 5.40091 59.7368 5.20528L61.5 4.5L65 3.5L67.5102 3.08164C67.8362 3.02731 68.1661 3 68.4966 3H71.5736C71.8575 3 72.1411 3.02015 72.4221 3.0603L75.5 3.5L78.4638 4.3468C78.8205 4.44872 79.167 4.58349 79.4988 4.74938L82.4315 6.21573C82.8094 6.40472 83.1664 6.6331 83.4963 6.89708L85.5 8.5L87.5 10.5L89.1029 12.5036C89.3669 12.8336 89.5953 13.1906 89.7843 13.5685L90.5 15L91.1439 16.2879C91.3798 16.7595 91.6901 17.1901 92.063 17.563C92.9831 18.4831 94.231 19 95.5322 19H95.6555C96.2148 19 96.7705 19.0902 97.3011 19.267L99.0955 19.8652C99.3648 19.9549 99.6274 20.0637 99.8814 20.1907L101.5 21L102.629 21.5646C103.206 21.853 103.732 22.2325 104.188 22.6885L105 23.5L106.312 24.8115C106.768 25.2675 107.147 25.7941 107.435 26.3709L108 27.5L108.705 28.9109C108.901 29.3025 109.054 29.7143 109.16 30.139L109.5 31.5L109.821 32.7834C109.94 33.2593 110 33.7481 110 34.2386V34.9059C110 35.301 109.961 35.6951 109.883 36.0826L109.5 38L109.108 39.9598C109.036 40.3192 108.932 40.6712 108.795 41.0115L108.295 42.2632C108.099 42.7523 107.84 43.2135 107.524 43.6348L106.756 44.6589C106.585 44.886 106.399 45.1008 106.198 45.3015L104.5 47L102.694 48.4446C102.234 48.8128 101.722 49.1113 101.174 49.3302L99.5 50C98.6909 50.2697 97.8234 49.7935 97.6165 48.9661L97.0993 46.8973C97.0334 46.6337 96.9316 46.3803 96.7968 46.1444Z" fill="#F30808"/>
<path d="M96.7968 46.1444L95.7845 44.3728C95.3786 43.6626 95.724 42.7587 96.5 42.5L96.6563 42.4479C97.5399 42.1534 98.3429 41.6571 99.0015 40.9984L99.5 40.5L100.129 39.8708C100.704 39.2963 101.156 38.611 101.457 37.8565L101.571 37.5728C101.854 36.8641 102 36.1078 102 35.3445V35.2386C102 34.7481 101.94 34.2593 101.821 33.7834L101.66 33.139C101.554 32.7143 101.401 32.3025 101.205 31.9109L100.935 31.3709C100.647 30.7941 100.268 30.2675 99.8115 29.8115L99.4201 29.4201C99.1407 29.1407 98.8344 28.8896 98.5057 28.6704L97.8624 28.2416C97.6211 28.0807 97.3685 27.9376 97.1065 27.8133L96.8192 27.6769C96.2761 27.4192 95.6975 27.2446 95.1025 27.1589L94.4256 27.0613C94.1422 27.0205 93.8563 27 93.57 27H93.1555C92.3922 27 91.6359 26.8543 90.9272 26.5709L90.2368 26.2947C89.7477 26.0991 89.2865 25.8399 88.8651 25.5239L87.8411 24.7558C87.614 24.5855 87.3992 24.3992 87.1985 24.1985L86.6885 23.6885C86.2325 23.2325 85.853 22.7059 85.5646 22.1291L84.5 20L83.4675 18.2791C83.1576 17.7626 82.7717 17.2958 82.3228 16.8942L80.7642 15.5L78.9128 13.8646C78.6382 13.6221 78.3419 13.4051 78.0277 13.2166L76.8912 12.5347C76.3014 12.1809 75.6553 11.9311 74.9809 11.7962L73.5 11.5L70.4221 11.0603C70.1411 11.0202 69.8575 11 69.5736 11H68.8403C68.2828 11 67.728 11.0777 67.192 11.2309L65.0362 11.8468C64.6795 11.9487 64.333 12.0835 64.0012 12.2494L62.0685 13.2157C61.6906 13.4047 61.3336 13.6331 61.0036 13.8971L59.5206 15.0835C59.1746 15.3603 58.8603 15.6746 58.5835 16.0206L57 18L55.5 20.5L54.9354 21.6291C54.647 22.2059 54.2675 22.7325 53.8115 23.1885L52.8015 24.1985C52.6008 24.3992 52.386 24.5855 52.1589 24.7558L51.1349 25.5239C50.7135 25.8399 50.2523 26.0991 49.7632 26.2947L48.932 26.6272C48.3163 26.8735 47.6593 27 46.9962 27C46.6661 27 46.3369 27.0313 46.0127 27.0936L45.4376 27.2041C45.1465 27.26 44.8508 27.2882 44.5544 27.2882H44.4394C43.8209 27.2882 43.2101 27.4257 42.6513 27.6909C42.2203 27.8955 41.8276 28.1724 41.4902 28.5098L40.5 29.5L39.6441 30.3559C39.2175 30.7825 38.8624 31.2751 38.5926 31.8147C38.2029 32.5942 38 33.4537 38 34.3252V34.5V35.5263C38 36.1712 38.104 36.8119 38.3079 37.4237L38.3652 37.5955C38.4549 37.8648 38.5637 38.1274 38.6907 38.3814L39.0646 39.1291C39.353 39.7059 39.7325 40.2325 40.1885 40.6885L40.3115 40.8115C40.7675 41.2675 41.2941 41.647 41.8709 41.9354L42.8584 42.4292C42.9525 42.4763 43.0515 42.5129 43.1535 42.5384C44.0805 42.7701 44.5297 43.823 44.0557 44.6525L43.1892 46.1688C43.0637 46.3886 42.9689 46.6245 42.9075 46.87L42.1945 49.7218C42.0802 50.1792 41.6693 50.5 41.1979 50.5C41.0672 50.5 40.9377 50.4751 40.8163 50.4265L39.2368 49.7947C38.7477 49.5991 38.2865 49.3399 37.8651 49.0239L36.5 48L35.1857 47.0143C34.7309 46.6732 34.3268 46.2691 33.9857 45.8143L33.3357 44.9476C33.1124 44.6498 32.9173 44.332 32.7529 43.9981L31.769 42L30.8064 40.1037C30.6028 39.7025 30.4449 39.2797 30.3358 38.8432L30.1791 38.2166C30.0602 37.7407 30 37.2519 30 36.7614V35V33.5941C30 33.199 30.039 32.8049 30.1165 32.4174L30.3803 31.0986C30.4599 30.7006 30.5797 30.3116 30.7378 29.9378L31.488 28.1642C31.6747 27.723 31.9135 27.3057 32.1994 26.9213L33.7382 24.852C33.9125 24.6176 34.1037 24.3963 34.3102 24.1898L35.6985 22.8015C35.8992 22.6008 36.114 22.4145 36.3411 22.2442L37.3651 21.4761C37.7865 21.1601 38.2477 20.9009 38.7368 20.7053L40.5 20L42.5763 19.3079C43.1881 19.104 43.8288 19 44.4737 19H44.5H45.5H46C46.3201 19 46.6272 18.8728 46.8535 18.6464L47.2709 18.2291C47.423 18.0769 47.556 17.9067 47.6667 17.7222L49 15.5L51 12.5L52.5242 10.5948C52.8401 10.1999 53.2047 9.84644 53.6094 9.54297L55 8.5L57 7L58.3651 5.97614C58.7865 5.66009 59.2477 5.40091 59.7368 5.20528L61.5 4.5L65 3.5L67.5102 3.08164C67.8362 3.02731 68.1661 3 68.4966 3H71.5736C71.8575 3 72.1411 3.02015 72.4221 3.0603L75.5 3.5L78.4638 4.3468C78.8205 4.44872 79.167 4.58349 79.4988 4.74938L82.4315 6.21573C82.8094 6.40472 83.1664 6.6331 83.4963 6.89708L85.5 8.5L87.5 10.5L89.1029 12.5036C89.3669 12.8336 89.5953 13.1906 89.7843 13.5685L90.5 15L91.1439 16.2879C91.3798 16.7595 91.6901 17.1901 92.063 17.563C92.9831 18.4831 94.231 19 95.5322 19H95.6555C96.2148 19 96.7705 19.0902 97.3011 19.267L99.0955 19.8652C99.3648 19.9549 99.6274 20.0637 99.8814 20.1907L101.5 21L102.629 21.5646C103.206 21.853 103.732 22.2325 104.188 22.6885L105 23.5L106.312 24.8115C106.768 25.2675 107.147 25.7941 107.435 26.3709L108 27.5L108.705 28.9109C108.901 29.3025 109.054 29.7143 109.16 30.139L109.5 31.5L109.821 32.7834C109.94 33.2593 110 33.7481 110 34.2386V34.9059C110 35.301 109.961 35.6951 109.883 36.0826L109.5 38L109.108 39.9598C109.036 40.3192 108.932 40.6712 108.795 41.0115L108.295 42.2632C108.099 42.7523 107.84 43.2135 107.524 43.6348L106.756 44.6589C106.585 44.886 106.399 45.1008 106.198 45.3015L104.5 47L102.694 48.4446C102.234 48.8128 101.722 49.1113 101.174 49.3302L99.5 50C98.6909 50.2697 97.8234 49.7935 97.6165 48.9661L97.0993 46.8973C97.0334 46.6337 96.9316 46.3803 96.7968 46.1444Z" stroke="#F30808" stroke-width="4" stroke-linecap="round" mask="url(#path-11-inside-2_5_54)"/>
</g>
<g filter="url(#filter4_f_5_54)">
<path d="M70.5 50V40C70.5 39.3424 70.3469 38.6938 70.0528 38.1056L70 38L69.7678 37.5355C69.6037 37.2073 69.2682 37 68.9013 37C68.6443 37 68.3979 37.1021 68.2163 37.2837L68.129 37.371C68.0434 37.4566 67.9706 37.5539 67.9126 37.6601L65 43L63 47L61.5 49.5L60 52L59 53.5L57.5 56L57.0272 56.9456C56.687 57.626 56.6014 58.4057 56.7859 59.1437C56.926 59.704 57.2198 60.2198 57.6282 60.6282C57.8729 60.8729 58.1578 61.0789 58.4673 61.2337L59.0957 61.5479C59.6959 61.848 60.3334 62.0667 60.9914 62.1983L61.4373 62.2875C62.144 62.4288 62.863 62.5 63.5838 62.5H65.5H68.6464C68.8728 62.5 69.0899 62.5899 69.25 62.75C69.4101 62.9101 69.5 63.1272 69.5 63.3536V65V67V69V71V72.5V74.5549C69.5 74.8497 69.5475 75.1426 69.6407 75.4222L69.871 76.1129C69.9536 76.3608 70.1322 76.5661 70.3659 76.683C70.7436 76.8718 71.2014 76.7986 71.5 76.5C72.165 75.835 72.7628 75.1059 73.2845 74.3233L73.5 74L74 73L75 71.5L76 70L76.5 69L77 68L77.5 67L78 66L78.5 65L79.5 63.5L80.5 62L81 61L81.5 60L82 59C82.3329 58.3342 82.6181 57.6456 82.8536 56.9393L83 56.5L83.2073 55.8781C83.3973 55.3081 83.3973 54.6919 83.2073 54.1219C83.071 53.7129 82.8413 53.3413 82.5365 53.0365L82.5 53C82.1688 52.6688 81.7864 52.3932 81.3675 52.1838L81 52L80 51.5L79.8944 51.4472C79.3062 51.1531 78.6576 51 78 51H77H76H75H74H73H72H71.5C70.9477 51 70.5 50.5523 70.5 50Z" fill="#F30808"/>
<path d="M70.5 50V40C70.5 39.3424 70.3469 38.6938 70.0528 38.1056L70 38L69.7678 37.5355C69.6037 37.2073 69.2682 37 68.9013 37C68.6443 37 68.3979 37.1021 68.2163 37.2837L68.129 37.371C68.0434 37.4566 67.9706 37.5539 67.9126 37.6601L65 43L63 47L61.5 49.5L60 52L59 53.5L57.5 56L57.0272 56.9456C56.687 57.626 56.6014 58.4057 56.7859 59.1437C56.926 59.704 57.2198 60.2198 57.6282 60.6282C57.8729 60.8729 58.1578 61.0789 58.4673 61.2337L59.0957 61.5479C59.6959 61.848 60.3334 62.0667 60.9914 62.1983L61.4373 62.2875C62.144 62.4288 62.863 62.5 63.5838 62.5H65.5H68.6464C68.8728 62.5 69.0899 62.5899 69.25 62.75C69.4101 62.9101 69.5 63.1272 69.5 63.3536V65V67V69V71V72.5V74.5549C69.5 74.8497 69.5475 75.1426 69.6407 75.4222L69.871 76.1129C69.9536 76.3608 70.1322 76.5661 70.3659 76.683C70.7436 76.8718 71.2014 76.7986 71.5 76.5C72.165 75.835 72.7628 75.1059 73.2845 74.3233L73.5 74L74 73L75 71.5L76 70L76.5 69L77 68L77.5 67L78 66L78.5 65L79.5 63.5L80.5 62L81 61L81.5 60L82 59C82.3329 58.3342 82.6181 57.6456 82.8536 56.9393L83 56.5L83.2073 55.8781C83.3973 55.3081 83.3973 54.6919 83.2073 54.1219C83.071 53.7129 82.8413 53.3413 82.5365 53.0365L82.5 53C82.1688 52.6688 81.7864 52.3932 81.3675 52.1838L81 52L80 51.5L79.8944 51.4472C79.3062 51.1531 78.6576 51 78 51H77H76H75H74H73H72H71.5C70.9477 51 70.5 50.5523 70.5 50Z" stroke="#F30808" stroke-linecap="round"/>
</g>
</g>
<defs>
<filter id="filter0_d_5_54" x="0" y="0" width="175" height="320.536" filterUnits="userSpaceOnUse" color-interpolation-filters="sRGB">
<feFlood flood-opacity="0" result="BackgroundImageFix"/>
<feColorMatrix in="SourceAlpha" type="matrix" values="0 0 0 0 0 0 0 0 0 0 0 0 0 0 0 0 0 0 127 0" result="hardAlpha"/>
<feOffset dy="1"/>
<feGaussianBlur stdDeviation="2"/>
<feComposite in2="hardAlpha" operator="out"/>
<feColorMatrix type="matrix" values="0 0 0 0 0 0 0 0 0 0 0 0 0 0 0 0 0 0 0.25 0"/>
<feBlend mode="normal" in2="BackgroundImageFix" result="effect1_dropShadow_5_54"/>
<feBlend mode="normal" in="SourceGraphic" in2="effect1_dropShadow_5_54" result="shape"/>
</filter>
<filter id="filter1_f_5_54" x="50.5" y="162.5" width="4" height="5.00001" filterUnits="userSpaceOnUse" color-interpolation-filters="sRGB">
<feFlood flood-opacity="0" result="BackgroundImageFix"/>
<feBlend mode="normal" in="SourceGraphic" in2="BackgroundImageFix" result="shape"/>
<feGaussianBlur stdDeviation="0.25" result="effect1_foregroundBlur_5_54"/>
</filter>
<filter id="filter2_f_5_54" x="27.3182" y="221.091" width="25.5504" height="32.3466" filterUnits="userSpaceOnUse" color-interpolation-filters="sRGB">
<feFlood flood-opacity="0" result="BackgroundImageFix"/>
<feBlend mode="normal" in="SourceGraphic" in2="BackgroundImageFix" result="shape"/>
<feGaussianBlur stdDeviation="0.25" result="effect1_foregroundBlur_5_54"/>
</filter>
<filter id="filter3_f_5_54" x="29.5" y="2.5" width="81" height="48.5" filterUnits="userSpaceOnUse" color-interpolation-filters="sRGB">
<feFlood flood-opacity="0" result="BackgroundImageFix"/>
<feBlend mode="normal" in="SourceGraphic" in2="BackgroundImageFix" result="shape"/>
<feGaussianBlur stdDeviation="0.25" result="effect1_foregroundBlur_5_54"/>
</filter>
<filter id="filter4_f_5_54" x="55.6908" y="36" width="28.659" height="41.7868" filterUnits="userSpaceOnUse" color-interpolation-filters="sRGB">
<feFlood flood-opacity="0" result="BackgroundImageFix"/>
<feBlend mode="normal" in="SourceGraphic" in2="BackgroundImageFix" result="shape"/>
<feGaussianBlur stdDeviation="0.25" result="effect1_foregroundBlur_5_54"/>
</filter>
</defs>
</svg>
