<svg width="167" height="321" viewBox="0 0 167 321" fill="none" xmlns="http://www.w3.org/2000/svg">
<path d="M106.5 191.5L102.5 196V196.629C102.5 196.873 102.557 197.114 102.666 197.332C102.877 197.754 103.268 198.06 103.73 198.162L106.845 198.854C107.281 198.951 107.708 199.083 108.123 199.249L110.85 200.34C111.948 200.779 113.004 201.315 114.007 201.942C115.66 202.975 117.152 204.246 118.436 205.713L120 207.5L124 211.5C125.995 213.827 128.219 215.948 130.639 217.83L131.5 218.5L134.526 220.425C136.142 221.454 138.017 222 139.933 222C141.297 222 142.646 221.723 143.9 221.186L144.046 221.123C145.01 220.71 145.909 220.159 146.716 219.487L148.5 218L150.306 216.452C151.357 215.551 152.804 215.268 154.117 215.706C154.698 215.899 155.225 216.225 155.658 216.658L155.726 216.726C156.542 217.542 157 218.648 157 219.802V220.5V225.5V228.175C157 229.384 156.805 230.584 156.423 231.731L156.041 232.876C156.014 232.958 155.977 233.037 155.93 233.111L155.045 234.528C154.655 235.152 155.369 235.879 156 235.5L156.471 235.147C157.463 234.402 158.671 234 159.912 234H160.252C161.069 234 161.87 234.222 162.57 234.642C163.493 235.196 164.187 236.061 164.527 237.082L164.695 237.585C164.897 238.191 165 238.826 165 239.464V240C165 240.993 164.84 241.98 164.526 242.923L164.364 243.408C164.122 244.134 163.813 244.837 163.441 245.507L161.5 249L160.352 251.679C160.118 252.224 159.812 252.735 159.442 253.198L159.307 253.366C158.461 254.424 158 255.738 158 257.092C158 258.018 157.784 258.931 157.37 259.759L156 262.5L153 267.5L149.5 272L145 276.5L140.5 280.5L136.5 284C134.504 285.663 132.365 287.148 130.109 288.437L130 288.5L127.518 289.741C126.507 290.246 125.538 290.83 124.619 291.486C123.212 292.492 121.688 293.325 120.082 293.967L117.5 295L113.5 296.5L108 298L107.455 298.909C106.821 299.966 106.059 300.941 105.188 301.812L103.452 303.548C103.154 303.846 102.798 304.081 102.407 304.237C101.25 304.7 99.9289 304.429 99.048 303.548L98.5 303L97.6881 306.654C97.5631 307.216 97.5 307.791 97.5 308.367C97.5 310.076 96.9457 311.739 95.9202 313.106L95.4511 313.732C94.8208 314.572 94.0649 315.311 93.2101 315.921L91 317.5L90.25 317.95C89.1474 318.612 87.799 318.72 86.6052 318.242C86.2042 318.082 85.831 317.859 85.4993 317.583L84.7858 316.988C83.611 316.009 82.677 314.773 82.0559 313.376L81 311L79.5 307L77.5 302H76H71.5H67L62 301.5L57 300.5L52.5 299.5L49.5 298.5L46 297.5L43 296.5L40 295.5L37 294.5L34.5 297L33.4142 298.086C32.5087 298.991 31.2806 299.5 30 299.5H29C27.6193 299.5 26.5 300.619 26.5 302V303.206C26.5 304.38 26.181 305.532 25.5771 306.538L25.3431 306.928C25.116 307.307 24.9558 307.721 24.8692 308.154L24.7497 308.752C24.5921 309.539 24.0798 310.21 23.3613 310.569C22.8055 310.847 22.1686 310.917 21.5658 310.766L20.2127 310.428C19.092 310.148 18.0685 309.569 17.2517 308.752L16.8148 308.315C16.274 307.774 15.8077 307.164 15.4283 306.5L14 304C12.0139 301.021 10.3297 297.824 9 294.5L7 289L5.5 284.5L4.5 281.5L4.44686 281.367C3.81695 279.792 3.33263 278.163 3 276.5L2.5 272V269V263.879C2.5 263.63 2.55806 263.384 2.66959 263.161C2.8793 262.741 3.26183 262.435 3.71676 262.321L4.57771 262.106C4.85818 262.035 5.14619 262 5.43529 262H7.5L6.16846 260.003C5.72611 259.339 5.40113 258.605 5.20772 257.831C5.06976 257.279 5 256.712 5 256.144V254V250.5V246.5V242C5 240.003 5.16496 238.01 5.4932 236.041L5.5 236L6.5 232.5L7.5 228.5L8 226L9 223C9.6656 221.336 10.4633 219.728 11.3853 218.191L11.5 218L13 215L14.5 212L16.5 208.5L18 205.5L19.1679 203.164C19.3887 202.723 19.6555 202.306 19.9639 201.92L21.0195 200.601C21.3306 200.212 21.5 199.729 21.5 199.231C21.5 198.756 21.3461 198.295 21.0615 197.915L20.1708 196.728C20.0572 196.576 19.9574 196.415 19.8727 196.245C19.3378 195.176 18.2446 194.5 17.0486 194.5H16.5H14.5H12H11.3034C10.4424 194.5 9.58926 194.336 8.78983 194.016C7.93881 193.676 7.16581 193.166 6.5177 192.518L5.90904 191.909C5.63669 191.637 5.34535 191.384 5.03722 191.153L4.64137 190.856C3.89077 190.293 3.28155 189.563 2.86195 188.724C2.62172 188.243 2.44662 187.733 2.34127 187.206L2.17386 186.369C2.05824 185.791 2 185.203 2 184.613V184.488C2 183.181 2.30434 181.891 2.88893 180.722C3.29366 179.913 3.82625 179.174 4.46618 178.534L5.5 177.5L6.82908 176.171C6.94288 176.057 7.06462 175.952 7.19337 175.855L7.54969 175.588C8.42852 174.929 8.82675 173.807 8.56031 172.741C8.52019 172.581 8.46556 172.424 8.3971 172.274L6 167C5.00533 163.684 4.5 160.241 4.5 156.78V155.5V146C4.5 141.397 5.34746 136.797 7 132.5L10.5 125L14.5 118.5L18 114L23.5 108.5L27.5 105L32.5 101.5L37.5 98C40.4852 96.3415 43.6885 95.1104 47.016 94.3425L48.5 94L56 93H63.5H64.3902C67.4542 93 70.509 93.3353 73.5 94L78.5 95.5L85 98C87.9959 99.3315 90.8887 100.884 93.6546 102.644L95 103.5L97.5841 105.379C99.5127 106.782 101.177 108.516 102.5 110.5L105.5 114L108 117L111 121L111.759 122.233C113.907 125.724 115.506 129.524 116.5 133.5L118 141.5L118.038 141.666C119.01 145.875 119.5 150.181 119.5 154.5C119.5 158.15 119.013 161.784 118.053 165.306L118 165.5L116.5 171.5C115.502 175.161 114.211 178.736 112.641 182.19L112.5 182.5L110 186.5L106.5 191.5Z" fill="#F9F9F9"/>
<path d="M95 201C96.9951 200.002 98.8868 198.81 100.648 197.441L102.5 196M102.5 196L106.5 191.5L110 186.5L112.5 182.5L112.641 182.19C114.211 178.736 115.502 175.161 116.5 171.5L118 165.5L118.053 165.306C119.013 161.784 119.5 158.15 119.5 154.5C119.5 150.181 119.01 145.875 118.038 141.666L118 141.5L116.5 133.5C115.506 129.524 113.907 125.724 111.759 122.233L111 121L108 117L105.5 114L102.5 110.5C101.177 108.516 99.5127 106.782 97.5841 105.379L95 103.5L93.6546 102.644C90.8887 100.884 87.9959 99.3315 85 98L78.5 95.5L73.5 94C70.509 93.3353 67.4542 93 64.3902 93H63.5H56L48.5 94L47.016 94.3425C43.6885 95.1104 40.4852 96.3415 37.5 98L32.5 101.5L27.5 105L23.5 108.5L18 114L14.5 118.5L10.5 125L7 132.5C5.34746 136.797 4.5 141.397 4.5 146V155.5V156.78C4.5 160.241 5.00533 163.684 6 167L8.3971 172.274C8.46556 172.424 8.52019 172.581 8.56031 172.741C8.82675 173.807 8.42852 174.929 7.54969 175.588L7.19337 175.855C7.06462 175.952 6.94288 176.057 6.82908 176.171L5.5 177.5L4.46618 178.534C3.82625 179.174 3.29366 179.913 2.88893 180.722C2.30434 181.891 2 183.181 2 184.488V184.613C2 185.203 2.05824 185.791 2.17386 186.369L2.34127 187.206C2.44662 187.733 2.62172 188.243 2.86195 188.724C3.28155 189.563 3.89077 190.293 4.64137 190.856L5.03722 191.153C5.34535 191.384 5.63669 191.637 5.90904 191.909L6.5177 192.518C7.16581 193.166 7.93881 193.676 8.78983 194.016C9.58926 194.336 10.4424 194.5 11.3034 194.5H12H14.5H16.5H17.0486C18.2446 194.5 19.3378 195.176 19.8727 196.245C19.9574 196.415 20.0572 196.576 20.1708 196.728L21.0615 197.915C21.3461 198.295 21.5 198.756 21.5 199.231C21.5 199.729 21.3306 200.212 21.0195 200.601L19.9639 201.92C19.6555 202.306 19.3887 202.723 19.1679 203.164L18 205.5L16.5 208.5L14.5 212L13 215L11.5 218L11.3853 218.191C10.4633 219.728 9.6656 221.336 9 223L8 226L7.5 228.5L6.5 232.5L5.5 236L5.4932 236.041C5.16496 238.01 5 240.003 5 242V246.5V250.5V254V256.144C5 256.712 5.06976 257.279 5.20772 257.831C5.40113 258.605 5.72611 259.339 6.16846 260.003L7.5 262M102.5 196V196.629C102.5 196.873 102.557 197.114 102.666 197.332C102.877 197.754 103.268 198.06 103.73 198.162L106.845 198.854C107.281 198.951 107.708 199.083 108.123 199.249L110.85 200.34C111.948 200.779 113.004 201.315 114.007 201.942C115.66 202.975 117.152 204.246 118.436 205.713L120 207.5L124 211.5C125.995 213.827 128.219 215.948 130.639 217.83L131.5 218.5L134.526 220.425C136.142 221.454 138.017 222 139.933 222C141.297 222 142.646 221.723 143.9 221.186L144.046 221.123C145.01 220.71 145.909 220.159 146.716 219.487L148.5 218L150.306 216.452C151.357 215.551 152.804 215.268 154.117 215.706C154.698 215.899 155.225 216.225 155.658 216.658L155.726 216.726C156.542 217.542 157 218.648 157 219.802V220.5V225.5V228.175C157 229.384 156.805 230.584 156.423 231.731L156.041 232.876C156.014 232.958 155.977 233.037 155.93 233.111L155.045 234.528C154.655 235.152 155.369 235.879 156 235.5L156.471 235.147C157.463 234.402 158.671 234 159.912 234H160.252C161.069 234 161.87 234.222 162.57 234.642C163.493 235.196 164.187 236.061 164.527 237.082L164.695 237.585C164.897 238.191 165 238.826 165 239.464V240C165 240.994 164.84 241.981 164.526 242.923L164.364 243.408C164.122 244.134 163.813 244.837 163.441 245.507L161.5 249L160.352 251.679C160.118 252.224 159.812 252.735 159.442 253.198L159.307 253.366C158.461 254.424 158 255.738 158 257.092C158 258.018 157.784 258.931 157.37 259.759L156 262.5L153 267.5L149.5 272L145 276.5L140.5 280.5L136.5 284C134.504 285.663 132.365 287.148 130.109 288.437L130 288.5L127.518 289.741C126.507 290.246 125.538 290.83 124.619 291.486C123.212 292.492 121.688 293.325 120.082 293.967L117.5 295L113.5 296.5L108 298M7.5 262L9 266.5C9.99852 268.83 11.1747 271.08 12.5182 273.229L13 274C14.3301 275.995 15.854 277.854 17.5495 279.55L18 280C19.9971 282.33 22.1701 284.503 24.5 286.5L28 289L31 291L32.7639 291.882C34.2516 292.626 35.6694 293.502 37 294.5M7.5 262H5.43529C5.14619 262 4.85818 262.035 4.57771 262.106L3.71676 262.321C3.26183 262.435 2.8793 262.741 2.66959 263.161C2.55806 263.384 2.5 263.63 2.5 263.879V269V272L3 276.5C3.33263 278.163 3.81695 279.792 4.44686 281.367L4.5 281.5L5.5 284.5L7 289L9 294.5C10.3297 297.824 12.0139 301.021 14 304L15.4283 306.5C15.8077 307.164 16.274 307.774 16.8148 308.315L17.2517 308.752C18.0685 309.569 19.092 310.148 20.2127 310.428L21.5658 310.766C22.1686 310.917 22.8055 310.847 23.3613 310.569C24.0798 310.21 24.5921 309.539 24.7497 308.752L24.8692 308.154C24.9558 307.721 25.116 307.307 25.3431 306.928L25.5771 306.538C26.181 305.532 26.5 304.38 26.5 303.206V302C26.5 300.619 27.6193 299.5 29 299.5H30C31.2806 299.5 32.5087 298.991 33.4142 298.086L34.5 297L37 294.5M37 294.5L40 295.5L43 296.5L46 297.5L49.5 298.5L52.5 299.5L57 300.5L62 301.5L67 302H71.5H76H77.5M77.5 302V291L77 274.5V264V254.042C77 254.014 76.9972 253.986 76.9917 253.958C76.8887 253.444 76.1282 253.53 76.1431 254.055L77.5 302ZM77.5 302L79.5 307L81 311L82.0559 313.376C82.677 314.773 83.611 316.009 84.7858 316.988L85.4993 317.583C85.831 317.859 86.2042 318.082 86.6052 318.242C87.799 318.72 89.1474 318.612 90.25 317.95L91 317.5L93.2101 315.921C94.0649 315.311 94.8208 314.572 95.4511 313.732L95.9202 313.106C96.9457 311.739 97.5 310.076 97.5 308.367C97.5 307.791 97.5631 307.216 97.6881 306.654L98.5 303M98.5 303L98 290M98.5 303L99.048 303.548C99.9289 304.429 101.25 304.7 102.407 304.237C102.798 304.081 103.154 303.846 103.452 303.548L105.188 301.812C106.059 300.941 106.821 299.966 107.455 298.909L108 298M108 298L109.5 294.5L111.5 290L113.5 286M113.5 286C113.5 286 112.073 271.403 112.5 275.5C112.704 277.452 113 280.5 113 280.5L113.217 282.02C113.405 283.338 113.5 284.668 113.5 286ZM113.5 286L114.022 285.391C115.664 283.475 117.006 281.32 118 279L119 276L120 271.5C120.332 270.172 120.5 268.808 120.5 267.438V264.5V261V260.05C120.5 258.354 120.333 256.663 120 255M120 255L119.019 252.548C119.006 252.516 119 252.483 119 252.449C119 252.125 119.47 252.082 119.527 252.401L120 255Z" stroke="black" stroke-width="4" stroke-linecap="round"/>
<path d="M23.4602 190.969L22.8692 190.17C22.7858 190.057 22.721 189.932 22.6772 189.799C22.444 189.09 22.8472 188.329 23.5648 188.124L24 188L25.7033 187.67L27 187.5L29.1567 187.346H31.1016H33.4858H35.3145H37.5C38.8283 187.448 40.1107 187.912 41.4402 187.998C41.4615 187.999 41.4815 188 41.5 188C41.9 188 43 188.333 43.5 188.5L45.5 189L47 189.5L47.7388 189.746C48.243 189.914 48.7709 190 49.3024 190C49.684 190 50.0643 190.044 50.4357 190.132L52 190.5L53.5 191L55 191.5L56.0762 191.802C56.5467 191.934 57.0045 192.107 57.4443 192.32L58.1611 192.667C58.2291 192.7 58.2932 192.74 58.3523 192.787C58.8316 193.168 58.868 193.887 58.4382 194.323C58.3242 194.438 58.1832 194.527 58.0295 194.579L56.7833 195L54.81 195.5L53.33 196L52.7913 196.136C51.8386 196.378 50.8595 196.5 49.8767 196.5H47.9033H46.4233H44.9433H43.4633H41.9833H40.5033H38.53H35.57H35.1588C34.1243 196.5 33.0968 196.331 32.1167 196L31.2156 195.772C30.5029 195.591 29.8124 195.332 29.1567 195L27.1833 194L25.7033 193L25.2863 192.718C24.5828 192.243 23.9653 191.651 23.4602 190.969Z" fill="#520000" stroke="black" stroke-width="0.25" stroke-linecap="round"/>
<path d="M39.5 164L40.0748 163.425C40.3576 163.142 40.6676 162.888 41.0004 162.666C41.6604 162.226 42.4002 161.92 43.1781 161.764L43.6661 161.667C44.2207 161.556 44.7849 161.5 45.3504 161.5H46.4162C47.137 161.5 47.856 161.571 48.5627 161.713L49.2064 161.841C49.7331 161.947 50.2434 162.122 50.7239 162.362C51.5631 162.782 52.2931 163.391 52.856 164.141L53.5 165L54.0219 165.696C54.6731 166.564 55.3852 167.385 56.1527 168.153L56.2261 168.226C57.4049 169.405 58.7137 170.446 60.1274 171.33L60.1887 171.368C61.3932 172.121 62.67 172.751 64 173.25C65.33 173.749 66.6068 174.379 67.8113 175.132L68.2623 175.414C69.419 176.137 70.6297 176.77 71.8835 177.307L73.5 178L74.5262 178.513C75.7839 179.142 76.7199 180.27 77.1062 181.622C77.3636 182.523 77.3636 183.477 77.1062 184.378L76.9756 184.835C76.6637 185.927 76.0787 186.921 75.2758 187.724L74.9627 188.037C74.3251 188.675 73.5888 189.206 72.7822 189.609L71 190.5L67.5 192L65.9492 192.517C64.9854 192.838 63.9923 193.063 62.9842 193.189L61.7649 193.342C60.9271 193.447 60.0779 193.416 59.25 193.25C58.4221 193.084 57.6263 192.786 56.8932 192.368L56.25 192C55.0909 191.338 53.8326 190.867 52.5236 190.605L52 190.5L50 190C48.3368 189.667 46.7076 189.183 45.1328 188.553L45 188.5L43.8757 188.125C42.6278 187.709 41.3449 187.406 40.0427 187.22C39.0155 187.074 37.9792 187 36.9417 187H35.5H31.5H28L27.6119 187.049C25.2076 187.349 22.8299 187.834 20.5 188.5L18.6827 189.019C17.5663 189.338 16.411 189.5 15.25 189.5H14.9954C14.0033 189.5 13.0161 189.362 12.0621 189.089L10.9073 188.759C10.3084 188.588 9.74953 188.3 9.26316 187.911L9.05881 187.747C8.07355 186.959 7.5 185.766 7.5 184.504C7.5 183.532 7.84065 182.591 8.46268 181.845L9.16866 180.998C9.71845 180.338 10.3818 179.782 11.1275 179.356L11.9832 178.867C12.9896 178.292 14.0702 177.857 15.1948 177.576L17.5 177L21 176.5L24.5 175.5C26.7973 174.844 29.012 173.825 31 172.5C32.6616 171.171 34.1708 169.662 35.5 168L37.5 166L39.5 164Z" fill="#FF0000" stroke="black" stroke-width="2" stroke-linecap="round"/>
<g opacity="0.8" filter="url(#filter0_f_5_54)">
<mask id="path-5-inside-1_5_54" fill="white">
<path d="M50 170C50 169.534 49.8779 169.082 49.6547 168.723C49.4315 168.365 49.1214 168.121 48.7778 168.035C48.4342 167.948 48.0788 168.025 47.773 168.251C47.4672 168.477 47.2302 168.838 47.1029 169.272C46.9756 169.706 46.9661 170.186 47.076 170.629C47.1859 171.071 47.4083 171.449 47.7047 171.696C48.0012 171.943 48.3531 172.044 48.6996 171.982C49.0461 171.92 49.3655 171.699 49.6025 171.356L48.5 170H50Z"/>
</mask>
<path d="M50 170C50 169.534 49.8779 169.082 49.6547 168.723C49.4315 168.365 49.1214 168.121 48.7778 168.035C48.4342 167.948 48.0788 168.025 47.773 168.251C47.4672 168.477 47.2302 168.838 47.1029 169.272C46.9756 169.706 46.9661 170.186 47.076 170.629C47.1859 171.071 47.4083 171.449 47.7047 171.696C48.0012 171.943 48.3531 172.044 48.6996 171.982C49.0461 171.92 49.3655 171.699 49.6025 171.356L48.5 170H50Z" fill="#1A1919"/>
<path d="M50 170C50 169.534 49.8779 169.082 49.6547 168.723C49.4315 168.365 49.1214 168.121 48.7778 168.035C48.4342 167.948 48.0788 168.025 47.773 168.251C47.4672 168.477 47.2302 168.838 47.1029 169.272C46.9756 169.706 46.9661 170.186 47.076 170.629C47.1859 171.071 47.4083 171.449 47.7047 171.696C48.0012 171.943 48.3531 172.044 48.6996 171.982C49.0461 171.92 49.3655 171.699 49.6025 171.356L48.5 170H50Z" stroke="black" stroke-width="2" mask="url(#path-5-inside-1_5_54)"/>
</g>
<g filter="url(#filter1_f_5_54)">
<path d="M35.017 226.591L26.5795 257.938H23.8182L32.2557 226.591H35.017ZM31.9027 244.795V242.75L48.3686 234.364V237.636L35.7379 243.722L35.8402 243.517V244.028L35.7379 243.824L48.3686 249.909V253.182L31.9027 244.795Z" fill="#1A1919"/>
</g>
<line x1="64.4134" y1="146.049" x2="77.0487" y2="159.587" stroke="#1E1E1E" stroke-width="2" stroke-linecap="round"/>
<line x1="77" y1="147.414" x2="64.4142" y2="160" stroke="#1E1E1E" stroke-width="2" stroke-linecap="round"/>
<line x1="1" y1="-1" x2="20.2132" y2="-1" transform="matrix(-0.707107 0.707107 0.754028 0.656842 33 146)" stroke="#1E1E1E" stroke-width="2" stroke-linecap="round"/>
<line x1="1" y1="-1" x2="19.5183" y2="-1" transform="matrix(0.731055 0.682318 0.731055 -0.682318 18 146)" stroke="#1E1E1E" stroke-width="2" stroke-linecap="round"/>
<defs>
<filter id="filter0_f_5_54" x="46.5" y="167.5" width="4" height="5.00001" filterUnits="userSpaceOnUse" color-interpolation-filters="sRGB">
<feFlood flood-opacity="0" result="BackgroundImageFix"/>
<feBlend mode="normal" in="SourceGraphic" in2="BackgroundImageFix" result="shape"/>
<feGaussianBlur stdDeviation="0.25" result="effect1_foregroundBlur_5_54"/>
</filter>
<filter id="filter1_f_5_54" x="23.3182" y="226.091" width="25.5504" height="32.3466" filterUnits="userSpaceOnUse" color-interpolation-filters="sRGB">
<feFlood flood-opacity="0" result="BackgroundImageFix"/>
<feBlend mode="normal" in="SourceGraphic" in2="BackgroundImageFix" result="shape"/>
<feGaussianBlur stdDeviation="0.25" result="effect1_foregroundBlur_5_54"/>
</filter>
</defs>
</svg>
