<svg width="214" height="216" viewBox="0 0 214 216" fill="none" xmlns="http://www.w3.org/2000/svg">
<g filter="url(#filter0_d_1_12)">
<g filter="url(#filter1_f_1_12)">
<path d="M192 58.75V66.1402C192 68.8337 193.871 71.1657 196.5 71.75L200 72.75L203.043 73.5109C203.678 73.6694 204.285 73.9209 204.845 74.2573L204.912 74.2969C205.949 74.9194 206.787 75.8248 207.328 76.9068C207.77 77.7901 208 78.7641 208 79.7517V81.25V82.2316C208 83.5523 207.641 84.8482 206.962 85.9808C206.655 86.4917 206.287 86.963 205.866 87.3843L204 89.25L202.671 90.5792C201.575 91.675 200.218 92.4734 198.728 92.8991L198.138 93.0678C197.715 93.1887 197.277 93.25 196.837 93.25C196.612 93.25 196.389 93.2659 196.167 93.2976L193.971 93.6113C193.327 93.7032 192.674 93.6956 192.033 93.5888L191.103 93.4338C190.386 93.3143 189.65 93.425 189 93.75L186 95.75L183 97.75L179.578 100.317C179.193 100.605 178.829 100.921 178.49 101.26L177.8 101.95C176.949 102.801 176.346 103.866 176.054 105.033C175.695 106.47 175.827 107.985 176.428 109.338L177.5 111.75L179.5 115.75L181.5 118.75L184.5 124.75L185.949 128.373C186.981 130.952 187.758 133.624 188.269 136.354C188.755 138.946 189 141.577 189 144.214V145.25L188.5 151.25C188.5 154.565 188.004 157.861 187.03 161.029L186.5 162.75L184.818 166.955C183.941 169.147 182.878 171.261 181.64 173.273C180.217 175.585 178.569 177.752 176.722 179.742L173 183.75L172.061 184.571C167.364 188.681 162.292 192.343 156.913 195.507L156.5 195.75C151.181 198.41 145.601 200.513 139.85 202.026L139 202.25C135.345 203.579 131.552 204.493 127.693 204.976L125.5 205.25L120 205.75H115.5H109H102.5H97.5L91.5 205.25L85.5 204.25L82.4687 203.784C80.1703 203.43 77.941 202.72 75.861 201.68C74.623 201.062 73.3303 200.559 71.9994 200.178L70.5 199.75L65 198.25L60 196.25L59.0731 195.965C55.3713 194.826 51.8211 193.243 48.5 191.25L44 188.25L41 185.75L40.377 185.305C38.4623 183.937 36.6638 182.414 35 180.75L32 177.75L29 175.25L27.0811 173.331C26.0339 172.284 25.1623 171.075 24.5 169.75L24.1772 169.104C23.7287 168.207 23.1384 167.388 22.4292 166.679C21.4873 165.737 20.758 164.605 20.2903 163.357L19.9059 162.332C19.6357 161.612 19.3082 160.914 18.9265 160.246L17.5 157.75L15 153.75L13.5 150.75L12.5 148.75L11.5 146.25L10.5 142.25L9.5 139.75L7.5 135.75L6.95555 134.389C6.65249 133.631 6.41948 132.847 6.25944 132.047C6.0869 131.185 6 130.307 6 129.427V128.25V126.101C6 124.579 6.5179 123.103 7.46852 121.914L7.76917 121.539C7.92244 121.347 8.09932 121.176 8.2956 121.028C9.31045 120.267 10.7014 120.251 11.7337 120.988L13.5 122.25L13.7518 122.401C14.4772 122.836 15.3405 122.101 15.0263 121.316C15.0088 121.272 14.9878 121.23 14.9636 121.189L14.6634 120.689C13.9021 119.42 13.5 117.968 13.5 116.489V114.25V111.75V108.715C13.5 107.418 13.7633 106.136 14.2739 104.944L14.7063 103.935C14.9003 103.483 15.1789 103.071 15.5271 102.723L16.2649 101.985C17.0025 101.248 18.1293 101.065 19.0623 101.531C19.3512 101.676 19.6083 101.876 19.8185 102.122L21.5004 104.084C22.1651 104.859 22.9062 105.566 23.7124 106.193L25.581 107.646C26.5235 108.379 27.5516 108.995 28.6427 109.48C30.5266 110.317 32.5652 110.75 34.6268 110.75H37H42C43.3186 110.75 44.6226 110.473 45.8276 109.938L48.5 108.75L51.5 107.75C53.164 107.084 54.7721 106.287 56.3089 105.365L56.5 105.25L58.2337 104.383C59.0732 103.963 59.9707 103.672 60.8965 103.517C61.9576 103.34 62.9806 102.983 63.9211 102.461L65.0518 101.832C66.345 101.114 67.7269 100.568 69.1621 100.209L73 99.25L76.4347 98.3133C77.8092 97.9384 79.2125 97.6787 80.6301 97.537C82.5373 97.3463 84.46 97.37 86.362 97.6077L87.5 97.75C90.0983 97.75 92.6284 98.5815 94.7202 100.123L95.8846 100.981L94.5 99.25C93.5038 98.2538 92.6335 97.1391 91.9086 95.931L90 92.75L87.5 88.75L86.5615 87.2483C85.5222 85.5856 84.621 83.8404 83.8669 82.0305C82.9578 79.8488 82.2665 77.5827 81.803 75.2652L81.5 73.75L81 70.25L80.5 66.75L80.3533 65.87C80.1182 64.4591 80 63.0311 80 61.6007C80 59.7059 80.2074 57.8168 80.6184 55.9672L81 54.25L81.5 50.25L82 46.25C82.3326 44.2547 82.8576 42.2963 83.5679 40.4023L84 39.25C84.6658 37.2525 85.4726 35.3048 86.4142 33.4216L87.5 31.25L88.717 28.8159C89.5697 27.1106 90.6093 25.5053 91.8166 24.0297L92.7341 22.9083C93.9035 21.4791 95.2988 20.2507 96.8648 19.272C97.9514 18.5929 98.9574 17.7926 99.8635 16.8865L100.562 16.1881C102.508 14.2421 104.755 12.6226 107.216 11.3918L109.5 10.25L115 6.75L115.327 6.56853C118.094 5.03134 121.073 3.91289 124.168 3.24968C125.721 2.91702 127.296 2.70028 128.88 2.60124L134.5 2.25H139C142.66 2.58269 146.283 3.23624 149.828 4.20311L150 4.25L154 5.25C156.996 6.24874 159.918 7.45889 162.743 8.87132L163.5 9.25L167.5 11.75L172.5 15.75L177.5 20.75L182 26.25L183.283 28.2661C184.758 30.5837 186.013 33.0336 187.034 35.5841L187.749 37.3725C188.249 38.6217 188.859 39.8239 189.572 40.9648L190.291 42.1156C190.762 42.8692 191.142 43.676 191.423 44.5191C191.805 45.6655 192 46.8661 192 48.0745V50.75V58.75Z" fill="#F3ECEC"/>
<path d="M95.8846 100.981L94.5 99.25C93.5038 98.2538 92.6335 97.1391 91.9086 95.931L90 92.75L87.5 88.75L86.5615 87.2483C85.5222 85.5856 84.621 83.8404 83.8669 82.0305C82.9578 79.8488 82.2665 77.5827 81.803 75.2652L81.5 73.75L81 70.25L80.5 66.75L80.3533 65.87C80.1182 64.4591 80 63.0311 80 61.6007C80 59.7059 80.2074 57.8168 80.6184 55.9672L81 54.25L81.5 50.25L82 46.25C82.3326 44.2547 82.8576 42.2963 83.5679 40.4023L84 39.25C84.6658 37.2525 85.4726 35.3048 86.4142 33.4216L87.5 31.25L88.717 28.8159C89.5697 27.1106 90.6093 25.5053 91.8166 24.0297L92.7341 22.9083C93.9035 21.4791 95.2988 20.2507 96.8648 19.272C97.9514 18.5929 98.9574 17.7926 99.8635 16.8865L100.562 16.1881C102.508 14.2421 104.755 12.6226 107.216 11.3918L109.5 10.25L115 6.75L115.327 6.56853C118.094 5.03134 121.073 3.91289 124.168 3.24968C125.721 2.91702 127.296 2.70028 128.88 2.60124L134.5 2.25H139C142.66 2.58269 146.283 3.23624 149.828 4.20311L150 4.25L154 5.25C156.996 6.24874 159.918 7.45889 162.743 8.87132L163.5 9.25L167.5 11.75L172.5 15.75L177.5 20.75L182 26.25L183.283 28.2661C184.758 30.5837 186.013 33.0336 187.034 35.5841L187.749 37.3725C188.249 38.6217 188.859 39.8239 189.572 40.9648L190.291 42.1156C190.762 42.8692 191.142 43.676 191.423 44.5191C191.805 45.6655 192 46.8661 192 48.0745V50.75V58.75V66.1402C192 68.8337 193.871 71.1657 196.5 71.75L200 72.75L203.043 73.5109C203.678 73.6694 204.285 73.9209 204.845 74.2573L204.912 74.2969C205.949 74.9194 206.787 75.8248 207.328 76.9068C207.77 77.7901 208 78.7641 208 79.7517V81.25V82.2316C208 83.5523 207.641 84.8482 206.962 85.9808C206.655 86.4917 206.287 86.963 205.866 87.3843L204 89.25L202.671 90.5792C201.575 91.675 200.218 92.4734 198.728 92.8991L198.138 93.0678C197.715 93.1887 197.277 93.25 196.837 93.25C196.612 93.25 196.389 93.2659 196.167 93.2976L193.971 93.6113C193.327 93.7032 192.674 93.6956 192.033 93.5888L191.103 93.4338C190.386 93.3143 189.65 93.425 189 93.75L186 95.75L183 97.75L179.578 100.317C179.193 100.605 178.829 100.921 178.49 101.26L177.8 101.95C176.949 102.801 176.346 103.866 176.054 105.033C175.695 106.47 175.827 107.985 176.428 109.338L177.5 111.75L179.5 115.75L181.5 118.75L184.5 124.75L185.949 128.373C186.981 130.952 187.758 133.624 188.269 136.354C188.755 138.946 189 141.577 189 144.214V145.25L188.5 151.25C188.5 154.565 188.004 157.861 187.03 161.029L186.5 162.75L184.818 166.955C183.941 169.147 182.878 171.261 181.64 173.273C180.217 175.585 178.569 177.752 176.722 179.742L173 183.75L172.061 184.571C167.364 188.681 162.292 192.343 156.913 195.507L156.5 195.75C151.181 198.41 145.601 200.513 139.85 202.026L139 202.25C135.345 203.579 131.552 204.493 127.693 204.976L125.5 205.25L120 205.75H115.5H109H102.5H97.5L91.5 205.25L85.5 204.25L82.4687 203.784C80.1703 203.43 77.941 202.72 75.861 201.681C74.623 201.062 73.3303 200.559 71.9994 200.178L70.5 199.75L65 198.25L60 196.25L59.0731 195.965C55.3713 194.826 51.8211 193.243 48.5 191.25L44 188.25L41 185.75L40.377 185.305C38.4623 183.937 36.6638 182.414 35 180.75L32 177.75L29 175.25L27.0811 173.331C26.0339 172.284 25.1623 171.075 24.5 169.75L24.1772 169.104C23.7287 168.207 23.1384 167.388 22.4292 166.679C21.4873 165.737 20.758 164.605 20.2903 163.357L19.9059 162.332C19.6357 161.612 19.3082 160.914 18.9265 160.246L17.5 157.75L15 153.75L13.5 150.75L12.5 148.75L11.5 146.25L10.5 142.25L9.5 139.75L7.5 135.75L6.95555 134.389C6.65249 133.631 6.41948 132.847 6.25944 132.047C6.0869 131.185 6 130.307 6 129.427V128.25V126.101C6 124.579 6.5179 123.103 7.46852 121.914L7.76917 121.539C7.92244 121.347 8.09932 121.176 8.2956 121.028C9.31045 120.267 10.7014 120.251 11.7337 120.988L13.5 122.25L13.7518 122.401C14.4772 122.836 15.3405 122.101 15.0263 121.316C15.0088 121.272 14.9878 121.23 14.9636 121.189L14.6634 120.689C13.9021 119.42 13.5 117.968 13.5 116.489V114.25V111.75V108.715C13.5 107.418 13.7633 106.136 14.2739 104.944L14.7063 103.935C14.9003 103.483 15.1789 103.071 15.5271 102.723L16.2649 101.985C17.0025 101.248 18.1293 101.065 19.0623 101.531C19.3512 101.676 19.6083 101.876 19.8185 102.122L21.5004 104.084C22.1651 104.859 22.9062 105.566 23.7124 106.193L25.581 107.646C26.5235 108.379 27.5516 108.995 28.6427 109.48C30.5266 110.317 32.5652 110.75 34.6268 110.75H37H42C43.3187 110.75 44.6226 110.473 45.8276 109.938L48.5 108.75L51.5 107.75C53.164 107.084 54.7721 106.287 56.3089 105.365L56.5 105.25L58.2337 104.383C59.0732 103.963 59.9707 103.672 60.8965 103.517C61.9576 103.34 62.9806 102.983 63.9211 102.461L65.0518 101.832C66.345 101.114 67.7269 100.568 69.1621 100.209L73 99.25L76.4347 98.3133C77.8092 97.9384 79.2125 97.6788 80.6301 97.537C82.5373 97.3463 84.46 97.37 86.362 97.6077L87.5 97.75C90.0983 97.75 92.6284 98.5815 94.7202 100.123L95.8846 100.981ZM95.8846 100.981L97.8333 102.417M95.8846 100.981C96.29 101.488 96.8006 101.9 97.3811 102.191L97.8333 102.417M97.8333 102.417L101 104.75L99.082 103.216C98.6951 102.906 98.2765 102.638 97.8333 102.417Z" stroke="#1A1919" stroke-width="4"/>
</g>
<g filter="url(#filter2_f_1_12)">
<path d="M155.416 63.717L156 63.25C156.986 62.2636 158.189 61.5203 159.512 61.0792L160 60.9167C160.989 60.4771 162.059 60.25 163.141 60.25H163.5H164.555C164.85 60.25 165.143 60.2975 165.422 60.3907C166.112 60.6208 166.683 61.1155 167.008 61.7661L167.137 62.024C167.376 62.5014 167.722 62.9168 168.149 63.237L169.037 63.9029C169.345 64.134 169.637 64.3867 169.909 64.659L170.25 65C170.749 65.4994 171.284 65.9627 171.849 66.3864L173 67.25L175.5 69.25L178 71.25C179.298 72.2232 180.241 73.5942 180.687 75.1538L181 76.25H183H185H187.5H189.5H192.5H194.5H196.159C197.033 76.25 197.892 76.5113 198.62 76.9965C198.872 77.1645 199.142 77.3067 199.423 77.4192L199.957 77.6329C200.926 78.0205 201.65 78.8496 201.903 79.8619C201.967 80.1197 202 80.3843 202 80.65V81.6059C202 82.0325 201.931 82.4563 201.796 82.8611C201.601 83.4457 201.273 83.9768 200.837 84.4126L200.698 84.5524C200.237 85.0127 199.688 85.3747 199.084 85.6164L198.71 85.7659C197.911 86.0857 197.058 86.25 196.197 86.25H195.5H192H190.75H189.5H187.791C187.598 86.25 187.407 86.281 187.224 86.3419L186.715 86.5118C186.288 86.654 186 87.0534 186 87.5033C186 87.6655 185.962 87.8256 185.89 87.9707L185.276 89.1972C185.093 89.565 184.876 89.9155 184.629 90.2444L184.527 90.3804C183.849 91.2849 183.001 92.0491 182.032 92.6308L181 93.25C179.004 94.2478 176.92 95.0585 174.775 95.6714L174.5 95.75C172.503 96.0828 170.483 96.25 168.459 96.25H167.5H163H160H157.5H154.5H153.55C151.854 96.25 150.163 96.0825 148.5 95.75L145 94.75L141 93.25L139.398 92.4488C138.468 91.9842 137.591 91.4228 136.78 90.7738C135.929 90.0934 135.157 89.3208 134.476 88.4702L133.5 87.25L132 85.75L131 84.75C130.36 84.1097 130 83.2413 130 82.3358V81.75C130 80.4694 130.509 79.2413 131.414 78.3358L131.707 78.0429C131.902 77.8479 132.111 77.6669 132.331 77.5015L132.521 77.3595C133.497 76.6272 134.61 76.0975 135.794 75.8015L136 75.75L138.5 74.75L139.132 74.5392C139.707 74.3477 140.309 74.25 140.915 74.25C141.632 74.25 142.342 74.1132 143.008 73.8469L144.5 73.25L145.18 72.9098C146.054 72.4728 146.852 71.8978 147.543 71.2068C147.847 70.9027 148.13 70.5773 148.388 70.2331L148.75 69.75C149.249 69.0842 149.795 68.4546 150.384 67.8661L151.362 66.8878C151.454 66.796 151.674 66.5222 151.756 66.4213C152.634 65.335 154.325 64.5897 155.416 63.717Z" fill="#D26812"/>
<path d="M160.5 60.75L160 60.9167M181 76.25H183H185H187.5H189.5H192.5H194.5H196.159C197.033 76.25 197.892 76.5113 198.62 76.9965C198.872 77.1645 199.142 77.3067 199.423 77.4192L199.957 77.6329C200.926 78.0204 201.65 78.8496 201.903 79.8619C201.967 80.1197 202 80.3843 202 80.65V81.6059C202 82.0325 201.931 82.4563 201.796 82.8611C201.601 83.4457 201.273 83.9768 200.837 84.4126L200.698 84.5524C200.237 85.0127 199.688 85.3747 199.084 85.6164L198.71 85.7659C197.911 86.0857 197.058 86.25 196.197 86.25H195.5H192H190.75M181 76.25L179.869 76.8154C179.291 77.1043 178.684 77.329 178.057 77.4857L177.024 77.7441C177.008 77.748 176.992 77.75 176.976 77.75C176.745 77.75 176.701 77.4224 176.924 77.3617L181 76.25ZM181 76.25L180.687 75.1538C180.241 73.5942 179.298 72.2232 178 71.25L175.5 69.25L173 67.25L171.849 66.3864C171.284 65.9627 170.749 65.4994 170.25 65L169.909 64.659C169.637 64.3867 169.345 64.134 169.037 63.9029L168.149 63.237C167.722 62.9168 167.376 62.5014 167.137 62.024L167.008 61.7661C166.683 61.1155 166.112 60.6208 165.422 60.3907C165.143 60.2975 164.85 60.25 164.555 60.25H163.5H163.141C162.059 60.25 160.989 60.4771 160 60.9167M160 60.9167L159.512 61.0792C158.189 61.5203 156.986 62.2636 156 63.25L155.416 63.717C154.325 64.5897 152.634 65.335 151.756 66.4213C151.674 66.5222 151.454 66.796 151.362 66.8878L150.384 67.8661C149.795 68.4546 149.249 69.0842 148.75 69.75L148.388 70.2331C148.13 70.5773 147.847 70.9027 147.543 71.2068C146.852 71.8978 146.054 72.4728 145.18 72.9098L144.5 73.25L143.008 73.8469C142.342 74.1132 141.632 74.25 140.915 74.25C140.309 74.25 139.707 74.3477 139.132 74.5392L138.5 74.75L136 75.75L135.794 75.8015C134.61 76.0975 133.497 76.6272 132.521 77.3595L132.331 77.5015C132.111 77.6669 131.902 77.8479 131.707 78.0429L131.414 78.3358C130.509 79.2413 130 80.4694 130 81.75V82.3358C130 83.2413 130.36 84.1097 131 84.75M186 85.75H183M183 85.75L181 86.25L178.734 86.75L178.394 86.8743C176.8 87.4573 175.164 87.9172 173.5 88.25L171.5 88.75L169 89.25L168.94 89.2649C167.652 89.5871 166.328 89.75 165 89.75H161.5H157.5H156.541C154.517 89.75 152.497 89.5828 150.5 89.25L146.5 88.75L144.5 88.25L141 87.75L139.596 87.4693C138.869 87.3237 138.164 87.0819 137.5 86.75C136.836 86.4181 136.131 86.1763 135.404 86.0307L134 85.75L131 84.75M183 85.75L190.75 86.25M131 84.75L132 85.75L133.5 87.25L134.476 88.4702C135.157 89.3208 135.929 90.0934 136.78 90.7738C137.591 91.4228 138.468 91.9842 139.398 92.4488L141 93.25L145 94.75L148.5 95.75C150.163 96.0825 151.854 96.25 153.55 96.25H154.5H157.5H160H163H167.5H168.459C170.483 96.25 172.503 96.0828 174.5 95.75L174.775 95.6714C176.92 95.0585 179.004 94.2479 181 93.25L182.032 92.6308C183.001 92.0491 183.849 91.2849 184.527 90.3804L184.629 90.2444C184.876 89.9155 185.093 89.565 185.276 89.1972L185.89 87.9707C185.962 87.8256 186 87.6655 186 87.5033C186 87.0534 186.288 86.654 186.715 86.5118L187.224 86.3419C187.407 86.281 187.598 86.25 187.791 86.25H189.5H190.75" stroke="#1A1919" stroke-width="2"/>
</g>
<g opacity="0.8" filter="url(#filter3_f_1_12)">
<mask id="path-5-inside-1_1_12" fill="white">
<path d="M162 71.75C162 71.4004 161.919 71.0617 161.77 70.7926C161.621 70.5234 161.414 70.3407 161.185 70.2759C160.956 70.2112 160.719 70.2685 160.515 70.438C160.311 70.6074 160.153 70.8784 160.069 71.204C159.984 71.5297 159.977 71.8895 160.051 72.2215C160.124 72.5534 160.272 72.8365 160.47 73.0218C160.667 73.2072 160.902 73.2832 161.133 73.2367C161.364 73.1901 161.577 73.024 161.735 72.767L161 71.75H162Z"/>
</mask>
<path d="M162 71.75C162 71.4004 161.919 71.0617 161.77 70.7926C161.621 70.5234 161.414 70.3407 161.185 70.2759C160.956 70.2112 160.719 70.2685 160.515 70.438C160.311 70.6074 160.153 70.8784 160.069 71.204C159.984 71.5297 159.977 71.8895 160.051 72.2215C160.124 72.5534 160.272 72.8365 160.47 73.0218C160.667 73.2072 160.902 73.2832 161.133 73.2367C161.364 73.1901 161.577 73.024 161.735 72.767L161 71.75H162Z" fill="#1A1919"/>
<path d="M162 71.75C162 71.4004 161.919 71.0617 161.77 70.7926C161.621 70.5234 161.414 70.3407 161.185 70.2759C160.956 70.2112 160.719 70.2685 160.515 70.438C160.311 70.6074 160.153 70.8784 160.069 71.204C159.984 71.5297 159.977 71.8895 160.051 72.2215C160.124 72.5534 160.272 72.8365 160.47 73.0218C160.667 73.2072 160.902 73.2832 161.133 73.2367C161.364 73.1901 161.577 73.024 161.735 72.767L161 71.75H162Z" stroke="black" stroke-width="2" mask="url(#path-5-inside-1_1_12)"/>
</g>
<g filter="url(#filter4_f_1_12)">
<ellipse cx="133.5" cy="54.75" rx="7.5" ry="9.5" fill="#1A1919"/>
</g>
<g filter="url(#filter5_f_1_12)">
<ellipse cx="175" cy="53.75" rx="6" ry="8.5" fill="#1A1919"/>
</g>
<g filter="url(#filter6_f_1_12)">
<path d="M102 121.75L97.8966 120.871C95.9709 120.458 94.007 120.25 92.0377 120.25C89.0322 120.25 86.0464 120.735 83.1952 121.685L80 122.75L73 125.75L67 128.25L64.0734 129.226C63.0291 129.574 62.0359 130.059 61.12 130.67C59.0856 132.026 56.6953 132.75 54.2502 132.75H53.2322C51.0996 132.75 48.9893 132.317 47.0291 131.477L46.5 131.25L43.4281 130.328C42.1495 129.945 40.8219 129.75 39.487 129.75H38.2734C37.4313 129.75 36.5961 129.901 35.8077 130.197L34.8375 130.561C33.6638 131.001 32.7207 131.902 32.2269 133.054C31.7604 134.142 31.7321 135.369 32.148 136.478L32.6658 137.859C32.8879 138.451 33.1772 139.016 33.528 139.542L34.0752 140.363C34.6902 141.285 35.3949 142.145 36.1789 142.929L39 145.75L41.5 147.75M41.5 147.75L44 149.75L47.081 152.146C48.0235 152.879 49.0516 153.495 50.1427 153.98L51.1724 154.438C52.3774 154.973 53.6813 155.25 55 155.25M41.5 147.75L41.1234 151.516C41.0414 152.336 41.0521 153.167 41.1543 153.984C41.3805 155.794 42.055 157.527 43.1148 159.011C43.7021 159.833 44.4002 160.57 45.1893 161.201L46.5 162.25L49.2632 164.706C50.4192 165.734 51.6556 166.667 52.9604 167.498L56.5 169.75L59.1098 171.316C60.6996 172.27 62.3772 173.069 64.1196 173.703L67 174.75L71 176.25L71.5365 176.384C73.8368 176.959 76.199 177.25 78.5701 177.25H79H83.5H85.3851C87.1248 177.25 88.8611 177.093 90.5727 176.782L93.5 176.25L98.5 174.75L100.696 173.871C102.56 173.126 104.342 172.189 106.012 171.075L108 169.75C110.641 167.439 112.807 164.635 114.377 161.496L115 160.25L116 158.75" stroke="#1A1919" stroke-width="2"/>
</g>
<g filter="url(#filter7_f_1_12)">
<path d="M157.017 126.841L148.58 158.188H145.818L154.256 126.841H157.017ZM153.903 145.045V143L170.369 134.614V137.886L157.738 143.972L157.84 143.767V144.278L157.738 144.074L170.369 150.159V153.432L153.903 145.045Z" fill="#1A1919"/>
</g>
</g>
<defs>
<filter id="filter0_d_1_12" x="0" y="0.25" width="214" height="215.5" filterUnits="userSpaceOnUse" color-interpolation-filters="sRGB">
<feFlood flood-opacity="0" result="BackgroundImageFix"/>
<feColorMatrix in="SourceAlpha" type="matrix" values="0 0 0 0 0 0 0 0 0 0 0 0 0 0 0 0 0 0 127 0" result="hardAlpha"/>
<feOffset dy="4"/>
<feGaussianBlur stdDeviation="2"/>
<feComposite in2="hardAlpha" operator="out"/>
<feColorMatrix type="matrix" values="0 0 0 0 0 0 0 0 0 0 0 0 0 0 0 0 0 0 0.25 0"/>
<feBlend mode="normal" in2="BackgroundImageFix" result="effect1_dropShadow_1_12"/>
<feBlend mode="normal" in="SourceGraphic" in2="effect1_dropShadow_1_12" result="shape"/>
</filter>
<filter id="filter1_f_1_12" x="3.75" y="0" width="206.5" height="208" filterUnits="userSpaceOnUse" color-interpolation-filters="sRGB">
<feFlood flood-opacity="0" result="BackgroundImageFix"/>
<feBlend mode="normal" in="SourceGraphic" in2="BackgroundImageFix" result="shape"/>
<feGaussianBlur stdDeviation="0.125" result="effect1_foregroundBlur_1_12"/>
</filter>
<filter id="filter2_f_1_12" x="128.5" y="58.75" width="75" height="39" filterUnits="userSpaceOnUse" color-interpolation-filters="sRGB">
<feFlood flood-opacity="0" result="BackgroundImageFix"/>
<feBlend mode="normal" in="SourceGraphic" in2="BackgroundImageFix" result="shape"/>
<feGaussianBlur stdDeviation="0.25" result="effect1_foregroundBlur_1_12"/>
</filter>
<filter id="filter3_f_1_12" x="159.5" y="69.75" width="3" height="4.00001" filterUnits="userSpaceOnUse" color-interpolation-filters="sRGB">
<feFlood flood-opacity="0" result="BackgroundImageFix"/>
<feBlend mode="normal" in="SourceGraphic" in2="BackgroundImageFix" result="shape"/>
<feGaussianBlur stdDeviation="0.25" result="effect1_foregroundBlur_1_12"/>
</filter>
<filter id="filter4_f_1_12" x="125.5" y="44.75" width="16" height="20" filterUnits="userSpaceOnUse" color-interpolation-filters="sRGB">
<feFlood flood-opacity="0" result="BackgroundImageFix"/>
<feBlend mode="normal" in="SourceGraphic" in2="BackgroundImageFix" result="shape"/>
<feGaussianBlur stdDeviation="0.25" result="effect1_foregroundBlur_1_12"/>
</filter>
<filter id="filter5_f_1_12" x="168.5" y="44.75" width="13" height="18" filterUnits="userSpaceOnUse" color-interpolation-filters="sRGB">
<feFlood flood-opacity="0" result="BackgroundImageFix"/>
<feBlend mode="normal" in="SourceGraphic" in2="BackgroundImageFix" result="shape"/>
<feGaussianBlur stdDeviation="0.25" result="effect1_foregroundBlur_1_12"/>
</filter>
<filter id="filter6_f_1_12" x="30.3553" y="118.75" width="86.9767" height="60" filterUnits="userSpaceOnUse" color-interpolation-filters="sRGB">
<feFlood flood-opacity="0" result="BackgroundImageFix"/>
<feBlend mode="normal" in="SourceGraphic" in2="BackgroundImageFix" result="shape"/>
<feGaussianBlur stdDeviation="0.25" result="effect1_foregroundBlur_1_12"/>
</filter>
<filter id="filter7_f_1_12" x="145.318" y="126.341" width="25.5504" height="32.3466" filterUnits="userSpaceOnUse" color-interpolation-filters="sRGB">
<feFlood flood-opacity="0" result="BackgroundImageFix"/>
<feBlend mode="normal" in="SourceGraphic" in2="BackgroundImageFix" result="shape"/>
<feGaussianBlur stdDeviation="0.25" result="effect1_foregroundBlur_1_12"/>
</filter>
</defs>
</svg>
