<svg width="214" height="216" viewBox="0 0 214 216" fill="none" xmlns="http://www.w3.org/2000/svg">
<g filter="url(#filter0_n_1_12)">
<g filter="url(#filter1_g_1_12)">
<path d="M192 62.5V69.8902C192 72.5837 193.871 74.9157 196.5 75.5L200 76.5L203.043 77.2609C203.678 77.4194 204.285 77.6709 204.845 78.0073L204.912 78.0469C205.949 78.6694 206.787 79.5748 207.328 80.6568C207.77 81.5401 208 82.5141 208 83.5017V85V85.9816C208 87.3023 207.641 88.5982 206.962 89.7308C206.655 90.2417 206.287 90.713 205.866 91.1343L204 93L202.671 94.3292C201.575 95.425 200.218 96.2234 198.728 96.6491L198.138 96.8178C197.715 96.9387 197.277 97 196.837 97C196.612 97 196.389 97.0159 196.167 97.0476L193.971 97.3613C193.327 97.4532 192.674 97.4456 192.033 97.3388L191.103 97.1838C190.386 97.0643 189.65 97.175 189 97.5L186 99.5L183 101.5L179.578 104.067C179.193 104.355 178.829 104.671 178.49 105.01L177.8 105.7C176.949 106.551 176.346 107.616 176.054 108.783C175.695 110.22 175.827 111.735 176.428 113.088L177.5 115.5L179.5 119.5L181.5 122.5L184.5 128.5L185.949 132.123C186.981 134.702 187.758 137.374 188.269 140.104C188.755 142.696 189 145.327 189 147.964V149L188.5 155C188.5 158.315 188.004 161.611 187.03 164.779L186.5 166.5L184.818 170.705C183.941 172.897 182.878 175.011 181.64 177.023C180.217 179.335 178.569 181.502 176.722 183.492L173 187.5L172.061 188.321C167.364 192.431 162.292 196.093 156.913 199.257L156.5 199.5C151.181 202.16 145.601 204.263 139.85 205.776L139 206C135.345 207.329 131.552 208.243 127.693 208.726L125.5 209L120 209.5H115.5H109H102.5H97.5L91.5 209L85.5 208L82.4687 207.534C80.1703 207.18 77.941 206.47 75.861 205.43C74.623 204.812 73.3303 204.309 71.9994 203.928L70.5 203.5L65 202L60 200L59.0731 199.715C55.3713 198.576 51.8211 196.993 48.5 195L44 192L41 189.5L40.377 189.055C38.4623 187.687 36.6638 186.164 35 184.5L32 181.5L29 179L27.0811 177.081C26.0339 176.034 25.1623 174.825 24.5 173.5L24.1772 172.854C23.7287 171.957 23.1384 171.138 22.4292 170.429C21.4873 169.487 20.758 168.355 20.2903 167.107L19.9059 166.082C19.6357 165.362 19.3082 164.664 18.9265 163.996L17.5 161.5L15 157.5L13.5 154.5L12.5 152.5L11.5 150L10.5 146L9.5 143.5L7.5 139.5L6.95555 138.139C6.65249 137.381 6.41948 136.597 6.25944 135.797C6.0869 134.935 6 134.057 6 133.177V132V129.851C6 128.329 6.5179 126.853 7.46852 125.664L7.76917 125.289C7.92244 125.097 8.09932 124.926 8.2956 124.778C9.31045 124.017 10.7014 124.001 11.7337 124.738L13.5 126L13.7518 126.151C14.4772 126.586 15.3405 125.851 15.0263 125.066C15.0088 125.022 14.9878 124.98 14.9636 124.939L14.6634 124.439C13.9021 123.17 13.5 121.718 13.5 120.239V118V115.5V112.465C13.5 111.168 13.7633 109.886 14.2739 108.694L14.7063 107.685C14.9003 107.233 15.1789 106.821 15.5271 106.473L16.2649 105.735C17.0025 104.998 18.1293 104.815 19.0623 105.281C19.3512 105.426 19.6083 105.626 19.8185 105.872L21.5004 107.834C22.1651 108.609 22.9062 109.316 23.7124 109.943L25.581 111.396C26.5235 112.129 27.5516 112.745 28.6427 113.23C30.5266 114.067 32.5652 114.5 34.6268 114.5H37H42C43.3186 114.5 44.6226 114.223 45.8276 113.688L48.5 112.5L51.5 111.5C53.164 110.834 54.7721 110.037 56.3089 109.115L56.5 109L58.2337 108.133C59.0732 107.713 59.9707 107.422 60.8965 107.267C61.9576 107.09 62.9806 106.733 63.9211 106.211L65.0518 105.582C66.345 104.864 67.7269 104.318 69.1621 103.959L73 103L76.4347 102.063C77.8092 101.688 79.2125 101.429 80.6301 101.287C82.5373 101.096 84.46 101.12 86.362 101.358L87.5 101.5C90.0983 101.5 92.6284 102.331 94.7202 103.873L95.8846 104.731L94.5 103C93.5038 102.004 92.6335 100.889 91.9086 99.681L90 96.5L87.5 92.5L86.5615 90.9983C85.5222 89.3356 84.621 87.5904 83.8669 85.7805C82.9578 83.5988 82.2665 81.3327 81.803 79.0152L81.5 77.5L81 74L80.5 70.5L80.3533 69.62C80.1182 68.2091 80 66.7811 80 65.3507C80 63.4559 80.2074 61.5668 80.6184 59.7172L81 58L81.5 54L82 50C82.3326 48.0047 82.8576 46.0463 83.5679 44.1523L84 43C84.6658 41.0025 85.4726 39.0548 86.4142 37.1716L87.5 35L88.717 32.5659C89.5697 30.8606 90.6093 29.2553 91.8166 27.7797L92.7341 26.6583C93.9035 25.2291 95.2988 24.0007 96.8648 23.022C97.9514 22.3429 98.9574 21.5426 99.8635 20.6365L100.562 19.9381C102.508 17.9921 104.755 16.3726 107.216 15.1418L109.5 14L115 10.5L115.327 10.3185C118.094 8.78134 121.073 7.66289 124.168 6.99968C125.721 6.66702 127.296 6.45028 128.88 6.35124L134.5 6H139C142.66 6.33269 146.283 6.98624 149.828 7.95311L150 8L154 9C156.996 9.99874 159.918 11.2089 162.743 12.6213L163.5 13L167.5 15.5L172.5 19.5L177.5 24.5L182 30L183.283 32.0161C184.758 34.3337 186.013 36.7836 187.034 39.3341L187.749 41.1225C188.249 42.3717 188.859 43.5739 189.572 44.7148L190.291 45.8656C190.762 46.6192 191.142 47.426 191.423 48.2691C191.805 49.4155 192 50.6161 192 51.8245V54.5V62.5Z" fill="#D9D9D9"/>
<path d="M95.8846 104.731L94.5 103C93.5038 102.004 92.6335 100.889 91.9086 99.681L90 96.5L87.5 92.5L86.5615 90.9983C85.5222 89.3356 84.621 87.5904 83.8669 85.7805C82.9578 83.5988 82.2665 81.3327 81.803 79.0152L81.5 77.5L81 74L80.5 70.5L80.3533 69.62C80.1182 68.2091 80 66.7811 80 65.3507C80 63.4559 80.2074 61.5668 80.6184 59.7172L81 58L81.5 54L82 50C82.3326 48.0047 82.8576 46.0463 83.5679 44.1523L84 43C84.6658 41.0025 85.4726 39.0548 86.4142 37.1716L87.5 35L88.717 32.5659C89.5697 30.8606 90.6093 29.2553 91.8166 27.7797L92.7341 26.6583C93.9035 25.2291 95.2988 24.0007 96.8648 23.022C97.9514 22.3429 98.9574 21.5426 99.8635 20.6365L100.562 19.9381C102.508 17.9921 104.755 16.3726 107.216 15.1418L109.5 14L115 10.5L115.327 10.3185C118.094 8.78134 121.073 7.66289 124.168 6.99968C125.721 6.66702 127.296 6.45028 128.88 6.35124L134.5 6H139C142.66 6.33269 146.283 6.98624 149.828 7.95311L150 8L154 9C156.996 9.99874 159.918 11.2089 162.743 12.6213L163.5 13L167.5 15.5L172.5 19.5L177.5 24.5L182 30L183.283 32.0161C184.758 34.3337 186.013 36.7836 187.034 39.3341L187.749 41.1225C188.249 42.3717 188.859 43.5739 189.572 44.7148L190.291 45.8656C190.762 46.6192 191.142 47.426 191.423 48.2691C191.805 49.4155 192 50.6161 192 51.8245V54.5V62.5V69.8902C192 72.5837 193.871 74.9157 196.5 75.5L200 76.5L203.043 77.2609C203.678 77.4194 204.285 77.6709 204.845 78.0073L204.912 78.0469C205.949 78.6694 206.787 79.5748 207.328 80.6568C207.77 81.5401 208 82.5141 208 83.5017V85V85.9816C208 87.3023 207.641 88.5982 206.962 89.7308C206.655 90.2417 206.287 90.713 205.866 91.1343L204 93L202.671 94.3292C201.575 95.425 200.218 96.2234 198.728 96.6491L198.138 96.8178C197.715 96.9387 197.277 97 196.837 97C196.612 97 196.389 97.0159 196.167 97.0476L193.971 97.3613C193.327 97.4532 192.674 97.4456 192.033 97.3388L191.103 97.1838C190.386 97.0643 189.65 97.175 189 97.5L186 99.5L183 101.5L179.578 104.067C179.193 104.355 178.829 104.671 178.49 105.01L177.8 105.7C176.949 106.551 176.346 107.616 176.054 108.783C175.695 110.22 175.827 111.735 176.428 113.088L177.5 115.5L179.5 119.5L181.5 122.5L184.5 128.5L185.949 132.123C186.981 134.702 187.758 137.374 188.269 140.104C188.755 142.696 189 145.327 189 147.964V149L188.5 155C188.5 158.315 188.004 161.611 187.03 164.779L186.5 166.5L184.818 170.705C183.941 172.897 182.878 175.011 181.64 177.023C180.217 179.335 178.569 181.502 176.722 183.492L173 187.5L172.061 188.321C167.364 192.431 162.292 196.093 156.913 199.257L156.5 199.5C151.181 202.16 145.601 204.263 139.85 205.776L139 206C135.345 207.329 131.552 208.243 127.693 208.726L125.5 209L120 209.5H115.5H109H102.5H97.5L91.5 209L85.5 208L82.4687 207.534C80.1703 207.18 77.941 206.47 75.861 205.431C74.623 204.812 73.3303 204.309 71.9994 203.928L70.5 203.5L65 202L60 200L59.0731 199.715C55.3713 198.576 51.8211 196.993 48.5 195L44 192L41 189.5L40.377 189.055C38.4623 187.687 36.6638 186.164 35 184.5L32 181.5L29 179L27.0811 177.081C26.0339 176.034 25.1623 174.825 24.5 173.5L24.1772 172.854C23.7287 171.957 23.1384 171.138 22.4292 170.429C21.4873 169.487 20.758 168.355 20.2903 167.107L19.9059 166.082C19.6357 165.362 19.3082 164.664 18.9265 163.996L17.5 161.5L15 157.5L13.5 154.5L12.5 152.5L11.5 150L10.5 146L9.5 143.5L7.5 139.5L6.95555 138.139C6.65249 137.381 6.41948 136.597 6.25944 135.797C6.0869 134.935 6 134.057 6 133.177V132V129.851C6 128.329 6.5179 126.853 7.46852 125.664L7.76917 125.289C7.92244 125.097 8.09932 124.926 8.2956 124.778C9.31045 124.017 10.7014 124.001 11.7337 124.738L13.5 126L13.7518 126.151C14.4772 126.586 15.3405 125.851 15.0263 125.066C15.0088 125.022 14.9878 124.98 14.9636 124.939L14.6634 124.439C13.9021 123.17 13.5 121.718 13.5 120.239V118V115.5V112.465C13.5 111.168 13.7633 109.886 14.2739 108.694L14.7063 107.685C14.9003 107.233 15.1789 106.821 15.5271 106.473L16.2649 105.735C17.0025 104.998 18.1293 104.815 19.0623 105.281C19.3512 105.426 19.6083 105.626 19.8185 105.872L21.5004 107.834C22.1651 108.609 22.9062 109.316 23.7124 109.943L25.581 111.396C26.5235 112.129 27.5516 112.745 28.6427 113.23C30.5266 114.067 32.5652 114.5 34.6268 114.5H37H42C43.3187 114.5 44.6226 114.223 45.8276 113.688L48.5 112.5L51.5 111.5C53.164 110.834 54.7721 110.037 56.3089 109.115L56.5 109L58.2337 108.133C59.0732 107.713 59.9707 107.422 60.8965 107.267C61.9576 107.09 62.9806 106.733 63.9211 106.211L65.0518 105.582C66.345 104.864 67.7269 104.318 69.1621 103.959L73 103L76.4347 102.063C77.8092 101.688 79.2125 101.429 80.6301 101.287C82.5373 101.096 84.46 101.12 86.362 101.358L87.5 101.5C90.0983 101.5 92.6284 102.331 94.7202 103.873L95.8846 104.731ZM95.8846 104.731L97.8333 106.167M95.8846 104.731C96.29 105.238 96.8006 105.65 97.3811 105.941L97.8333 106.167M97.8333 106.167L101 108.5L99.082 106.966C98.6951 106.656 98.2765 106.388 97.8333 106.167Z" stroke="#1A1919" stroke-width="4"/>
</g>
<path d="M155.416 67.467L156 67C156.986 66.0136 158.189 65.2703 159.512 64.8292L160 64.6667C160.989 64.2271 162.059 64 163.141 64H163.5H164.555C164.85 64 165.143 64.0475 165.422 64.1407C166.112 64.3708 166.683 64.8655 167.008 65.5161L167.137 65.774C167.376 66.2514 167.722 66.6668 168.149 66.987L169.037 67.6529C169.345 67.884 169.637 68.1367 169.909 68.409L170.25 68.75C170.749 69.2494 171.284 69.7127 171.849 70.1364L173 71L175.5 73L178 75C179.298 75.9732 180.241 77.3442 180.687 78.9038L181 80H183H185H187.5H189.5H192.5H194.5H196.159C197.033 80 197.892 80.2613 198.62 80.7465C198.872 80.9145 199.142 81.0567 199.423 81.1692L199.957 81.3829C200.926 81.7705 201.65 82.5996 201.903 83.6119C201.967 83.8697 202 84.1343 202 84.4V85.3559C202 85.7825 201.931 86.2063 201.796 86.6111C201.601 87.1957 201.273 87.7268 200.837 88.1626L200.698 88.3024C200.237 88.7627 199.688 89.1247 199.084 89.3664L198.71 89.5159C197.911 89.8357 197.058 90 196.197 90H195.5H192H190.75H189.5H187.791C187.598 90 187.407 90.031 187.224 90.0919L186.715 90.2618C186.288 90.404 186 90.8034 186 91.2533C186 91.4155 185.962 91.5756 185.89 91.7207L185.276 92.9472C185.093 93.315 184.876 93.6655 184.629 93.9944L184.527 94.1304C183.849 95.0349 183.001 95.7991 182.032 96.3808L181 97C179.004 97.9978 176.92 98.8085 174.775 99.4214L174.5 99.5C172.503 99.8328 170.483 100 168.459 100H167.5H163H160H157.5H154.5H153.55C151.854 100 150.163 99.8325 148.5 99.5L145 98.5L141 97L139.398 96.1988C138.468 95.7342 137.591 95.1728 136.78 94.5238C135.929 93.8434 135.157 93.0708 134.476 92.2202L133.5 91L132 89.5L131 88.5C130.36 87.8597 130 86.9913 130 86.0858V85.5C130 84.2194 130.509 82.9913 131.414 82.0858L131.707 81.7929C131.902 81.5979 132.111 81.4169 132.331 81.2515L132.521 81.1095C133.497 80.3772 134.61 79.8475 135.794 79.5515L136 79.5L138.5 78.5L139.132 78.2892C139.707 78.0977 140.309 78 140.915 78C141.632 78 142.342 77.8632 143.008 77.5969L144.5 77L145.18 76.6598C146.054 76.2228 146.852 75.6478 147.543 74.9568C147.847 74.6527 148.13 74.3273 148.388 73.9831L148.75 73.5C149.249 72.8342 149.795 72.2046 150.384 71.6161L151.362 70.6378C151.454 70.546 151.674 70.2722 151.756 70.1713C152.634 69.085 154.325 68.3397 155.416 67.467Z" fill="#D26812"/>
<path d="M160.5 64.5L160 64.6667M181 80H183H185H187.5H189.5H192.5H194.5H196.159C197.033 80 197.892 80.2613 198.62 80.7465C198.872 80.9145 199.142 81.0567 199.423 81.1692L199.957 81.3829C200.926 81.7704 201.65 82.5996 201.903 83.6119C201.967 83.8697 202 84.1343 202 84.4V85.3559C202 85.7825 201.931 86.2063 201.796 86.6111C201.601 87.1957 201.273 87.7268 200.837 88.1626L200.698 88.3024C200.237 88.7627 199.688 89.1247 199.084 89.3664L198.71 89.5159C197.911 89.8357 197.058 90 196.197 90H195.5H192H190.75M181 80L179.869 80.5654C179.291 80.8543 178.684 81.079 178.057 81.2357L177.024 81.4941C177.008 81.498 176.992 81.5 176.976 81.5C176.745 81.5 176.701 81.1724 176.924 81.1117L181 80ZM181 80L180.687 78.9038C180.241 77.3442 179.298 75.9732 178 75L175.5 73L173 71L171.849 70.1364C171.284 69.7127 170.749 69.2494 170.25 68.75L169.909 68.409C169.637 68.1367 169.345 67.884 169.037 67.6529L168.149 66.987C167.722 66.6668 167.376 66.2514 167.137 65.774L167.008 65.5161C166.683 64.8655 166.112 64.3708 165.422 64.1407C165.143 64.0475 164.85 64 164.555 64H163.5H163.141C162.059 64 160.989 64.2271 160 64.6667M160 64.6667L159.512 64.8292C158.189 65.2703 156.986 66.0136 156 67L155.416 67.467C154.325 68.3397 152.634 69.085 151.756 70.1713C151.674 70.2722 151.454 70.546 151.362 70.6378L150.384 71.6161C149.795 72.2046 149.249 72.8342 148.75 73.5L148.388 73.9831C148.13 74.3273 147.847 74.6527 147.543 74.9568C146.852 75.6478 146.054 76.2228 145.18 76.6598L144.5 77L143.008 77.5969C142.342 77.8632 141.632 78 140.915 78C140.309 78 139.707 78.0977 139.132 78.2892L138.5 78.5L136 79.5L135.794 79.5515C134.61 79.8475 133.497 80.3772 132.521 81.1095L132.331 81.2515C132.111 81.4169 131.902 81.5979 131.707 81.7929L131.414 82.0858C130.509 82.9913 130 84.2194 130 85.5V86.0858C130 86.9913 130.36 87.8597 131 88.5M186 89.5H183M183 89.5L181 90L178.734 90.5L178.394 90.6243C176.8 91.2073 175.164 91.6672 173.5 92L171.5 92.5L169 93L168.94 93.0149C167.652 93.3371 166.328 93.5 165 93.5H161.5H157.5H156.541C154.517 93.5 152.497 93.3328 150.5 93L146.5 92.5L144.5 92L141 91.5L139.596 91.2193C138.869 91.0737 138.164 90.8319 137.5 90.5C136.836 90.1681 136.131 89.9263 135.404 89.7807L134 89.5L131 88.5M183 89.5L190.75 90M131 88.5L132 89.5L133.5 91L134.476 92.2202C135.157 93.0708 135.929 93.8434 136.78 94.5238C137.591 95.1728 138.468 95.7342 139.398 96.1988L141 97L145 98.5L148.5 99.5C150.163 99.8325 151.854 100 153.55 100H154.5H157.5H160H163H167.5H168.459C170.483 100 172.503 99.8328 174.5 99.5L174.775 99.4214C176.92 98.8085 179.004 97.9979 181 97L182.032 96.3808C183.001 95.7991 183.849 95.0349 184.527 94.1304L184.629 93.9944C184.876 93.6655 185.093 93.315 185.276 92.9472L185.89 91.7207C185.962 91.5756 186 91.4155 186 91.2533C186 90.8034 186.288 90.404 186.715 90.2618L187.224 90.0919C187.407 90.031 187.598 90 187.791 90H189.5H190.75" stroke="#1A1919" stroke-width="2"/>
<g opacity="0.8">
<mask id="path-5-inside-1_1_12" fill="white">
<path d="M162 75.5C162 75.1504 161.919 74.8117 161.77 74.5426C161.621 74.2734 161.414 74.0907 161.185 74.0259C160.956 73.9612 160.719 74.0185 160.515 74.188C160.311 74.3574 160.153 74.6284 160.069 74.954C159.984 75.2797 159.977 75.6395 160.051 75.9715C160.124 76.3034 160.272 76.5865 160.47 76.7718C160.667 76.9572 160.902 77.0332 161.133 76.9867C161.364 76.9401 161.577 76.774 161.735 76.517L161 75.5H162Z"/>
</mask>
<path d="M162 75.5C162 75.1504 161.919 74.8117 161.77 74.5426C161.621 74.2734 161.414 74.0907 161.185 74.0259C160.956 73.9612 160.719 74.0185 160.515 74.188C160.311 74.3574 160.153 74.6284 160.069 74.954C159.984 75.2797 159.977 75.6395 160.051 75.9715C160.124 76.3034 160.272 76.5865 160.47 76.7718C160.667 76.9572 160.902 77.0332 161.133 76.9867C161.364 76.9401 161.577 76.774 161.735 76.517L161 75.5H162Z" fill="#1A1919" stroke="black" stroke-width="2" mask="url(#path-5-inside-1_1_12)"/>
</g>
<ellipse cx="133.5" cy="58.5" rx="7.5" ry="9.5" fill="#1A1919"/>
<ellipse cx="175" cy="57.5" rx="6" ry="8.5" fill="#1A1919"/>
<g filter="url(#filter2_n_1_12)">
<path d="M102 125.5L97.8966 124.621C95.9709 124.208 94.007 124 92.0377 124C89.0322 124 86.0464 124.485 83.1952 125.435L80 126.5L73 129.5L67 132L64.0734 132.976C63.0291 133.324 62.0359 133.809 61.12 134.42C59.0856 135.776 56.6953 136.5 54.2502 136.5H53.2322C51.0996 136.5 48.9893 136.067 47.0291 135.227L46.5 135L43.4281 134.078C42.1495 133.695 40.8219 133.5 39.487 133.5H38.2734C37.4313 133.5 36.5961 133.651 35.8077 133.947L34.8375 134.311C33.6638 134.751 32.7207 135.652 32.2269 136.804C31.7604 137.892 31.7321 139.119 32.148 140.228L32.6658 141.609C32.8879 142.201 33.1772 142.766 33.528 143.292L34.0752 144.113C34.6902 145.035 35.3949 145.895 36.1789 146.679L39 149.5L41.5 151.5M41.5 151.5L44 153.5L47.081 155.896C48.0235 156.629 49.0516 157.245 50.1427 157.73L51.1724 158.188C52.3774 158.723 53.6813 159 55 159M41.5 151.5L41.1234 155.266C41.0414 156.086 41.0521 156.917 41.1543 157.734C41.3805 159.544 42.055 161.277 43.1148 162.761C43.7021 163.583 44.4002 164.32 45.1893 164.951L46.5 166L49.2632 168.456C50.4192 169.484 51.6556 170.417 52.9604 171.248L56.5 173.5L59.1098 175.066C60.6996 176.02 62.3772 176.819 64.1196 177.453L67 178.5L71 180L71.5365 180.134C73.8368 180.709 76.199 181 78.5701 181H79H83.5H85.3851C87.1248 181 88.8611 180.843 90.5727 180.532L93.5 180L98.5 178.5L100.696 177.621C102.56 176.876 104.342 175.939 106.012 174.825L108 173.5C110.641 171.189 112.807 168.385 114.377 165.246L115 164L116 162.5" stroke="#1A1919" stroke-width="2"/>
</g>
<g filter="url(#filter3_n_1_12)">
<path d="M157.017 130.591L148.58 161.938H145.818L154.256 130.591H157.017ZM153.903 148.795V146.75L170.369 138.364V141.636L157.738 147.722L157.84 147.517V148.028L157.738 147.824L170.369 153.909V157.182L153.903 148.795Z" fill="#1A1919"/>
</g>
</g>
<defs>
<filter id="filter0_n_1_12" x="4" y="4" width="206" height="207.5" filterUnits="userSpaceOnUse" color-interpolation-filters="sRGB">
<feFlood flood-opacity="0" result="BackgroundImageFix"/>
<feBlend mode="normal" in="SourceGraphic" in2="BackgroundImageFix" result="shape"/>
<feTurbulence type="fractalNoise" baseFrequency="2 2" stitchTiles="stitch" numOctaves="3" result="noise" seed="7925" />
<feColorMatrix in="noise" type="luminanceToAlpha" result="alphaNoise" />
<feComponentTransfer in="alphaNoise" result="coloredNoise1">
<feFuncA type="discrete" tableValues="1 1 1 1 1 1 1 1 1 1 1 1 1 1 1 1 1 1 1 1 1 1 1 1 1 1 1 1 1 1 1 1 1 1 1 1 1 1 1 1 1 1 1 1 1 1 1 1 1 1 1 0 0 0 0 0 0 0 0 0 0 0 0 0 0 0 0 0 0 0 0 0 0 0 0 0 0 0 0 0 0 0 0 0 0 0 0 0 0 0 0 0 0 0 0 0 0 0 0 0 "/>
</feComponentTransfer>
<feComposite operator="in" in2="shape" in="coloredNoise1" result="noise1Clipped" />
<feFlood flood-color="rgba(0, 0, 0, 0.25)" result="color1Flood" />
<feComposite operator="in" in2="noise1Clipped" in="color1Flood" result="color1" />
<feMerge result="effect1_noise_1_12">
<feMergeNode in="shape" />
<feMergeNode in="color1" />
</feMerge>
</filter>
<filter id="filter1_g_1_12" x="0" y="0" width="214" height="215.5" filterUnits="userSpaceOnUse" color-interpolation-filters="sRGB">
<feFlood flood-opacity="0" result="BackgroundImageFix"/>
<feBlend mode="normal" in="SourceGraphic" in2="BackgroundImageFix" result="shape"/>
<feTurbulence type="fractalNoise" baseFrequency="0.25 0.25" numOctaves="3" seed="1475" />
<feDisplacementMap in="shape" scale="8" xChannelSelector="R" yChannelSelector="G" result="displacedImage" width="100%" height="100%" />
<feMerge result="effect1_texture_1_12">
<feMergeNode in="displacedImage"/>
</feMerge>
</filter>
<filter id="filter2_n_1_12" x="30.8553" y="123" width="85.9767" height="59" filterUnits="userSpaceOnUse" color-interpolation-filters="sRGB">
<feFlood flood-opacity="0" result="BackgroundImageFix"/>
<feBlend mode="normal" in="SourceGraphic" in2="BackgroundImageFix" result="shape"/>
<feTurbulence type="fractalNoise" baseFrequency="0.25 0.25" stitchTiles="stitch" numOctaves="3" result="noise" seed="2728" />
<feColorMatrix in="noise" type="luminanceToAlpha" result="alphaNoise" />
<feComponentTransfer in="alphaNoise" result="coloredNoise1">
<feFuncA type="discrete" tableValues="1 1 1 1 1 1 1 1 1 1 1 1 1 1 1 1 1 1 1 1 1 1 1 1 1 1 1 1 1 1 1 1 1 1 1 1 1 1 1 1 1 1 1 1 1 1 1 1 1 1 1 0 0 0 0 0 0 0 0 0 0 0 0 0 0 0 0 0 0 0 0 0 0 0 0 0 0 0 0 0 0 0 0 0 0 0 0 0 0 0 0 0 0 0 0 0 0 0 0 0 "/>
</feComponentTransfer>
<feComposite operator="in" in2="shape" in="coloredNoise1" result="noise1Clipped" />
<feFlood flood-color="rgba(0, 0, 0, 0.25)" result="color1Flood" />
<feComposite operator="in" in2="noise1Clipped" in="color1Flood" result="color1" />
<feMerge result="effect1_noise_1_12">
<feMergeNode in="shape" />
<feMergeNode in="color1" />
</feMerge>
</filter>
<filter id="filter3_n_1_12" x="145.818" y="130.591" width="24.5504" height="31.3466" filterUnits="userSpaceOnUse" color-interpolation-filters="sRGB">
<feFlood flood-opacity="0" result="BackgroundImageFix"/>
<feBlend mode="normal" in="SourceGraphic" in2="BackgroundImageFix" result="shape"/>
<feTurbulence type="fractalNoise" baseFrequency="2 2" stitchTiles="stitch" numOctaves="3" result="noise" seed="9824" />
<feColorMatrix in="noise" type="luminanceToAlpha" result="alphaNoise" />
<feComponentTransfer in="alphaNoise" result="coloredNoise1">
<feFuncA type="discrete" tableValues="1 1 1 1 1 1 1 1 1 1 1 1 1 1 1 1 1 1 1 1 1 1 1 1 1 1 1 1 1 1 1 1 1 1 1 1 1 1 1 1 1 1 1 1 1 1 1 1 1 1 1 0 0 0 0 0 0 0 0 0 0 0 0 0 0 0 0 0 0 0 0 0 0 0 0 0 0 0 0 0 0 0 0 0 0 0 0 0 0 0 0 0 0 0 0 0 0 0 0 0 "/>
</feComponentTransfer>
<feComposite operator="in" in2="shape" in="coloredNoise1" result="noise1Clipped" />
<feFlood flood-color="rgba(0, 0, 0, 0.25)" result="color1Flood" />
<feComposite operator="in" in2="noise1Clipped" in="color1Flood" result="color1" />
<feMerge result="effect1_noise_1_12">
<feMergeNode in="shape" />
<feMergeNode in="color1" />
</feMerge>
</filter>
</defs>
</svg>
