<svg xmlns="http://www.w3.org/2000/svg" width="192" height="58" fill="none" viewBox="28 100 192 58">
  <path d="m60.51 150.7 4.85-2.65v1.66l-3.3 1.69 3.3 1.81v1.57l-4.85-2.65v-1.43z" fill="#fff"/>
  <path d="m66.42 146.8h6.24v1.59h-2.29v6.75h-1.66v-6.75h-2.29v-1.59z" fill="#fff"/>
  <path d="m74.28 148.6h1.51v0.85c0.5-0.6 0.98-0.93 1.82-0.93h0.82v1.52h-1.14c-0.91 0-1.46 0.64-1.46 1.76v3.31h-1.55v-6.51z" fill="#fff"/>
  <path d="m82.01 148.6v3.76c0 1.1 0.37 1.44 1.22 1.44s1.28-0.44 1.28-1.58v-3.62h1.55v6.51h-1.45v-0.75c-0.46 0.59-0.94 0.84-1.8 0.84-1.57 0-2.35-0.83-2.35-2.74v-3.86h1.55z" fill="#fff"/>
  <path d="m90.01 153.2c0.07 0.54 0.51 0.78 1.31 0.78h0.09c0.93 0 1.27-0.22 1.27-0.75 0-0.46-0.29-0.64-1.05-0.74l-1.14-0.15c-1.22-0.16-1.93-0.86-1.93-1.84 0-1.22 0.97-1.97 2.71-1.97h0.25c1.64 0 2.59 0.8 2.64 2.02h-1.53c-0.07-0.49-0.51-0.76-1.26-0.76h-0.09c-0.79 0-1.2 0.27-1.2 0.76 0 0.41 0.28 0.62 0.98 0.72l1.19 0.17c1.32 0.2 2.01 0.79 2.01 1.84 0 1.25-1.03 2-2.89 2h-0.15c-1.64 0-2.59-0.8-2.69-2.08h1.48z" fill="#fff"/>
  <path d="m97.21 150h-1.2v-1.4h1.25v-1.9h1.52v1.9h2.34v1.4h-2.31v2.75c0 0.7 0.32 1 1.02 1h1.29v1.4h-1.46c-1.55 0-2.45-0.9-2.45-2.4v-2.75z" fill="#fff"/>
  <path d="m110.7 150h-1.2v-1.4h1.25v-1.9h1.52v1.9h2.34v1.4h-2.31v2.75c0 0.7 0.32 1 1.02 1h1.29v1.4h-1.46c-1.55 0-2.45-0.9-2.45-2.4v-2.75z" fill="#fff"/>
  <path d="m116.8 146.7h1.52v2.65c0.46-0.55 0.99-0.83 1.8-0.83 1.5 0 2.28 0.93 2.28 2.73v3.86h-1.55v-3.71c0-1.05-0.34-1.52-1.19-1.52s-1.31 0.6-1.31 1.74v3.49h-1.55v-8.41z" fill="#fff"/>
  <path d="m123.6 151.2c0-1.75 1.05-2.75 2.75-2.75h0.1c1.7 0 2.7 1 2.7 2.75v1.1h-4.05v0.2c0 0.95 0.5 1.45 1.35 1.45h0.05c0.8 0 1.2-0.4 1.25-0.85h1.4c-0.2 1.35-1.2 2.15-2.75 2.15h-0.1c-1.7 0-2.7-1-2.7-2.75v-1.3zm4.1-0.15c-0.05-0.85-0.5-1.3-1.3-1.3h-0.05c-0.8 0-1.25 0.5-1.3 1.3h2.65z" fill="#fff"/>
  <path d="m136.8 148.6h1.5v0.7c0.5-0.6 1.05-0.85 1.9-0.85 1.6 0 2.65 1.05 2.65 2.85v1.1c0 1.8-1.05 2.85-2.65 2.85-0.75 0-1.3-0.25-1.8-0.8v3.15h-1.6v-9zm2.95 5.25c0.95 0 1.5-0.65 1.5-1.85v-0.35c0-1.2-0.55-1.85-1.5-1.85s-1.5 0.65-1.5 1.85v0.35c0 1.2 0.55 1.85 1.5 1.85z" fill="#fff"/>
  <path d="m144.7 148.6h1.5v0.85c0.5-0.6 0.98-0.93 1.83-0.93h0.82v1.52h-1.14c-0.91 0-1.46 0.64-1.46 1.76v3.31h-1.55v-6.51z" fill="#fff"/>
  <path d="m150.6 151.2c0-1.75 1.05-2.75 2.8-2.75h0.2c1.75 0 2.8 1 2.8 2.75v1.3c0 1.75-1.05 2.75-2.8 2.75h-0.2c-1.75 0-2.8-1-2.8-2.75v-1.3zm2.85 2.65c0.95 0 1.4-0.65 1.4-1.85v-0.35c0-1.2-0.5-1.8-1.4-1.8h-0.05c-0.95 0-1.4 0.6-1.4 1.8v0.35c0 1.2 0.5 1.85 1.4 1.85h0.05z" fill="#fff"/>
  <path d="m158.1 151.2c0-1.7 1.05-2.7 2.75-2.7h0.1c1.65 0 2.6 0.9 2.7 2.4h-1.5c-0.1-0.7-0.55-1.1-1.3-1.1h-0.05c-0.95 0-1.4 0.65-1.4 1.8v0.45c0 1.15 0.5 1.8 1.4 1.8h0.05c0.8 0 1.2-0.4 1.3-1.2h1.5c-0.1 1.55-1.1 2.5-2.75 2.5h-0.1c-1.75 0-2.75-1-2.75-2.75v-1.2h0.05z" fill="#fff"/>
  <path d="m165.1 151.2c0-1.75 1.05-2.75 2.75-2.75h0.1c1.7 0 2.7 1 2.7 2.75v1.1h-4.05v0.2c0 0.95 0.5 1.45 1.35 1.45h0.05c0.8 0 1.2-0.4 1.25-0.85h1.4c-0.2 1.35-1.2 2.15-2.75 2.15h-0.1c-1.7 0-2.7-1-2.7-2.75v-1.3zm4.15-0.15c-0.05-0.85-0.5-1.3-1.3-1.3h-0.05c-0.8 0-1.25 0.5-1.3 1.3h2.65z" fill="#fff"/>
  <path d="m173.9 153.2c0.07 0.54 0.51 0.78 1.31 0.78h0.09c0.93 0 1.27-0.22 1.27-0.75 0-0.46-0.29-0.64-1.05-0.74l-1.14-0.15c-1.22-0.16-1.93-0.86-1.93-1.84 0-1.22 0.97-1.97 2.71-1.97h0.25c1.64 0 2.59 0.8 2.64 2.02h-1.53c-0.07-0.49-0.51-0.76-1.26-0.76h-0.09c-0.79 0-1.2 0.27-1.2 0.76 0 0.41 0.28 0.62 0.98 0.72l1.19 0.17c1.32 0.2 2.01 0.79 2.01 1.84 0 1.25-1.03 2-2.89 2h-0.15c-1.64 0-2.59-0.8-2.69-2.08h1.48z" fill="#fff"/>
  <path d="m181.3 153.2c0.07 0.54 0.51 0.78 1.31 0.78h0.09c0.93 0 1.27-0.22 1.27-0.75 0-0.46-0.29-0.64-1.05-0.74l-1.14-0.15c-1.22-0.16-1.93-0.86-1.93-1.84 0-1.22 0.97-1.97 2.71-1.97h0.25c1.64 0 2.59 0.8 2.64 2.02h-1.53c-0.07-0.49-0.51-0.76-1.26-0.76h-0.09c-0.79 0-1.2 0.27-1.2 0.76 0 0.41 0.28 0.62 0.98 0.72l1.19 0.17c1.32 0.2 2.01 0.79 2.01 1.84 0 1.25-1.03 2-2.89 2h-0.15c-1.64 0-2.59-0.8-2.69-2.08h1.48z" fill="#fff"/>
  <path d="m187.1 153.2 3.3-1.81-3.3-1.69v-1.66l4.29 2.35v1.9l-4.29 2.48v-1.57z" fill="#fff"/>
  <path d="m29.89 106.8h10.39c6.94 0 9.73 2.89 9.73 8.89v0.55c0 4.05-1.9 6.45-4.89 7.6l4.89 11.19h-6.29l-4.54-10.59h-3.7v10.59h-5.59v-28.23zm9.89 12.69c3.04 0 4.04-1.3 4.04-3.9v-0.25c0-2.5-1.2-3.35-4.04-3.35h-4.4v7.5h4.4z" fill="#fff"/>
  <path d="m54.46 107h16.59v5.04h-11.1v6.65h9.55v4.7h-9.55v6.69h11.65v4.9h-17.14v-27.98z" fill="#fff"/>
  <path d="m83.04 106.8h7.44l7.64 28.23h-5.64l-1.8-6.74h-7.84l-1.8 6.74h-6.25l8.25-28.23zm6.39 16.79-2.9-11.6-2.99 11.6h5.89z" fill="#fff"/>
  <path d="m101.3 106.8h9.09c7 0 9.8 3.79 9.8 9.89v7.7c0 6.39-3.35 10.59-9.6 10.59h-9.29v-28.18zm8.59 22.88c3.6 0 4.8-2.39 4.8-5.89v-6.5c0-3.4-1.35-5.3-4.9-5.3h-3.09v17.69h3.19z" fill="#fff"/>
  <path d="m150.7 116.6c0-6.89 4.09-10.19 10.39-10.19h0.4c6.3 0 10.24 3.3 10.24 10.19v8.4c0 6.89-3.94 10.29-10.34 10.29h-0.3c-6.4 0-10.39-3.4-10.39-10.29v-8.4zm10.44 13.6c3.55 0 4.9-2.35 4.9-6.2v-6.8c0-3.75-1.35-5.99-4.75-5.99h-0.2c-3.4 0-4.9 2.14-4.9 5.99v6.8c0 3.9 1.5 6.2 4.8 6.2h0.15z" fill="#fff"/>
  <path d="m176.2 106.8h9.1c6.99 0 9.74 3.79 9.74 9.89v7.7c0 6.39-3.35 10.59-9.6 10.59h-9.29v-28.18h0.05zm8.6 22.88c3.59 0 4.79-2.39 4.79-5.89v-6.5c0-3.4-1.35-5.3-4.89-5.3h-3.1v17.69h3.2z" fill="#fff"/>
  <path d="m200.1 107h17.34v5.04h-11.7v6.65h10.35v4.7h-10.35v6.69h12.2v4.9h-17.84v-27.98z" fill="#fff"/>
  <path d="m129.6 101.6-17.34 38.28h5.94l17.64-38.28h-6.24z" fill="url(#paint0_linear_101_217)"/>
  <path d="m134.8 122.9 15.19-12v-3.89l-19.73 13.79c-2 1.4-1.8 4.4 0.3 5.7l19.28 12.29v-4.9l-15.04-10.99z" fill="url(#paint1_linear_101_217)" stroke="url(#paint2_linear_101_217)" stroke-miterlimit="10" stroke-width="1.5"/>
  <defs>
    <linearGradient id="paint0_linear_101_217" x1="112.3" x2="135.9" y1="120.8" y2="120.8" gradientUnits="userSpaceOnUse">
      <stop stop-color="#146634" offset="0"/>
      <stop stop-color="#22B34C" offset="1"/>
    </linearGradient>
    <linearGradient id="paint1_linear_101_217" x1="129" x2="149.8" y1="122.9" y2="122.9" gradientUnits="userSpaceOnUse">
      <stop stop-color="#F6B329" offset="0"/>
      <stop stop-color="#D65128" offset="1"/>
    </linearGradient>
    <linearGradient id="paint2_linear_101_217" x1="128.2" x2="149.8" y1="122.9" y2="122.9" gradientUnits="userSpaceOnUse">
      <stop stop-color="#F6B329" offset="0"/>
      <stop stop-color="#D65128" offset="1"/>
    </linearGradient>
  </defs>
</svg>
