<svg xmlns="http://www.w3.org/2000/svg" width="250" height="250" fill="none" viewBox="0 0 250 250">
  <path d="m104.7 197.2v6.7h-7.76c-4.54 0-7.01 5.28-7.01 7.28 0 1.23 0.56 2.06 1.64 2.06h21.58c1.12 0 1.73-0.94 1.73-2v-14.04h-10.18z" fill="url(#paint0_linear_1319_5619)" stroke="#A54505" stroke-linecap="round" stroke-linejoin="round" stroke-width="1.4"/>
  <path d="m144.9 196.1v7.88h8.34c4.36 0 6.26 4.86 6.26 6.75 0 1.12-0.77 1.82-1.9 1.82h-20.57c-1.06 0-1.83-0.94-1.83-2v-13.27l9.7-1.18z" fill="url(#paint1_linear_1319_5619)" stroke="#A54505" stroke-linecap="round" stroke-linejoin="round" stroke-width="1.4"/>
  <path d="m161.7 130.1c11.18 5.06 22.3 18.11 22.3 34.97 0 5.58-2.67 12.54-7.17 12.54-4.8 0-9.75-7.43-12.08-12.28l-3.05-35.23z" fill="#F0F0F1" stroke="#9E9E9E" stroke-linecap="round" stroke-linejoin="round" stroke-width="1.4"/>
  <path d="m88.18 130.3c-10.19 5.32-21.09 15.33-22.16 33.53-0.35 5.96 2.12 13.39 5.89 13.5 4.96 0.14 8.5-7.21 10.5-11.31l5.77-35.72z" fill="#F0F0F1" stroke="#9E9E9E" stroke-linecap="round" stroke-linejoin="round" stroke-width="1.4"/>
  <path d="m124 37.72c-32.79 0-56.34 25.19-56.34 58.31 0 26.86 20.3 43.98 52.32 43.98h4.88c29.25 0 56.4-17.39 56.4-45.98 0-30.52-23.2-56.31-57.26-56.31z" fill="#F0F0F1" stroke="#9E9E9E" stroke-linecap="round" stroke-linejoin="round" stroke-width="1.4"/>
  <path d="m161.2 131c-10.97 7.9-22.94 11.44-39.1 11.44-14.03 0-25.1-3.38-34.1-8.8-7.97 9.36-12.65 20.16-12.65 30.51 0 18.66 19.62 34.03 47.91 34.03h1.06c22.76-0.28 48.58-15.1 48.58-34.03 0-10.89-4.15-23.15-11.7-33.15z" fill="#F0F0F1" stroke="#9E9E9E" stroke-linecap="round" stroke-linejoin="round" stroke-width="1.4"/>
  <path d="m77.08 161.1c1.03 15.87 18.11 29.35 46.63 29.35h1.06c20.61-0.25 42.34-11.73 47.93-28.32-1.48 17.82-24.48 35.77-48.42 36.05h-1.06c-26.41 0-46.14-13.98-47.81-32.07-0.15-1.71 0.6-3.24 1.67-5.01z" fill="#000" opacity=".2"/>
  <path d="m114.6 86.09c2.79-2.38 5.69-3.38 9.49-3.38 4 0 7.23 1.48 10.18 3.9" stroke="#333" stroke-linecap="round" stroke-linejoin="round" stroke-width="1.7"/>
  <path d="m68.71 82.19 9.33 2.42" stroke="#333" stroke-linecap="round" stroke-linejoin="round" stroke-width="1.7"/>
  <path d="m171 85.19 9.28-2.95" stroke="#333" stroke-linecap="round" stroke-linejoin="round" stroke-width="1.7"/>
  <path d="m96.71 67.16c-10.39 0-18.35 9.2-18.35 19.45 0 9.8 8.17 17.76 17.97 17.76 10.13 0 18.42-8.66 18.42-18.66 0-9.8-8.24-18.55-18.04-18.55z" fill="#fff" stroke="#222" stroke-linecap="round" stroke-linejoin="round" stroke-width="1.7"/>
  <path d="m152.6 67.32c-10.39 0-18.36 9.2-18.36 19.45 0 9.8 8.18 17.76 17.98 17.76 10.13 0 18.42-8.66 18.42-18.66 0-9.8-8.24-18.55-18.04-18.55z" fill="#fff" stroke="#222" stroke-linecap="round" stroke-linejoin="round" stroke-width="1.7"/>
  <path d="m85.09 74.64c-1.98 3.29-3.1 6.13-3.1 10.71 0 8.9 7.23 14.8 15.14 14.8 8.06 0 13.59-7.43 13.59-14.96 0-1.28-0.21-2.45-0.42-3.68l-25.21-6.87z" fill="#000"/>
  <path d="m102.5 86.93c3.58 0 5.21-2.32 4.9-4.64l-9.39-2.05c-1.37 3.48 0.74 6.69 4.49 6.69z" fill="#fff"/>
  <path d="m165.3 74.64-28.28 7.76c-0.99 1.32-1.31 2.69-1.31 4.53 0 8 7.08 13.17 15.09 13.17 8.91 0 15.62-7.17 15.62-15.97 0-3.52-0.32-6.41-1.12-9.49z" fill="#000"/>
  <path d="m157.9 86.09c3.79 0 5.02-3.06 4.06-7.38l-8.64 0.21c-1.69 3.27 0.37 7.17 4.58 7.17z" fill="#fff"/>
  <path d="m90.11 95.14c2 0 2.6-1.32 2.44-2.53-0.22-1.57-1.66-1.89-2.6-1.68-1.77 0.42-2.19 1.79-1.77 2.9 0.36 0.78 1.04 1.31 1.93 1.31z" fill="#fff"/>
  <path d="m145.7 95.14c2 0 2.6-1.32 2.44-2.53-0.22-1.57-1.66-1.89-2.6-1.68-1.77 0.42-2.19 1.79-1.77 2.9 0.36 0.78 1.04 1.31 1.93 1.31z" fill="#fff"/>
  <path d="m102.9 108.3c-5.17 1.22-6.8 4.22-6.59 7.44 0.31 4.43 5.84 8.22 8.64 7.8l2.26-1.16c2.42 4.53 5.53 6.58 9.43 6.58h16.72c4.68 0 7.15-2.89 10.21-6.95l3.17 1.05c3.9-0.73 7.23-5.27 7.02-8.06-0.27-3.48-2.59-5.59-5.82-6.37-5.22-1.33-10.71-3.75-14.16-9.55-2.21-2.85-5.75-4.07-8.75-4.07-4.39 0-6.86 1.69-9.23 5.17-3.69 5.43-8.06 7.12-12.9 8.12z" fill="url(#paint2_linear_1319_5619)" stroke="#D15706" stroke-linecap="round" stroke-linejoin="round" stroke-width="1.4"/>
  <path d="m107.6 120.6c5.54-2.42 10.8-3.36 16.23-3.36 6.82 0 13.64 1.94 20.72 5.05" stroke="#D15706" stroke-linecap="round" stroke-linejoin="round" stroke-width="1.4"/>
  <path d="m114.6 114.6c3.67-1.33 5.67-2.06 8.78-2.06 3.33 0 6.23 0.84 11.29 2.06" stroke="#D15706" stroke-linecap="round" stroke-linejoin="round" stroke-width="1.4"/>
  <path d="m119.5 103.4-0.67 1.48" stroke="#D15706" stroke-linecap="round" stroke-linejoin="round" stroke-width="2.5"/>
  <path d="m129.5 103.7 0.62 1.63" stroke="#D15706" stroke-linecap="round" stroke-linejoin="round" stroke-width="2.5"/>
  <path d="m121.6 154.1-6.56 19.31" stroke="#3D3D3D" stroke-linecap="round" stroke-linejoin="round" stroke-width="2.5"/>
  <path d="m133.8 159-8.75 5.69 8.75 5.36" stroke="#3D3D3D" stroke-linecap="round" stroke-linejoin="round" stroke-width="2.5"/>
  <defs>
    <linearGradient id="paint0_linear_1319_5619" x1="102.4" x2="102.4" y1="197.2" y2="213.3" gradientUnits="userSpaceOnUse">
      <stop stop-color="#FFB338" offset="0"/>
      <stop stop-color="#E66F00" offset="1"/>
    </linearGradient>
    <linearGradient id="paint1_linear_1319_5619" x1="147.4" x2="147.4" y1="196.1" y2="212.5" gradientUnits="userSpaceOnUse">
      <stop stop-color="#FFB338" offset="0"/>
      <stop stop-color="#E66F00" offset="1"/>
    </linearGradient>
    <linearGradient id="paint2_linear_1319_5619" x1="125" x2="125" y1="95.03" y2="129" gradientUnits="userSpaceOnUse">
      <stop stop-color="#FFB338" offset="0"/>
      <stop stop-color="#E66F00" offset="1"/>
    </linearGradient>
  </defs>
</svg>