<svg xmlns="http://www.w3.org/2000/svg" width="250" height="250" fill="none" viewBox="0 0 250 250">
  <path d="m179.8 166.1c-1.34-2.03-4.76 0-6.04 0.84l2.02-3.68-3.31-0.85c-4.7 1.27-6.96-1.54-9.29-2.31l-4.12 7.14 4.91 12.52c3.98-0.56 11.87-4.48 14.9-9.71 1.28-1.96 1.77-2.67 0.93-3.95z" fill="#D1D3D4" stroke="#939598" stroke-linecap="round" stroke-linejoin="round" stroke-width="1.4"/>
  <path d="m33.99 89.06c-3.22 8.46 4.91 23.1 12.97 30.99 0.7 0.77-0.35 0.77-1.05 0.28-2.95-2.1-7.15-5.28-9.88-7.11-2.96-1.89-5.98-1.89-6.97 0.85-1.89 5.56 6.55 18.29 17.13 23 2.73 1.27 5.53 2.19 7.23 2.75 0.82 0.29 0.54 0.85-0.59 0.64-3.09-0.64-7.79-2.47-10.59-2.75-3.28-0.35-4.62 1.68-2.99 5 3.98 8.03 14.57 9.82 26.58 8.54 1.2-0.14 1.13 0.78 0.07 1.2-2.09 0.85-3.99 1.48-5.88 2.59-2.3 1.39-1.41 3.77 2.23 5.31 6.46 2.74 14.9 0.7 21.88-2.51l8.06-22.63-9.78-13.97c-16.79-5.3-27.38-13.99-39.39-31.2-3.77-5.23-7.19-5.3-9.03-0.98z" fill="#D8D8D8" stroke="#939598" stroke-linecap="round" stroke-linejoin="round" stroke-width="1.4"/>
  <path d="m215.1 86.18c-2.19-1.11-4.53 0.99-7.01 4.52-11.24 16.27-24.14 26.94-37.92 31.32l-7.78 9.77 3.84 27.16c6.11 2.81 14.42 3.3 20.13 0.95 3.63-1.44 3.84-4.18 0.82-4.95-1.38-0.36-2.73-0.64-3.79-1.2-1.2-0.66-0.64-1.44 0.56-1.3 9.07 0.92 20.01-3.53 25-9.72 2.55-3.25 0.14-6.49-3.85-5.09-1.83 0.7-4.95 1.69-8.79 2.32-0.83 0.15-0.96-0.63-0.2-0.9 10.87-4.35 21.08-15.85 23.64-23.59 1.45-4.71-1.35-6.06-5.26-3.66-3.28 2.04-6.7 5.15-11.53 8.26-0.83 0.56-1.39 0-0.56-0.85 8.99-8.97 15.27-22.19 14.07-29.61-0.36-1.96-0.64-3-1.37-3.43z" fill="#D8D8D8" stroke="#939598" stroke-linecap="round" stroke-linejoin="round" stroke-width="1.4"/>
  <path d="m124.3 37.83h-0.18c-31.57 0-55.44 22.55-58 56-2.27 31.28 20.49 48.41 57.79 48.41h0.14c36 0 56.93-19.17 57.49-47.43 0.63-30.98-23.1-56.98-57.24-56.98z" fill="#D8D8D8" stroke="#939598" stroke-linecap="round" stroke-linejoin="round" stroke-width="1.4"/>
  <path d="m162.9 143.8 5.71 18.07c1.44 6.09-0.49 14.34-6.48 19.89l-6.08 12.23c-8.99 3.49-18.98 3.98-31.79 3.98h-0.17c-11.08 0-20.14-1.61-28.65-5.99l-9.33-12.2c-5.5-6.86-5.36-14.68-1.1-25.52l3.84-19.1c9.26 5.49 20.06 7.06 34.95 7.06h0.14c12.98 0 24.19-2.24 34.26-8.23l4.7 9.81z" fill="#E6E7E8" stroke="#A7A9AC" stroke-linecap="round" stroke-linejoin="round" stroke-width="1.4"/>
  <path d="m113.6 87.31c0 9.61-7.69 16.3-15.58 16.3-9.2 0-15.12-8-15.12-16.3 0-8.97 7.22-16.39 15.28-16.39 8.99 0 15.42 8 15.42 16.39z" fill="#809BAF" stroke="#D0D2D3" stroke-miterlimit="10" stroke-width="1.4"/>
  <path d="m109.9 87.41c0 7.35-5.99 13-12.1 13-7.29 0-11.9-6.47-11.9-13.07 0-7.14 5.85-13.13 12.31-13.13 7.36 0 11.69 6.9 11.69 13.2z" fill="url(#paint0_linear_486_1038)" stroke="#231F20" stroke-miterlimit="10" stroke-width="1.4"/>
  <path d="m97.81 83.06c0 2.85-2.47 4.95-4.8 4.95-2.95 0-4.3-2.6-4.3-4.81 0-2.74 2.42-4.89 4.61-4.89 2.8 0 4.49 2.36 4.49 4.75z" fill="#fff"/>
  <path d="m107.8 85.62c0 1.79-1.6 3.15-3.04 3.15-2.06 0-3.02-1.86-3.02-3.36 0-1.96 1.7-3.38 3.08-3.38 1.99 0 2.98 1.83 2.98 3.59z" fill="#fff"/>
  <path d="m96.81 91.01-3.7 1.2 3.7 0.92 1 4.78 1.63-5.06 5.19-1.84-4.98-1.82-1.84-6.48-1 6.48v1.82z" fill="url(#paint1_linear_486_1038)" stroke="#F7EC97" stroke-miterlimit="10" stroke-width="1.4"/>
  <path d="m104.3 94.01-1.57 1.18 2.12-0.14 1.24 1.76 0.21-2.31 2.09-2.21-2.3 0.21-1.3-2.04-0.49 2.39v1.16z" fill="url(#paint2_linear_486_1038)" stroke="#809BAF" stroke-miterlimit="10" stroke-width="1.4"/>
  <path d="m134.9 87.31c0 9.61 7.69 16.3 15.58 16.3 9.19 0 16.1-8 16.1-16.3 0-8.97-7.69-16.39-15.75-16.39-8.99 0-15.93 8-15.93 16.39z" fill="#809BAF" stroke="#D0D2D3" stroke-miterlimit="10" stroke-width="1.4"/>
  <path d="m138.6 87.41c0 7.35 6.4 13 12.51 13 7.29 0 13.07-6.47 13.07-13.07 0-7.14-6.46-13.13-12.93-13.13-7.36 0-12.65 6.9-12.65 13.2z" fill="url(#paint3_linear_486_1038)" stroke="#231F20" stroke-miterlimit="10" stroke-width="1.4"/>
  <path d="m148.6 82.71c0 2.7-2.33 4.46-4.1 4.46-2.43 0-3.74-2.1-3.74-3.97 0-2.47 2.12-4.28 3.89-4.28 2.41 0 3.95 1.89 3.95 3.79z" fill="#fff"/>
  <path d="m158.5 85.62c0 1.79-1.6 3.15-3.04 3.15-2.06 0-3.02-1.86-3.02-3.36 0-1.96 1.7-3.38 3.08-3.38 1.99 0 2.98 1.83 2.98 3.59z" fill="#fff"/>
  <path d="m148.6 90.11-7.46-1.27 6.63 2.46 1.84 6.47 1.57-6.12 6.59-3.22-6.45 0.07 2.19-6.47-3.15 5.77-1.76 2.31z" fill="url(#paint4_linear_486_1038)" stroke="#F7EC97" stroke-miterlimit="10" stroke-width="1.4"/>
  <path d="m156 92.21-1.56 1.42 2.48-0.5 1.38 1.5-0.07-2.42 1.57-2.1-2.19 0.62-1.2-1.61-0.41 2.18v0.91z" fill="url(#paint5_linear_486_1038)" stroke="#809BAF" stroke-miterlimit="10" stroke-width="1.4"/>
  <path d="m118 95.4c-3.99 3.21-5.26 8.51-12.08 11.69-3.29 1.51-3.5 6.84-1.01 10.62 6.02 8.53 7.33 24.53 19 24.53h0.28c10.66 0 12.95-15.23 19.71-24.85 2.8-4 3.22-10.3-1.29-11.14-6.89-1.35-9.55-13.12-19.4-12.49-2.19 0.14-3.76 0.56-5.21 1.64z" fill="#F58220" stroke="#A75000" stroke-miterlimit="10" stroke-width="1.4"/>
  <path d="m106.6 114.4c2.49 2.67 6.05 9 8.61 14.85 2.19 5.17 5.08 7.13 8.75 7.13h0.14c4.8 0 7.15-4.26 9.21-9.68 2.19-5.85 4.82-10.63 8.8-13.74 1.64-1.29 1.5-3.25-1.39-2.69-4.73 0.98-10.62-5.19-16.27-5.19-5.7 0-7.47 7.12-13.86 7.12-3.42 0-5.35 0.56-3.99 2.2z" fill="#7A2306" stroke="#42150A" stroke-miterlimit="10" stroke-width="1.4"/>
  <path d="m118.7 124.8c-0.7-4.78-0.21-12.67 5.99-12.67 6.43 0 6.22 9.44 5.94 13.89l-1.57 2.1-8.99-0.14-1.37-3.18z" fill="#561208"/>
  <path d="m116.7 128.9c1.2-3.02 4.19-4.21 7.41-4.21 3.77 0 7.08 2.03 8.29 4.99l-1.28 3.95-3.98 2.6h-4.08l-4.51-2.6-1.85-4.73z" fill="#F3795B" stroke="#D3633D" stroke-miterlimit="10" stroke-width="1.4"/>
  <path d="m118.6 101.4 0.49-0.21c0.49-0.29 0.91-1.13 0.18-1.41-0.89-0.35-1.65 0.35-1.58 1.27 0 0.7 0.42 0.7 0.91 0.35z" fill="#A75000" stroke="#A75000" stroke-miterlimit="10" stroke-width="1.4"/>
  <path d="m129.1 102.7 0.42-0.35c0.36-0.35 0.57-1.14-0.14-1.28-0.92-0.22-1.34 0.63-1.06 1.35 0.14 0.49 0.49 0.56 0.78 0.28z" fill="#A75000" stroke="#A75000" stroke-miterlimit="10" stroke-width="1.4"/>
  <path d="m145.6 58.41c5.31-0.84 10.73 0.88 14.5 4.8" stroke="#000" stroke-linecap="round" stroke-linejoin="round" stroke-width="2.8"/>
  <path d="m90.06 63.21c4.26-4.13 8.45-5.64 13.58-4.59" stroke="#000" stroke-linecap="round" stroke-linejoin="round" stroke-width="2.8"/>
  <path d="m98.19 183.4c0.14 3.71 2.33 6.06 5.52 7.41l-8.06 7.14-2.49-9.77 2.96-2.81 2.07-1.97z" fill="#F58220" stroke="#A75000" stroke-miterlimit="10" stroke-width="1.4"/>
  <path d="m72.55 187.7c1.06-2.28 4.48-0.92 5.17-2.31 0.99-2.1 0.71-6.12 4.69-5.49 2.2 0.35 3.33 2.38 4.78 1.17 1.57-1.38 2.13-3.34 4.93-2.3 3.63 1.41 6.29 14.85 5.3 20.41-0.76 4.52-3.78 5.63-6.81 4.71-5.42-1.75-19.95-11.79-18.06-16.19z" fill="#F58220" stroke="#A75000" stroke-miterlimit="10" stroke-width="1.4"/>
  <path d="m152.8 187.1-2.49 0.49-6.14 2.53 9.99 8.82 1.45-7.71-2.81-4.13z" fill="#F58220" stroke="#A75000" stroke-miterlimit="10" stroke-width="1.4"/>
  <path d="m177.4 187c-2.13-1.21-4.08 0.89-5.21-1.21-1.38-2.74-1.17-6.52-4.43-5.82-1.95 0.49-2.78 2.17-5.58 1.19-2.09-1.21-3.47-3.42-5.66-0.68-2.96 3.92-4.91 14.31-2.89 20.71 1.06 3.64 4.63 3.85 7.88 2.24 5.26-2.67 19.45-14.16 15.89-16.43z" fill="#F58220" stroke="#A75000" stroke-miterlimit="10" stroke-width="1.4"/>
  <path d="m120 154.1-4.73 14.12-0.21 0.56 0.07-0.14-0.07 0.14 0.07-0.14-0.07 0.14-0.03 0.07 0.03-0.07-0.99 4.71" stroke="#3F3B3A" stroke-linecap="round" stroke-linejoin="round" stroke-width="2.8"/>
  <path d="m133.9 159-8.85 6.03 8.71 5.11" stroke="#3F3B3A" stroke-linecap="round" stroke-linejoin="round" stroke-width="2.8"/>
  <path d="m150.9 183.1c0 5.85-4.86 6.8-7.75 6.8-1.77 0-5.06 1.04-18.9 1.04-12.51 0-23.1-1.54-25.12-5.73-0.82-1.9-1.03-2.11-1.03-0.42 0 4.09 3.63 6.43 5.01 6.92 4.99 1.79 10.63 2.64 20.79 2.64h0.14c10.66 0 15.85-1.21 21.7-3.56 2.96-1.18 5.85-3.78 5.85-7.2 0-1.43-0.69-1.85-0.69-0.49z" fill="#000" opacity=".2"/>
  <path d="m52.76 56.45c2.3 0.7 4.16 4.16 3.95 8.29-0.28 5.43-4.54 9.49-3.95 11.38 0.76 2.53 4.46 0 5.77-2.88 0.56-1.28 1.76 0.89 1.2 5.09-0.49 3.78-3.02 8.8-3.02 8.8-6.46 0-11.59-5.02-11.45-10.32 0.14-4.58 1.77-8.77 3.15-10.49 0.49 1.79 0.63 2.77 1.76 2.49 1.86-0.49 3.64-6.72 1.86-11.88-0.35-1.01 0-0.73 0.73-0.48z" fill="url(#paint6_linear_486_1038)" stroke="#B56C07" stroke-linecap="round" stroke-linejoin="round" stroke-width="1.4"/>
  <path d="m72.21 44.29c0.49-0.56 0.49-0.07 0.35 0.78-0.73 3.35-2.5 4.96-3.23 10.88-0.42 2.99-2.28 1.13-2.7-2.72-0.49-4.52 2-6.31 5.58-8.94z" fill="url(#paint7_linear_486_1038)" stroke="#539DC6" stroke-linecap="round" stroke-linejoin="round" stroke-width="1.4"/>
  <path d="m195.8 66.39c0.82-1.18 1.55-0.33 0.82 1.77-1.57 4.59-0.9 6.13 1.29 7.88s2.48 3.37 1.55 7.36c-1.2 5.23-8.52 8.72-10.71 9.21-0.99 0.21-0.33-0.56 0.73-1.67 2.49-2.67 4.26-5.88 1.74-9.73-2.8-4.26 0-8.98 4.58-14.82z" fill="url(#paint8_linear_486_1038)" stroke="#B56C07" stroke-linecap="round" stroke-linejoin="round" stroke-width="1.4"/>
  <path d="m210.2 67.02c0.66-1.18 1.01-0.89 1.08 0.29 0.28 2.74-2.42 5.72-4.19 7.51-0.89 0.92-0.61-0.5-0.12-2.07 0.73-2.42 1.69-3.84 3.23-5.73z" fill="url(#paint9_linear_486_1038)" stroke="#539DC6" stroke-linecap="round" stroke-linejoin="round" stroke-width="1.4"/>
  <path d="m34.91 154.4c2.42 0.63 4.26 3.3 4.54 5.72 0.36 3.32 1.63 8.12 7.72 9.3 3.49 0.7 4.48 1.12 4.06 1.89-0.57 0.98-8.21 1.4-10.77-0.28-3.41-2.24-4.07-7.02-2.69-10.55 0.99-2.71-1.94-4.57-3.14-5.87-0.49-0.49-0.21-0.35 0.28-0.21z" fill="url(#paint10_linear_486_1038)" stroke="#B56C07" stroke-linecap="round" stroke-linejoin="round" stroke-width="1.4"/>
  <path d="m57.36 183.6c-1.34 4.35 1.69 10.82 8.91 14.34 1.27 0.66 0.28-0.35-0.55-1.43-3.63-4.38-6.46-8.48-7.59-12.26-0.42-1.42-0.49-1.35-0.77-0.65z" fill="url(#paint11_linear_486_1038)" stroke="#539DC6" stroke-linecap="round" stroke-linejoin="round" stroke-width="1.4"/>
  <path d="m60.65 169.7c0.42-0.28 2.61 0.84 3.17 3.01 0.42 1.51-0.95 0.73-2.08-0.48-1.51-1.69-1.72-2.32-1.09-2.53z" fill="url(#paint12_linear_486_1038)" stroke="#539DC6" stroke-linecap="round" stroke-linejoin="round" stroke-width="1.4"/>
  <path d="m203.9 157.6c3.42-0.42 7.4-2.21 9.39-6.79 0.66-1.65 0.59-0.29 0.07 1.45-1.24 4.13-5.29 5.74-8.32 5.95-1.83 0.07-2.04-0.49-1.14-0.61z" fill="url(#paint13_linear_486_1038)" stroke="#539DC6" stroke-linecap="round" stroke-linejoin="round" stroke-width="1.4"/>
  <path d="m203.7 166c1.7-0.42 4.22-0.91 5.72-2.39 1.06-1.11 0.17-0.83-1.4-0.48-2.19 0.56-3.12 1.19-4.18 2.37-0.76 0.85-0.76 0.71-0.14 0.5z" fill="url(#paint14_linear_486_1038)" stroke="#B56C07" stroke-linecap="round" stroke-linejoin="round" stroke-width="1.4"/>
  <path d="m197.3 170.1c1.38-1.12 1.59-0.07 0.21 1.89-3.18 4.52-0.73 6.69 0.16 8.58 1.44 3.21 0.2 6.64-3.5 10.63-3.49 3.78-9.06 6.37-10.76 6.72-1.38 0.28-0.72-0.64 1.12-2.15 4.26-3.46 6.09-6.91 4.71-8.7-1.45-0.98-3.22-1.47-3.22-3.71 0-2.71 2.35-4.74 3.48-5.17 0.42 1.5 0.91 2.38 1.9 1.89 1.57-0.88 0.77-5.88 5.9-9.98z" fill="url(#paint15_linear_486_1038)" stroke="#B56C07" stroke-linecap="round" stroke-linejoin="round" stroke-width="1.4"/>
  <path d="m208.6 175.5-1.86 1.89" stroke="#B56C07" stroke-linecap="round" stroke-linejoin="round" stroke-width="1.4"/>
  <path d="m57.22 128.2c1.45 1.69 3.22 4.07 6.74 6.67 1.27 0.95 0.28 0.81-0.85 0.32-2.95-1.28-6.07-3.7-6.8-6.2-0.49-1.51 0.24-1.58 0.91-0.79z" fill="#A7A9AC"/>
  <defs>
    <linearGradient id="paint0_linear_486_1038" x1="97.91" x2="97.91" y1="73.82" y2="100.8" gradientUnits="userSpaceOnUse">
      <stop stop-color="#00021E" offset="0"/>
      <stop stop-color="#073656" offset="1"/>
    </linearGradient>
    <linearGradient id="paint1_linear_486_1038" x1="98.87" x2="98.87" y1="81.71" y2="98.52" gradientUnits="userSpaceOnUse">
      <stop stop-color="#F8ED3A" offset="0"/>
      <stop stop-color="#FEF6C5" offset="1"/>
    </linearGradient>
    <linearGradient id="paint2_linear_486_1038" x1="105.5" x2="105.5" y1="90.19" y2="97.19" gradientUnits="userSpaceOnUse">
      <stop stop-color="#A1D9F8" offset="0"/>
      <stop stop-color="#537696" offset="1"/>
    </linearGradient>
    <linearGradient id="paint3_linear_486_1038" x1="151.4" x2="151.4" y1="73.82" y2="100.8" gradientUnits="userSpaceOnUse">
      <stop stop-color="#00021E" offset="0"/>
      <stop stop-color="#073656" offset="1"/>
    </linearGradient>
    <linearGradient id="paint4_linear_486_1038" x1="149.4" x2="149.4" y1="81.03" y2="98.52" gradientUnits="userSpaceOnUse">
      <stop stop-color="#F8ED3A" offset="0"/>
      <stop stop-color="#FEF6C5" offset="1"/>
    </linearGradient>
    <linearGradient id="paint5_linear_486_1038" x1="157.1" x2="157.1" y1="88.81" y2="95.31" gradientUnits="userSpaceOnUse">
      <stop stop-color="#A1D9F8" offset="0"/>
      <stop stop-color="#537696" offset="1"/>
    </linearGradient>
    <linearGradient id="paint6_linear_486_1038" x1="52.72" x2="52.72" y1="56.14" y2="87.31" gradientUnits="userSpaceOnUse">
      <stop stop-color="#F69320" offset="0"/>
      <stop stop-color="#FFD23B" offset="1"/>
    </linearGradient>
    <linearGradient id="paint7_linear_486_1038" x1="69.62" x2="69.62" y1="43.85" y2="57.83" gradientUnits="userSpaceOnUse">
      <stop stop-color="#A1D9F8" offset="0"/>
      <stop stop-color="#539DC6" offset="1"/>
    </linearGradient>
    <linearGradient id="paint8_linear_486_1038" x1="193.9" x2="193.9" y1="65.71" y2="92.69" gradientUnits="userSpaceOnUse">
      <stop stop-color="#F69320" offset="0"/>
      <stop stop-color="#FFD23B" offset="1"/>
    </linearGradient>
    <linearGradient id="paint9_linear_486_1038" x1="208.9" x2="208.9" y1="66.11" y2="75.28" gradientUnits="userSpaceOnUse">
      <stop stop-color="#A1D9F8" offset="0"/>
      <stop stop-color="#539DC6" offset="1"/>
    </linearGradient>
    <linearGradient id="paint10_linear_486_1038" x1="42.92" x2="42.92" y1="154.2" y2="172.3" gradientUnits="userSpaceOnUse">
      <stop stop-color="#F69320" offset="0"/>
      <stop stop-color="#FFD23B" offset="1"/>
    </linearGradient>
    <linearGradient id="paint11_linear_486_1038" x1="61.45" x2="61.45" y1="182.8" y2="198.3" gradientUnits="userSpaceOnUse">
      <stop stop-color="#A1D9F8" offset="0"/>
      <stop stop-color="#539DC6" offset="1"/>
    </linearGradient>
    <linearGradient id="paint12_linear_486_1038" x1="62.07" x2="62.07" y1="169.6" y2="173.5" gradientUnits="userSpaceOnUse">
      <stop stop-color="#A1D9F8" offset="0"/>
      <stop stop-color="#539DC6" offset="1"/>
    </linearGradient>
    <linearGradient id="paint13_linear_486_1038" x1="208.7" x2="208.7" y1="150" y2="158.3" gradientUnits="userSpaceOnUse">
      <stop stop-color="#A1D9F8" offset="0"/>
      <stop stop-color="#539DC6" offset="1"/>
    </linearGradient>
    <linearGradient id="paint14_linear_486_1038" x1="206.7" x2="206.7" y1="162.8" y2="166.3" gradientUnits="userSpaceOnUse">
      <stop stop-color="#F69320" offset="0"/>
      <stop stop-color="#FFD23B" offset="1"/>
    </linearGradient>
    <linearGradient id="paint15_linear_486_1038" x1="190.6" x2="190.6" y1="169.6" y2="198.3" gradientUnits="userSpaceOnUse">
      <stop stop-color="#F69320" offset="0"/>
      <stop stop-color="#FFD23B" offset="1"/>
    </linearGradient>
  </defs>
</svg>