<svg xmlns="http://www.w3.org/2000/svg" width="250" height="250" fill="none" viewBox="0 0 250 250">
  <path d="m105.2 195.8v8.19h-8.1c-5.22 0-7.09 5.27-7.09 6.89 0 1.08 0.62 1.78 2.03 1.78h20.59c1.25 0 1.91-0.84 1.91-2v-14.5l-9.34-0.36z" fill="url(#paint0_linear_4133_10933)"/>
  <path d="m145 195.8v8.19h8.6c5.22 0 6.65 5.27 6.65 6.89 0 1.08-0.62 1.78-2.03 1.78h-20.59c-1.25 0-1.91-0.84-1.91-2v-14.5l9.28-0.36z" fill="url(#paint1_linear_4133_10933)"/>
  <path d="m106.1 204.8h-8.86c-4.28 0-6.16 3.92-6.5 5.52-0.2 0.92 0.51 1.35 1.44 1.35h19.55c1.07 0 1.7-0.72 1.7-1.8v-12.79l-7.33-1.01v8.73z" fill="url(#paint2_linear_4133_10933)"/>
  <path d="m144.5 204.8h8.86c4.28 0 5.71 3.92 6.05 5.52 0.22 1-0.49 1.35-1.56 1.35h-19.34c-1.25 0-1.91-0.84-1.91-2v-12.59l7.9-1.01v8.73z" fill="url(#paint3_linear_4133_10933)"/>
  <path d="m47.11 94.82c-7.25 17.24 0.97 45.15 25.81 61.05l6.14 3.48 9.93-27.24c-16.07-7.95-25.23-18.05-35.28-37.69-1.99-3.97-4.85-3.27-6.6 0.4z" fill="#D1D1D1" stroke="#999" stroke-miterlimit="10" stroke-width="1.701"/>
  <path d="m202.5 94.22c6.62 14-0.33 42.77-25.17 59.54l-5.69 3.67-9.51-26.83c14.7-7.09 23.86-16.69 34.39-36.32 2.23-4.2 4.21-3.55 5.98-0.06z" fill="#D8D8D8" stroke="#999" stroke-miterlimit="10" stroke-width="1.701"/>
  <path d="m124.1 38.22h-0.23c-33.98 0.34-53.84 27.39-55.27 55.79-1.52 31.65 21.29 45.6 55.27 45.94h0.23c33.98-0.34 56.79-15.87 56.31-44.74-0.62-28.86-21.21-56.65-56.31-56.99z" fill="#E8E9EA" stroke="#999" stroke-miterlimit="10" stroke-width="1.701"/>
  <path d="m124.2 197.5c23.57 0 49.02-13.56 49.5-32.39 0.51-19.87-14.77-36.96-14.77-36.96-9.93 8.96-25.93 10.31-34.73 10.39-9.44 0.08-24.14-2.4-34.08-9.04-8.08 7.15-14.02 19.54-14.02 34.7 0 18.31 19.86 33.3 48.1 33.3z" fill="url(#paint4_linear_4133_10933)" stroke="#999" stroke-miterlimit="10" stroke-width="1.701"/>
  <path d="m117.7 96.64c-4.62 3.18-5.7 9.82-16.4 12.46-5.55 1.43-5.89 7.11-3.03 10.29 4.14 4.12 9.36 10.33 11.94 14.45 3.56 5.54 8.19 6.97 14.4 6.79 7.29-0.25 11.99-5 14.57-8.97 3.22-4.85 7.85-9.05 11.41-12.55 3.56-3.35 2.55-8.1-2.99-9.53-7.7-2.07-11.12-4.93-14.4-9.5-3.12-4.27-10.88-6.47-15.5-3.44z" fill="url(#paint5_linear_4133_10933)" stroke="#D45500" stroke-miterlimit="10" stroke-width="2.126"/>
  <path d="m103.1 116.2c4.7 3.85 9.25 13.31 13.11 16.81 4.42 4 11.85 3.69 16.48-1.41 4.35-4.74 8.31-11.55 13.85-15.68-1.46 0.4-13.43-1.7-21.91-3.61-6.37 2.39-15.63 5.69-21.53 3.89z" fill="#822C05" stroke="#662203" stroke-miterlimit="10" stroke-width="1.701"/>
  <path d="m115.1 128.1c2.3-2.07 5.08-2.72 9.3-2.72 4.35 0 6.93 1.02 9.51 3.41l-1.17 1.79c-3.99 5.11-11.92 5.51-16.48 1.51-0.66-0.65-1.51-1.79-2.1-2.7 0.31-0.49 0.65-0.97 0.94-1.29z" fill="#F07F3C"/>
  <path d="m119.2 103.3-0.63 2.38" stroke="#D45500" stroke-linecap="round" stroke-miterlimit="10" stroke-width="2.551"/>
  <path d="m129.5 103.5 0.91 2.38" stroke="#D45500" stroke-linecap="round" stroke-miterlimit="10" stroke-width="2.551"/>
  <path d="m117.4 98.12c3.42-3.02 10.2-2.05 13.29 1.19 3.7 3.92 7.12 8.57 15.47 10.3 2.76 0.6 4.01 1.77 4.23 3.82 0.34 2.93-2.42 3.18-2.42 3.18s-0.08-1.08-0.88-0.91c-4.13 0.83-15.03-2.58-22.47-4.52-7.16 2.56-15.73 5.54-21.56 3.84-1.53-0.48-1.95 0.79-1.95 0.79-1.99-1.02-3-2.86-2.41-4.57 0.79-2.23 3.99-2.51 6.4-3.42 5.99-2.21 9-7 12.3-9.7z" fill="url(#paint6_linear_4133_10933)"/>
  <path d="m110.1 90.9c-0.29-8.19-6.38-13.73-14-13.51-7.39 0.23-12.3 7.26-12.13 13.82-0.06 2.31 1.13 2.4 2.1 0.42 3.12-6.32 7.63-8.24 10.94-8.1 4.63 0.17 8.1 3.19 10.19 8.27 1.14 2.87 3.07 2.81 2.9-0.9z" fill="#000"/>
  <path d="m138.9 90.9c0.28-8.19 6.38-13.73 14-13.51 7.38 0.23 12.83 6.22 12.83 13.82 0 2.57-1.25 2.65-2.23 0.59-3.11-6.66-7.11-8.19-10.83-8.07-4.9 0.17-8.14 3.3-10.35 8.07-1.37 3.02-3.54 2.62-3.42-0.9z" fill="#000"/>
  <path d="m121.5 154.1-6.47 19.41" stroke="#404040" stroke-linecap="round" stroke-miterlimit="10" stroke-width="2.551"/>
  <path d="m133.8 159-8.8 6.04 8.68 5.05" stroke="#404040" stroke-linecap="round" stroke-miterlimit="10" stroke-width="2.551"/>
  <path d="m45.77 63.3-4.71 0.62-3.51-2.91-0.85 5.34-4.18 2.75 4.29 2.56 1.33 4.97 3.46-3.92 5.22-0.28-2.47-4.27 2.1-4.12c0.29-0.57 0-0.88-0.68-0.74z" fill="#F9DC6A"/>
  <path d="m56.61 26.08-1.6 4.22-4.13 1.02 3.84 2.07 1.55 3.41 1.76-4.29 3.42-1.79-3.23-1.61-1.61-3.03z" fill="#F9DC6A"/>
  <path d="m93.62 19.65-0.28 3.49-2.9 1.62 3.07 1.32 0.91 2.63 2.2-2.74 2.58-0.76-1.87-1.99 1.18-2.75-3.09 0.34-1.8-1.16z" fill="#F9DC6A"/>
  <path d="m194.6 30.72-2.76 6.9-5.54 0.6c-1.19 0.14-1.3 0.99-0.17 1.7l4.91 3.35-0.54 5.34c-0.17 1.3 0.68 1.75 1.91 0.91l5.54-2.8 4.63 2.12c0.97 0.48 1.37-0.23 0.97-1.52l-1.66-4.69 3.42-5.4c0.62-0.97 0.23-1.51-1.11-1.34l-4.34 0.48-4.12-5.82c-0.4-0.7-0.8-0.65-1.14 0.17z" fill="#F9DC6A"/>
  <path d="m209.2 67.45 0.53 3.25-2.31 2.38 3.32 0.65 1.33 2.79 1.43-3.18 2.64-0.97-2.14-2.15 0.28-3.02-2.86 1.33-2.22-1.08z" fill="#F9DC6A"/>
  <path d="m209.6 150.6-0.85 4.39-3.61 1.02 4.07 1.29 0.85 3.5 1.76-4.12 2.86-1.01-3.14-1.56-1.94-3.51z" fill="#F9DC6A"/>
  <path d="m190.4 179.2-2.09 4.12-2.85 0.6c-0.75 0.17-0.81 0.82 0 1.42l3.22 2.07-0.48 3.18c-0.17 0.91 0.45 1.19 1.36 0.54l3.56-2.07 2.46 0.85c0.74 0.28 1.19-0.2 0.91-1.22l-0.85-2.98 1.75-2.31c0.52-0.65 0.23-1.36-0.73-1.36l-2.86-0.23-2.37-2.92c-0.35-0.48-0.69-0.4-1.03 0.31z" fill="#F9DC6A"/>
  <path d="m49.54 167.1-4.13 4.12-5.99-1.32c-1.14-0.28-1.76 0.55-1.02 1.86l3.11 5.34-3.08 4.85c-0.8 1.28-0.32 2.02 1.22 1.68l6.26-1.43 3.57 3.67c0.85 0.91 1.7 0.57 1.87-0.85l0.85-4.97 5.22-3.18c1.13-0.71 1.02-1.73-0.41-2.13l-5.23-2.07-0.91-5.11c-0.17-1.11-0.68-1.19-1.33-0.46z" fill="#F9DC6A"/>
  <path d="m35.79 151c-0.28 1.61 0.62 2.49 1.84 2.49h0.2c1.08-0.09 1.42-1.05 1.14-2.6-0.34-1.7-1.31-1.98-2.33-1.76-1.02 0.28-0.68 0.17-0.85 0.26-0.62 0.31 0 1.01 0 1.61z" fill="#F9DC6A"/>
  <path d="m70.88 50.31c-0.28 1.5 0.57 2.41 1.76 2.47h0.17c1.33 0 1.95-1.02 1.84-2.39-0.12-1.66-1.13-2.06-2.21-1.95-1.33 0.12-1.36 0.4-1.56 1.87z" fill="#F9DC6A"/>
  <path d="m168.9 33.16c-0.28 1.62 0.74 2.45 1.82 2.5h0.06c1.33 0 2.07-1.14 2.01-2.44-0.17-1.71-1.36-2.13-2.38-2.02-1.28 0.17-1.28 0.45-1.51 1.96z" fill="#F9DC6A"/>
  <path d="m191.4 67.17c-0.28 1.45 0.63 2.27 1.7 2.33 1.43 0.08 0.51 0 0.6 0 1.14-0.12 1.6-1.25 1.32-2.67-0.4-1.62-1.47-1.82-2.49-1.53-1.24 0.34-0.9 0.31-1.13 1.87z" fill="#F9DC6A"/>
  <path d="m194.6 166.5c-0.34 1.42 0.63 2.25 1.71 2.31 1.43 0.08 0.42 0 0.5 0 1.14-0.12 1.71-1.26 1.48-2.57-0.4-1.5-1.53-1.79-2.55-1.5-1.25 0.34-0.83 0.26-1.14 1.76z" fill="#F9DC6A"/>
  <path d="m61.62 183.1c-0.28 1.51 0.74 2.33 1.82 2.33h0.52c1.14-0.11 1.71-1.25 1.48-2.64-0.4-1.62-1.53-1.9-2.55-1.62-1.24 0.34-0.87 0.26-1.27 1.93z" fill="#F9DC6A"/>
  <defs>
    <linearGradient id="paint0_linear_4133_10933" x1="102.2" x2="102.2" y1="204.2" y2="211.9" gradientUnits="userSpaceOnUse">
      <stop stop-color="#FF9300" offset="0"/>
      <stop stop-color="#D45500" offset="1"/>
    </linearGradient>
    <linearGradient id="paint1_linear_4133_10933" x1="148" x2="148" y1="204.2" y2="211.9" gradientUnits="userSpaceOnUse">
      <stop stop-color="#FF9300" offset="0"/>
      <stop stop-color="#D45500" offset="1"/>
    </linearGradient>
    <linearGradient id="paint2_linear_4133_10933" x1="102.1" x2="102.1" y1="203.1" y2="210.8" gradientUnits="userSpaceOnUse">
      <stop stop-color="#FF9300" offset="0"/>
      <stop stop-color="#D45500" offset="1"/>
    </linearGradient>
    <linearGradient id="paint3_linear_4133_10933" x1="148" x2="148" y1="203.1" y2="210.8" gradientUnits="userSpaceOnUse">
      <stop stop-color="#FF9300" offset="0"/>
      <stop stop-color="#D45500" offset="1"/>
    </linearGradient>
    <linearGradient id="paint4_linear_4133_10933" x1="124.9" x2="124.9" y1="131" y2="194.7" gradientUnits="userSpaceOnUse">
      <stop stop-color="#F1F2F2" offset="0"/>
      <stop stop-color="#E0E0E0" offset="1"/>
    </linearGradient>
    <linearGradient id="paint5_linear_4133_10933" x1="124.7" x2="124.7" y1="95.4" y2="140.7" gradientUnits="userSpaceOnUse">
      <stop stop-color="#FF9300" offset="0"/>
      <stop stop-color="#D45500" offset="1"/>
    </linearGradient>
    <linearGradient id="paint6_linear_4133_10933" x1="124.7" x2="124.7" y1="96.5" y2="116.9" gradientUnits="userSpaceOnUse">
      <stop stop-color="#FF9300" offset="0"/>
      <stop stop-color="#E67508" offset="1"/>
    </linearGradient>
  </defs>
</svg>