<svg xmlns="http://www.w3.org/2000/svg" width="250" height="250" fill="none" viewBox="0 0 250 250">
  <path d="m125 38.09h-0.37c-33.31 0-57.54 25.87-57.54 59.52 0 14.77 5.99 26.17 17 33.81-9.26 5.65-18.16 15.65-19 31.69-0.45 8.61 3 15.97 7.64 15.97 2.66 0 4.69-1.67 6.04-3.46 6.43 12.32 18.27 17.47 25.96 19.78v8.26h-7.94c-5.07 0-6.89 5.43-6.89 7.26 0 1.51 0.72 2.69 2.36 2.69h20.93c1.54 0 2.1-1.18 2.1-2.69v-12.76c2.83 0.5 5.59 0.72 8.01 0.72h1.79c2.83 0 6.13-0.31 9.64-1.04v13.08c0 1.51 1 2.69 2.54 2.69h20.93c1.64 0 2.27-1.18 2.27-2.69 0-1.83-1.82-7.26-6.89-7.26h-7.51v-7.95c8.69-2.95 18.39-8.4 24.36-18.65 1.5 1.35 3.3 2.29 5.36 2.15 5.53-0.4 8.55-8.13 8.1-14.92-1.16-17.18-11.96-27.27-19.97-32.21 11.71-8.39 18.63-19.57 18.63-34.47 0-31.54-24.23-59.52-57.55-59.52z" fill="#000" opacity=".2"/>
  <path d="m105.2 197.4v6.5h-8.09c-5.37 0-6.92 5.43-6.92 6.71 0 1.51 0.73 2.1 2.09 2.1h20.24c1.54 0 2.09-1.18 2.09-2.41v-12.9h-9.41z" fill="#F7941D" stroke="#A75400" stroke-linecap="round" stroke-linejoin="round" stroke-width="1.701"/>
  <path d="m144.5 195.7v8.24h8.5c5.37 0 6.64 5.43 6.64 6.71 0 1.23-0.73 1.82-1.91 1.82h-20.24c-1.54 0-2.36-0.9-2.36-2.41v-13.77l9.37-0.59z" fill="#F7941D" stroke="#A75400" stroke-linecap="round" stroke-linejoin="round" stroke-width="1.701"/>
  <path d="m161.6 130.1c8.55 4.06 20.43 14.72 21.7 31.6 0.63 8.55-3.23 15.43-7.28 15.11-4.4-0.36-6.95-5.65-7.9-8.71l-6.52-38z" fill="#EAEAEA" stroke="#999" stroke-linecap="round" stroke-linejoin="round" stroke-width="1.701"/>
  <path d="m88.98 130.1c-8.55 4.06-19.97 13.8-22.16 29.75-1.27 8.9 1.85 17.1 5.9 16.78 4.98-0.36 7.35-6.95 8.3-9.48l7.96-37.05z" fill="#EAEAEA" stroke="#999" stroke-linecap="round" stroke-linejoin="round" stroke-width="1.701"/>
  <path d="m124.2 37.71c-32.5 0-56.36 25.1-56.36 58.41 0 27.07 21.09 42.79 52.86 42.79h4.19c28.21 0 56.23-16.17 56.23-42.79 0-31.31-23.87-58.41-56.92-58.41z" fill="#EAEAEA" stroke="#999" stroke-linecap="round" stroke-linejoin="round" stroke-width="1.701"/>
  <path d="m123.1 197.1c23.64 0 49.6-13.03 50.1-32.08 0.4-14-8.15-29.39-12.59-34.16-10.61 7.51-23.55 10.41-37.51 10.41-12.99 0-26.03-2.9-34.22-8.69-5.88 4.89-12.57 17.39-12.57 30.52 0 17.83 18.77 34 46.79 34z" fill="#EAEAEA" stroke="#999" stroke-linecap="round" stroke-linejoin="round" stroke-width="1.701"/>
  <path d="m172.9 161.1c-4.82 16.88-18.87 28.86-48.82 28.86-26.09 0-42.01-11.29-46.5-25.85 0 16.11 18.19 32.28 45.49 33.07 24.81 0.73 51.61-15.08 49.83-36.08z" fill="#000" opacity=".2"/>
  <path d="m96.72 104.1c10.56 0 18.6-9.27 18.6-18.26 0-10.71-8.69-19.11-18.6-19.11-10.41 0-18.81 9.08-18.81 19.49 0 9.87 8.4 17.88 18.81 17.88z" fill="#EAEAEA" stroke="#999" stroke-linecap="round" stroke-linejoin="round" stroke-width="1.701"/>
  <path d="m152.6 102.2c10.41 0 18.14-9.27 18.14-18.25 0-10.14-8.4-16.93-17.3-16.93-10.75 0-19.16 9.08-19.16 19.22 0 9.87 7.92 15.96 18.32 15.96z" fill="#EAEAEA" stroke="#999" stroke-linecap="round" stroke-linejoin="round" stroke-width="1.701"/>
  <path d="m97.17 100c8.85 0 12.95-8.94 12.95-14.18 0-8.15-6.51-14.61-13.4-14.61-8.14 0-13.78 7.41-13.78 14.61 0 7.72 6.51 14.18 14.23 14.18z" fill="#000"/>
  <path d="m152.9 99.41c8.55 0 13.32-8.6 13.32-13.69 0-8.14-6.51-14.07-13.32-14.07-9.03 0-14.4 7.26-14.4 14.46 0 7.72 6.68 13.3 14.4 13.3z" fill="#000"/>
  <path d="m102.2 85.72c3.81 0 4.39-3.41 4.39-4.45 0-3.36-2.74-4.82-4.71-4.82-3.51 0-4.84 2.69-4.84 4.51 0 3 2.31 4.76 5.16 4.76z" fill="#fff"/>
  <path d="m157.6 85.58c4.1 0 4.69-3.45 4.69-4.35 0-3.32-2.89-4.87-4.6-4.87-3.6 0-5 2.69-5 4.37 0 3.05 2.41 4.85 4.91 4.85z" fill="#fff"/>
  <path d="m90.16 94.91c1.92 0 2.37-1.55 2.37-2.18 0-1.69-1.41-2.32-2.14-2.32-1.77 0-2.45 1.41-2.45 2.32 0 1.41 1.09 2.18 2.22 2.18z" fill="#fff"/>
  <path d="m145.9 94.91c1.91 0 2.36-1.55 2.36-2.18 0-1.69-1.4-2.32-2.13-2.32-1.77 0-2.45 1.41-2.45 2.32 0 1.41 1.09 2.18 2.22 2.18z" fill="#fff"/>
  <path d="m124.8 94.64c-6.37 0-8.4 3.18-11.72 7.28-3.68 4.54-8.18 6.14-11.17 6.82-4.5 1.08-6.09 3.98-5.91 6.88 0.32 4.82 6.05 8 8.18 7.68l20.43-7.37 21.04 7c3.27 0.73 7.63-3.95 7.86-7.36 0.27-3.96-2.63-6.18-5.91-6.86-3.91-0.85-8.98-2.94-12.73-8.53-2.69-4.02-5.96-5.54-10.07-5.54z" fill="#F7941D" stroke="#D46200" stroke-linecap="round" stroke-linejoin="round" stroke-width="1.701"/>
  <path d="m106.2 122.3 18.36-6.6 20.56 6.6c-3.05 3.31-5.08 6.86-11.31 6.86h-15.97c-6.09 0-8.59-2.59-11.64-6.86z" fill="#F7941D" stroke="#D46200" stroke-linecap="round" stroke-linejoin="round" stroke-width="1.701"/>
  <path d="m119.2 103.4-0.55 2.41" stroke="#D46200" stroke-linecap="round" stroke-linejoin="round" stroke-width="2.551"/>
  <path d="m129.7 103.5 0.77 2.22" stroke="#D46200" stroke-linecap="round" stroke-linejoin="round" stroke-width="2.551"/>
  <path d="m121.6 154.2-6.42 19.19" stroke="#414042" stroke-linecap="round" stroke-linejoin="round" stroke-width="2.551"/>
  <path d="m133.9 159-8.89 5.68 8.75 5.4" stroke="#414042" stroke-linecap="round" stroke-linejoin="round" stroke-width="2.551"/>
</svg>