<svg xmlns="http://www.w3.org/2000/svg" width="250" height="250" fill="none" viewBox="0 0 250 250">
  <path d="m136.3 208h23.43c1.27 0 1.86-1.12 1.48-2.71-1.02-4.06-3.66-6.58-7.47-6.58h-6.61v-8.42l-0.86-0.36c13.55-4.47 28.91-14.87 28.91-31.75v-2.11l1.66-4.46c1.8-5-0.99-16.52-11.62-25.44 12.24-8.26 18.72-20.98 18.72-35.46 0-27.45-20.82-58.7-59.95-58.71-37.35-0.01-56.68 30.92-56.68 57.71 0 14.01 5.83 26.2 17.11 34.9-9.17 7.41-13.32 18.4-11.68 25.48l2.4 6.5v1.59c0 16.63 13.01 26.99 28.93 31.63v8.9h-6.61c-3.81 0-6.45 2.52-7.47 6.58-0.39 1.59 0.21 2.71 1.48 2.71h22.07c1.21 0 1.93-0.93 1.93-2.28v-13.61l1.69 0.27c2.95 0.43 4.53 0.48 7.09 0.48 2.89 0 6.12-0.34 9.59-1.05l1.25-0.29v14.2c0 1.35 0.72 2.28 1.93 2.28h-0.72z" fill="#000" opacity=".2"/>
  <path d="m104.7 187.7v9.73h-7.5c-4.24 0-6.57 3.74-6.89 6.37-0.15 1.22 0.39 1.91 1.37 1.91h21.14c0.98 0 1.55-0.76 1.55-1.91v-16.1h-9.67z" fill="url(#paint0_linear_417_21349)" stroke="#CC6405" stroke-linecap="round" stroke-linejoin="round" stroke-width="1.5"/>
  <path d="m144.7 187.7v9.73h7.5c4.24 0 6.57 3.74 6.89 6.37 0.16 1.22-0.39 1.91-1.37 1.91h-20.37c-1.09 0-1.72-0.83-1.72-2.1v-15.91h9.07z" fill="url(#paint1_linear_417_21349)" stroke="#CC6405" stroke-linecap="round" stroke-linejoin="round" stroke-width="1.5"/>
  <path d="m124.2 190.6c22.72 0 48.99-13.89 48.99-33.57v-7.89l-11.5-25.03-38.3-2-33.33 1.53-13.79 25.3v8.09c0 19.68 20.62 33.57 47.93 33.57z" fill="#ECECEC" stroke="#A9A9A9" stroke-linecap="round" stroke-linejoin="round" stroke-width="1.8"/>
  <path d="m77.29 158c3.92 15.77 20.65 25.82 45.63 25.82 23.11 0 43.09-12.79 48.63-23.74l0.66-4.05c-6.2 8.31-14.3 11.09-28.2 9.05-9.98-1.48-16.85-5.21-19.4-7.08-7.3 4.67-15.89 7.77-27.3 7.77-9.19 0-15.2-2.53-20.02-7.77z" fill="#000" opacity=".2"/>
  <path d="m124 31.71c-36.43 0-56.14 30.15-56.14 56.94 0 24.41 18.24 42.5 54.15 42.5 29.71 0 59.29-15.52 59.29-43.43 0-24.46-18.17-56.01-57.3-56.01z" fill="#ECECEC" stroke="#A9A9A9" stroke-linecap="round" stroke-linejoin="round" stroke-width="1.8"/>
  <path d="m152.6 123.6c12.25 3.47 23.44 15.44 22.46 25.17-1.26 12.52-16.98 15.12-22.96 14.63-12.19-1.03-20.88-5.61-27.89-8.33-8.49 5.12-16.31 7.62-26.91 7.62-11.52 0-22.2-6.3-23.6-14.05-1.26-7.4 8.4-21.25 16.37-24.05 8.81 5.51 17.99 7.55 31.23 7.55 13.55 0 23.53-3.25 31.3-8.54z" fill="#ECECEC" stroke="#A9A9A9" stroke-linecap="round" stroke-linejoin="round" stroke-width="1.8"/>
  <path d="m94.76 137.7 3.85 3.54" stroke="#A9A9A9" stroke-linecap="round" stroke-linejoin="round" stroke-width="1.8"/>
  <path d="m153.9 137.4c-3.53 2.56-6.09 3.54-11.31 4.17-9.07 1.15-17.82 12.19-29.34 2.15-7.01-6.32-13.21-4.66-15.47 0-1.13 2.56-1 3.59 0.26 4.19 2.98 1.03 8.2-0.8 11.6-3.23 7.5-5.17 12.6-9.47 25.71-8.97 7.24 0.32 11.81 5.23 11.81 5.23" stroke="#A9A9A9" stroke-linecap="round" stroke-linejoin="round" stroke-width="1.8"/>
  <path d="m121 157.6-5.92 15.85" stroke="#474747" stroke-linecap="round" stroke-linejoin="round" stroke-width="2.5"/>
  <path d="m133.2 161.1-8.48 4.24 9.42 4.84" stroke="#474747" stroke-linecap="round" stroke-linejoin="round" stroke-width="2.5"/>
  <path d="m148.9 102.7c-6.88-1.55-12.86-4.64-15.17-9.8-1.69-2.93-5.79-4.8-9.23-4.8-4.33 0-7.44 1.65-10.11 5.6-3.4 5.06-7.5 6.7-14.15 8.94-3.54 1.18-4.42 3.11-4.1 5.8 0.38 3.09 2.57 4.41 7.39 5.5 4.69 3.96 7.06 8.38 13.56 8.38h15.6c6.44 0 8.13-5.72 13.01-9.19 5.01-0.83 7.14-1.98 7.59-5.01 0.45-2.89-1.2-4.76-4.39-5.42z" fill="url(#paint2_linear_417_21349)" stroke="#CC6405" stroke-linecap="round" stroke-linejoin="round" stroke-width="1.8"/>
  <path d="m103.4 111.1c6.61 1.62 13.29 2.25 21.51 2.25 8.23 0 14.03-0.83 22.46-3.64" stroke="#CC6405" stroke-linecap="round" stroke-linejoin="round" stroke-width="1.8"/>
  <path d="m119.2 96.34-0.51 2.17" stroke="#CC6405" stroke-linecap="round" stroke-linejoin="round" stroke-width="2.5"/>
  <path d="m129.4 96.66 0.72 2.17" stroke="#CC6405" stroke-linecap="round" stroke-linejoin="round" stroke-width="2.5"/>
  <path d="m146.6 11.99c-3.19 0-5.09 3.07-3.57 5.93l1.17 1.3-7.15 17.77c-0.32 0.76 0 1.34 0.59 1.86 8.7 7.89 20.09 12.36 26.7 13.91 0.79 0.19 1.27-0.32 1.66-1.03l10.14-13.79c0.91 0.78 1.81 0.97 2.65 0.78 4.21-0.91 4.15-7.01-0.39-7.59-2.98-0.38-4.67 2.3-4.28 4.67l-9.78 2.01 1.99-13.65c1.69-0.71 2.35-2.25 1.95-4.33-0.84-3.82-7.17-4.01-7.83 0.46-0.13 0.97 0.06 1.87 0.6 2.52l-10.75 6.38-3.7-10.29c2.33-1.36 3.05-6.91 0-6.91z" fill="url(#paint3_linear_417_21349)" stroke="url(#paint4_linear_417_21349)" stroke-linecap="round" stroke-linejoin="round" stroke-width="1.5"/>
  <path d="m144.7 17.16 5.42 12.74 12.81-7.77 1.2 14.93 11.46-1.03-10.68 14.46c-9.2-2.78-18.33-7.84-24.93-13.88l4.72-19.45z" fill="url(#paint5_linear_417_21349)" stroke="#CC8A29" stroke-linecap="round" stroke-linejoin="round" stroke-width="1.5"/>
  <path d="m140 34.63c7.64 6.32 17.61 11.38 25.31 13.6" stroke="#CC8A29" stroke-linecap="round" stroke-linejoin="round" stroke-width="1.8"/>
  <path d="m145.7 17.6c2.4 0 2.56-4.34 0.06-4.34-2.43 0-2.43 4.34-0.06 4.34z" fill="url(#paint6_linear_417_21349)" stroke="#CC8A29" stroke-linecap="round" stroke-linejoin="round" stroke-width="1.5"/>
  <path d="m164.4 23.13c2.4 0 2.56-4.34 0.06-4.34-2.43 0-2.43 4.34-0.06 4.34z" fill="url(#paint7_linear_417_21349)" stroke="#CC8A29" stroke-linecap="round" stroke-linejoin="round" stroke-width="1.5"/>
  <path d="m177.7 36.74c1.72 0 1.83-3.12 0.06-3.12-1.74 0-1.74 3.12-0.06 3.12z" fill="url(#paint8_linear_417_21349)" stroke="#CC8A29" stroke-linecap="round" stroke-linejoin="round" stroke-width="1.5"/>
  <path d="m96.81 61.09c-10.56 0-18.26 9.3-18.26 18.97 0 9.8 8.16 17.2 17.58 17.2 9.91 0 18.07-8.31 18.07-18.04 0-9.47-8.48-18.13-17.39-18.13z" fill="#F1F1F1" stroke="#A9A9A9" stroke-linecap="round" stroke-linejoin="round" stroke-width="1.8"/>
  <path d="m113.6 77.9c-0.9-8.6-8.67-16.29-17.15-16.29-7.5 0-13.42 5.45-16.07 13.62l33.22 2.67z" fill="#ddd"/>
  <path d="m83.65 76.71c-0.29 1.2-0.42 2.2-0.42 3.35 0 8.21 6.68 13.17 13.39 13.17 6.8 0 12.66-5.77 12.99-13.17l-0.07-1.42-25.89-1.93z" fill="#000"/>
  <path d="m90.08 88.33c1.99 0 3.03-2.68 0.94-3.97-2.37-1.15-4.31 2.13-2.11 3.55 0.38 0.26 0.71 0.42 1.17 0.42z" fill="#F1F1F1"/>
  <path d="m98.21 77.71 9.55 0.65c-0.32 3.02-2.45 4.7-5.43 4.7-2.77 0-4.51-2.43-4.12-5.35z" fill="#F1F1F1"/>
  <path d="m152.3 61.35c-10.27 0-17.9 9.04-17.9 18.19 0 9.6 8.02 16.8 17.24 16.8 9.73 0 17.96-8.49 17.96-17.79 0-9.12-8.29-17.2-17.3-17.2z" fill="#F1F1F1" stroke="#A9A9A9" stroke-linecap="round" stroke-linejoin="round" stroke-width="1.8"/>
  <path d="m168.6 75.55c-1.76-7.76-8.77-13.94-16.37-13.94-8.95 0-16.12 7.4-17.06 16.29l33.43-2.35z" fill="#ddd"/>
  <path d="m137.1 78.23c-0.19 0.93-0.32 1.63-0.32 2.5 0 7.63 6.62 12.69 14.58 12.69 7.7 0 14.31-6.86 14.31-13.81 0-0.87-0.06-1.58-0.25-2.45l-28.32 1.07z" fill="#000"/>
  <path d="m145.9 88.33c2 0 3.03-2.68 0.94-3.97-2.37-1.15-4.3 2.13-2.11 3.55 0.38 0.26 0.71 0.42 1.17 0.42z" fill="#F1F1F1"/>
  <path d="m153.6 77.45 9-0.52c0 2.81-2 4.61-4.77 4.61-2.71 0-4.29-1.8-4.23-4.09z" fill="#F1F1F1"/>
  <defs>
    <linearGradient id="paint0_linear_417_21349" x1="102.3" x2="102.3" y1="187.7" y2="205.7" gradientUnits="userSpaceOnUse">
      <stop stop-color="#FFA623" offset="0"/>
      <stop stop-color="#E06800" offset="1"/>
    </linearGradient>
    <linearGradient id="paint1_linear_417_21349" x1="147.3" x2="147.3" y1="187.7" y2="205.7" gradientUnits="userSpaceOnUse">
      <stop stop-color="#FFA623" offset="0"/>
      <stop stop-color="#E06800" offset="1"/>
    </linearGradient>
    <linearGradient id="paint2_linear_417_21349" x1="124.8" x2="124.8" y1="88.11" y2="122.3" gradientUnits="userSpaceOnUse">
      <stop stop-color="#FFA623" offset="0"/>
      <stop stop-color="#E06800" offset="1"/>
    </linearGradient>
    <linearGradient id="paint3_linear_417_21349" x1="158.4" x2="158.4" y1="12.24" y2="52.82" gradientUnits="userSpaceOnUse">
      <stop stop-color="#FFD766" offset="0"/>
      <stop stop-color="#E09B03" offset="1"/>
    </linearGradient>
    <linearGradient id="paint4_linear_417_21349" x1="158.4" x2="158.4" y1="11.99" y2="53" gradientUnits="userSpaceOnUse">
      <stop stop-color="#CC8A29" offset="0"/>
      <stop stop-color="#B3721B" offset="1"/>
    </linearGradient>
    <linearGradient id="paint5_linear_417_21349" x1="157.8" x2="157.8" y1="17.16" y2="50.49" gradientUnits="userSpaceOnUse">
      <stop stop-color="#FFD766" offset="0"/>
      <stop stop-color="#E09B03" offset="1"/>
    </linearGradient>
    <linearGradient id="paint6_linear_417_21349" x1="145.7" x2="145.7" y1="13.26" y2="17.6" gradientUnits="userSpaceOnUse">
      <stop stop-color="#FFD766" offset="0"/>
      <stop stop-color="#E09B03" offset="1"/>
    </linearGradient>
    <linearGradient id="paint7_linear_417_21349" x1="164.4" x2="164.4" y1="18.79" y2="23.13" gradientUnits="userSpaceOnUse">
      <stop stop-color="#FFD766" offset="0"/>
      <stop stop-color="#E09B03" offset="1"/>
    </linearGradient>
    <linearGradient id="paint8_linear_417_21349" x1="177.7" x2="177.7" y1="33.62" y2="36.74" gradientUnits="userSpaceOnUse">
      <stop stop-color="#FFD766" offset="0"/>
      <stop stop-color="#E09B03" offset="1"/>
    </linearGradient>
  </defs>
</svg>