<svg xmlns="http://www.w3.org/2000/svg" width="250" height="250" fill="none" viewBox="0 0 250 250">
  <path d="m136.7 195.1v16.37h22.22c0-4.53-2.67-7.02-5.99-7.02h-7.64v-9.35h-8.59z" fill="#F58A07" stroke="#9E4600" stroke-linecap="round" stroke-linejoin="round" stroke-miterlimit="10" stroke-width="2"/>
  <path d="m105.1 195.1v9.35h-8.32c-3.32 0-5.99 3.21-5.99 6.49h22.89v-15.84h-8.58z" fill="#F58A07" stroke="#9E4600" stroke-linecap="round" stroke-linejoin="round" stroke-miterlimit="10" stroke-width="2"/>
  <path d="m171 126.7c8.01-8.56 12.93-18.6 12.93-29.51 0-29.06-20.87-59.74-59.05-59.74h-0.79c-36.69 0-57.03 30.39-57.03 59.74 0 10.74 4.09 20.59 11.72 29.05-8.63 10.85-15.08 24.74-15.08 40.9 0 13.89 9.28 31.63 15.08 31.63 4.27 0 4.74-6.59 4.37-12.66 9.49 8.52 22.53 13 39.88 13 15.35 0 29.46-5.12 42.85-14.01-0.48 5.93-0.25 13.67 4.3 13.67 5.8 0 15.53-15.74 15.53-31.63 0-13.39-6.68-30-14.71-40.44z" fill="#000" opacity=".2"/>
  <path d="m170.1 125.1c8.4-9.33 12.9-18.18 12.9-28.89 0-29.06-20.87-58.74-58.05-58.74h-0.79c-36.69 0-56.03 29.39-56.03 57.74 0 11.91 4.63 21.89 12.72 30.05-9.33 10.85-16.08 24.74-16.08 41.9 0 13.89 9.28 30.63 14.08 30.63 4.95 0 4.61-9.64 3.92-13.94 9.65 9.1 22.24 14.28 40.33 14.28 15.73 0 29.66-5.78 44.05-15.65-0.87 4.57-0.9 15.31 4.1 15.31 5.8 0 14.53-15.74 14.53-30.63 0-13.39-7.12-31.21-15.68-42.06z" fill="#D8D8D8" stroke="#A6A6A6" stroke-linecap="round" stroke-linejoin="round" stroke-miterlimit="10" stroke-width="1.5"/>
  <path d="m88.93 128.8c-2.86 13.18-0.62 27.34 1.75 42.08 1.61 9.92-2.56 13.55-6.37 10.51-3.22-2.55-4.1-8.71-4.1-8.71s3.55 16.04-1.9 24.04c-4.5 1-13.58-14.74-13.58-29.63s7.99-31.06 16.45-41.9l7.75 3.61z" fill="#E4E4E4"/>
  <path d="m167.8 124.9c-1.54 3.4-4.57 6.31-6.79 8.1 1.33 12.4-1.78 26.9-2.78 40.1-0.75 10.4 4.2 10.9 7.34 7.6 2.9-3.1 4.29-8 4.29-8s-4.7 15.2 0 23.5c4.4 1.54 14.93-13.2 14.93-29.09 0-13.39-7.68-32.01-16.99-42.21z" fill="#D8D8D8"/>
  <path d="m88.61 132c9.3 6.3 19.1 8.3 34.1 8.3 13.3 0 26-2.7 37-8.7 1.2 11.2-0.7 24.1-2.1 36.8-0.8 7.6-0.4 12.9 3.2 13.8-10.8 7.1-21.2 9.6-37.2 9.6-13.7 0-25.7-3.6-33.2-9.6 2.5-4.2 0.8-12.2-1-23.1-1.7-10.2-1.5-17-0.8-27.1z" fill="#EBEBEB"/>
  <path d="m69.09 96.17c0-27.06 19.53-57.74 54.72-57.74h0.75c34.15 0 56.4 28.18 56.4 56.74 0 22.84-22.95 43.34-57.95 43.34s-53.92-17.9-53.92-42.34z" fill="#ECECEC" stroke="#A6A6A6" stroke-linecap="round" stroke-linejoin="round" stroke-miterlimit="10" stroke-width="1.5"/>
  <path d="m113.7 87.01c0 9.4-6.75 16.4-15.45 16.4-9.3 0-15.5-7.3-15.5-15.5 0-7.5 7.5-14.5 15.5-14.5 9 0 15.45 6.6 15.45 13.6z" fill="#94A6B6" stroke="#778FA6" stroke-linecap="round" stroke-linejoin="round" stroke-miterlimit="10" stroke-width="1.08"/>
  <path d="m110.1 74.31c2.65 3.5 3.35 6.4 3.35 10.7 0 7.5-5 13-9.4 12.1-3-0.63-5.3 0-7.8 0.6-5.3 1.3-10.4-4-9.6-11.1 8.4-1.1 17.4-5.7 22.9-12.8l0.55 0.5z" fill="#000"/>
  <path d="m99.61 85.91c0 2.8-2.6 3.3-3.6 2.8-1.3-0.7-2.3-1.6-1.8-4.1l4.9-1.3c0.4 0.8 0.5 1.4 0.5 2.6z" fill="#D0EEFB"/>
  <path d="m107.7 91.51c0 1.3-1.5 1.8-2.3 1.4-1-0.5-1.4-1.8-0.4-2.7 1.3-1.1 2.7-0.2 2.7 1.3z" fill="#D0EEFB"/>
  <path d="m166.9 86.61c0 9.1-6.1 16.1-15.3 16.1-9.6 0-16.2-7-16.2-15.2 0-7.5 6-14.8 14.6-14.8 9.4 0 16.9 5.7 16.9 13.9z" fill="#94A6B6" stroke="#778FA6" stroke-linecap="round" stroke-linejoin="round" stroke-miterlimit="10" stroke-width="1.08"/>
  <path d="m160.9 86.31c0.3 5.1-2.2 10.9-7.2 10.3-3.5-0.5-5-1.5-9-1.5-3.5 0-6-2.5-6-7.5s2-8.5 2-8.5c6.2 4.5 11.5 6.5 20.2 7.2z" fill="#000"/>
  <path d="m148.8 85.11c0 2.9-3.1 3.6-4.5 2.7-2.3-1.4-3.2-3.8-1-5.5 2.5-2 5.5-0.1 5.5 2.8z" fill="#D0EEFB"/>
  <path d="m155.8 92.71c0 1.1-1.4 1.7-2.3 1.1-1.1-0.8-0.8-2.4 0.5-2.7 1.1-0.3 1.8 0.5 1.8 1.6z" fill="#D0EEFB"/>
  <path d="m164.3 103c-2.7 4.4-4.5 7.3-4.5 9.6 0 3.1 2.4 4.3 4.5 4.3 2.5 0 4.2-2.1 4.2-4.6 0-3-1.6-5.1-4.2-9.3z" fill="#4CB4D4"/>
  <path d="m119.2 95.61c-5.4 2.6-5.8 9.2-16.2 12.4-5.4 1.7-7 4.6-7 8 0 4.6 5.6 7.3 9.7 6.6 2.7-0.5 3.7-1 5 0.2 3.3 3.1 8.5 4.4 14 4.4 6 0 10.5-2 14.7-5 1.4 0 2.9 0.9 5.9 0.9 4.4 0 8.8-4 8.5-7.5-0.4-5-3.8-6.5-8.5-7.7-8.5-2.3-9.5-7.7-13.5-11.6-2.3-1.3-8.5-2.7-12.6-0.7z" fill="#F58A07" stroke="#C15202" stroke-linecap="round" stroke-linejoin="round" stroke-miterlimit="10" stroke-width="1.5"/>
  <path d="m113 120.1c4-4 7.2-6 11.6-6 4.2 0 7.3 3 12.3 5.8-3.7 0.8-7.3 0.7-11.3 0.7-3.9 0-7.6-0.3-12.6-0.5z" fill="#F09070" stroke="#9E4600" stroke-linecap="round" stroke-linejoin="round" stroke-miterlimit="10" stroke-width="1.5"/>
  <path d="m115.7 116.7c3.1-2.8 5-3.6 8.6-3.6 4.2 0 6.4 2.6 9.4 4.8-3.2-1.1-5.3-1.7-9-1.7-3.5 0-5.3 0.2-9 0.5z" fill="#82331A" stroke="#82331A" stroke-linecap="round" stroke-linejoin="round" stroke-miterlimit="10" stroke-width="1.08"/>
  <path d="m119.2 103-0.8 2.7" stroke="#C15202" stroke-linecap="round" stroke-linejoin="round" stroke-miterlimit="10" stroke-width="2.5"/>
  <path d="m129.7 103.7 0.8 2" stroke="#C15202" stroke-linecap="round" stroke-linejoin="round" stroke-miterlimit="10" stroke-width="2.5"/>
  <path d="m110 62.77c-4.4 6.3-9.2 7.8-15.5 7.8" stroke="#000" stroke-linecap="round" stroke-linejoin="round" stroke-miterlimit="10" stroke-width="3"/>
  <path d="m141.2 62.71c4.4 5.5 8.6 7 14.1 7.5" stroke="#000" stroke-linecap="round" stroke-linejoin="round" stroke-miterlimit="10" stroke-width="3"/>
  <path d="m139.8 73.61c6.4 7.4 15.5 11.9 28.1 13.2" stroke="#000" stroke-linecap="round" stroke-linejoin="round" stroke-miterlimit="10" stroke-width="2.5"/>
  <path d="m82.11 86.81c9.9-1 20.8-4.5 27.2-12.9" stroke="#000" stroke-linecap="round" stroke-linejoin="round" stroke-miterlimit="10" stroke-width="2.5"/>
  <path d="m121.6 153.9-6.4 19.5" stroke="#3D3D3D" stroke-linecap="round" stroke-linejoin="round" stroke-miterlimit="10" stroke-width="3"/>
  <path d="m134.1 159-9.2 5.7 8.9 5.3" stroke="#3D3D3D" stroke-linecap="round" stroke-linejoin="round" stroke-miterlimit="10" stroke-width="3"/>
</svg>