<svg xmlns="http://www.w3.org/2000/svg" width="250" height="250" fill="none" viewBox="0 0 250 250">
  <path d="m187.6 170c-2.35-14.9-11.51-26.97-22.23-37.4 11.38-8.69 17.94-20.5 17.94-35.55 0-30.05-22.2-58.97-58.87-59.44h-0.7c-36.67 0.47-57.8 29.39-56.99 59.44 0.42 14.84 6.3 25.77 17.06 33.65-9.79 10.1-20.86 23.41-22.7 39.3-1.2 10.43 4.28 13.91 8.98 11.5 3.3-1.63 5.72-3.75 7.65-5.89 7 14.19 20.33 20.45 27.04 21.55v6.71h-7.95c-4.82 0-7.07 5.48-7.07 7.28 0 1.35 0.76 1.9 1.9 1.9h21.59c1.39 0 2.06-0.97 2.06-2.28v-12.07c2.73 0.42 5.83 0.63 9.13 0.63 3.67 0 7.01-0.37 10.1-0.96v12.4c0 1.31 1.02 2.28 2.28 2.28h22.02c1.43 0 2.1-0.93 1.81-2.52-0.55-3.08-2.88-6.66-7.21-6.66h-7.4v-7.16c10.4-3.11 21.37-9.64 26.13-19.58 2.07 2.24 4.58 3.77 7.67 4.67 5.92 1.86 9.1-3.88 7.76-11.8z" fill="#000" opacity=".25"/>
  <path d="m104.9 194.9v9.34h-7.95c-4.81 0-6.93 5.15-6.81 6.58 0.09 1.05 0.51 1.55 1.65 1.55h20.53c1.39 0 2.06-0.97 2.06-2.27v-14.78l-9.48-0.42z" fill="url(#paint12_linear_1133_10391)" stroke="#C05A00" stroke-miterlimit="10" stroke-width="1.5"/>
  <path d="m144.4 194.9v9.34h8.86c4.81 0 6.43 4.66 6.43 6.33 0 1.04-0.67 1.8-1.93 1.8h-20.07c-1.39 0-2.4-0.97-2.4-2.27v-14.49l9.11-0.71z" fill="url(#paint13_linear_1133_10391)" stroke="#C05A00" stroke-miterlimit="10" stroke-width="1.5"/>
  <path d="m186.7 169.5c-2.9-18.43-17.76-33.75-25-40.42l-4.71 1.99 1.1 9.38c5.8 6.35 13.86 16.99 15 32.6 2.62 4.12 5.96 5.75 9.05 6.65 4.65 1.45 5.57-5.09 4.56-10.2z" fill="#EDEDED" stroke="#9E9E9E" stroke-miterlimit="10" stroke-width="1.5"/>
  <path d="m62.55 170.7c1.98-16.65 15.17-31.97 24.56-41.51l4.81 2.19-2.71 9.01c-5.8 6.79-11.2 15.76-12.13 32.41-2.11 3.39-4.45 5.34-7.99 6.35-4.16 1.22-7.25-1.71-6.54-8.45z" fill="#EDEDED" stroke="#9E9E9E" stroke-miterlimit="10" stroke-width="1.5"/>
  <path d="m123.9 38.21c-35.74 0.47-55.85 28.8-55.85 58.4 0 26.3 19.98 42.36 55.68 42.36h0.7c30.65-0.41 56.74-16.47 56.11-43.83-0.67-28.13-20.9-56.46-55.94-56.93h-0.7z" fill="#EDEDED" stroke="#9E9E9E" stroke-miterlimit="10" stroke-width="1.5"/>
  <path d="m88.01 132c-7.49 9.05-12.27 20.07-11.8 33.05 1.02 22.09 21.85 32.56 47.5 32.56 22.46 0 48.19-12.59 49.58-31.38 1.02-13.66-6.23-27.26-11.57-34.44-9.75 6.43-21.66 10.25-38.01 10.25-15.23 0-26.53-4.07-35.7-10.04z" fill="#EDEDED" stroke="#9E9E9E" stroke-miterlimit="10" stroke-width="1.5"/>
  <path d="m77.23 162.1c1.63 17.11 17.89 28.7 46.4 28.7 23.51 0 45.08-12.31 49.19-28.49-0.75 17.6-20.69 35.28-49.19 35.28-26.17 0-46.4-13.39-46.4-35.49z" fill="#C6C7C8"/>
  <path d="m147.9 109.4c-6.8-1.54-11.09-4.51-14.1-9.3-2.53-4.04-6.78-5.11-9.4-5.11-3.34 0-6.72 0.9-9.34 5.03-3.26 5.12-7.28 7.44-14 9.13-4.94 1.27-5.45 5.21-4.69 8.01 1.1 4.09 4.9 5.36 9.53 5.65 4.01 3.6 6.27 6.09 13.27 6.26 2.73 0.08 5.83 0.13 9.29-0.04 7.44-0.34 9.25-2.87 13.27-6.51 6.09-0.42 10.19-1.96 11.2-5.82 0.98-3.81-0.73-6.28-5.03-7.3z" fill="url(#paint14_linear_1133_10391)" stroke="#D65809" stroke-miterlimit="10" stroke-width="1.5"/>
  <path d="m103.4 115.4c3.8 4.29 8.77 5.36 14.6 3.87l6.4-1.39 8.27 2.3c5.61 1.11 11.05-1.12 14.13-4.48" stroke="#D65809" stroke-linecap="round" stroke-miterlimit="10" stroke-width="2"/>
  <path d="m119.3 103.2-0.59 2.19" stroke="#D65809" stroke-linecap="round" stroke-miterlimit="10" stroke-width="2.5"/>
  <path d="m129.6 103.6 0.67 2.19" stroke="#D65809" stroke-linecap="round" stroke-miterlimit="10" stroke-width="2.5"/>
  <path d="m84.71 88.62c4.01 5.11 7.9 7.01 12.56 6.84 5.64-0.21 8.77-2.89 11.77-6.24" stroke="#636466" stroke-linecap="round" stroke-miterlimit="10" stroke-width="3"/>
  <path d="m140 90.2c4.02 5.11 8.39 6.74 13.05 6.57 6.01-0.21 9.51-3.16 12.14-6.89" stroke="#636466" stroke-linecap="round" stroke-miterlimit="10" stroke-width="3"/>
  <path d="m121.7 154.2-6.62 19.26" stroke="#424243" stroke-linecap="round" stroke-miterlimit="10" stroke-width="3"/>
  <path d="m133.8 159.1-8.63 5.63 8.63 5.3" stroke="#424243" stroke-linecap="round" stroke-linejoin="round" stroke-miterlimit="10" stroke-width="3"/>
  <path d="m211.3 31.51c-0.5 0.9 0 2.05 1.1 2.05h7.91l-10.44 12.94c-1.06 1.35-0.25 2.41 0.97 2.41h12.48c1.93 0 2.06-3.08 0-3.08h-8.63l9.21-12.98c1.02-1.49 0.31-2.7-1.23-2.7h-9.97c-0.67 0-1.15 0.46-1.4 1.36z" fill="#595A5C"/>
  <path d="m194.9 47.28c-0.54 0.54-0.21 1.63 0.6 1.63h6.18l-7.32 8.89c-0.81 1.01-0.26 1.82 0.75 1.82h8.32c1.43 0 1.47-2.39 0-2.39h-6.09l6.52-8.44c0.87-1.22 0.24-2.17-1.01-2.17h-6.96c-0.43 0-0.82 0.21-0.99 0.66z" fill="#595A5C"/>
  <path d="m182.4 60.04c-0.59 0.38-0.38 1.59 0.43 1.59h4.68l-5.4 7.03c-0.77 1.02-0.17 1.68 0.76 1.68h6.2c1.35 0 1.43-2.09 0-2.09h-4.57l4.86-6.83c0.81-1.21 0.09-1.97-1.01-1.97h-5.06c-0.38 0-0.68 0.17-0.89 0.59z" fill="#595A5C"/>
  <defs>
    <linearGradient id="paint0_linear_1133_10391" x1="34.81" x2="34.81" y1="14.91" y2="27.2" gradientUnits="userSpaceOnUse">
      <stop stop-color="#FEFFFE" offset="0"/>
      <stop stop-color="#FEFFFE" stop-opacity=".36" offset="1"/>
    </linearGradient>
    <linearGradient id="paint1_linear_1133_10391" x1="55.05" x2="55.05" y1="14.74" y2="27.03" gradientUnits="userSpaceOnUse">
      <stop stop-color="#FEFFFE" offset="0"/>
      <stop stop-color="#FEFFFE" stop-opacity=".36" offset="1"/>
    </linearGradient>
    <linearGradient id="paint2_linear_1133_10391" x1="87.7" x2="87.7" y1="14.74" y2="27.03" gradientUnits="userSpaceOnUse">
      <stop stop-color="#FEFFFE" offset="0"/>
      <stop stop-color="#FEFFFE" stop-opacity=".36" offset="1"/>
    </linearGradient>
    <linearGradient id="paint3_linear_1133_10391" x1="147.8" x2="147.8" y1="14.74" y2="27.03" gradientUnits="userSpaceOnUse">
      <stop stop-color="#FEFFFE" offset="0"/>
      <stop stop-color="#FEFFFE" stop-opacity=".36" offset="1"/>
    </linearGradient>
    <linearGradient id="paint4_linear_1133_10391" x1="221" x2="221" y1="8.643" y2="26.81" gradientUnits="userSpaceOnUse">
      <stop stop-color="#FEFFFE" offset="0"/>
      <stop stop-color="#FEFFFE" stop-opacity=".36" offset="1"/>
    </linearGradient>
    <linearGradient id="paint5_linear_1133_10391" x1="34.6" x2="34.6" y1="143.7" y2="154.7" gradientUnits="userSpaceOnUse">
      <stop stop-color="#FEFFFE" offset="0"/>
      <stop stop-color="#FEFFFE" stop-opacity=".36" offset="1"/>
    </linearGradient>
    <linearGradient id="paint6_linear_1133_10391" x1="58.8" x2="58.8" y1="143.7" y2="154.7" gradientUnits="userSpaceOnUse">
      <stop stop-color="#FEFFFE" offset="0"/>
      <stop stop-color="#FEFFFE" stop-opacity=".36" offset="1"/>
    </linearGradient>
    <linearGradient id="paint7_linear_1133_10391" x1="235" x2="235" y1="207.9" y2="217.7" gradientUnits="userSpaceOnUse">
      <stop stop-color="#FEFFFE" offset="0"/>
      <stop stop-color="#FEFFFE" stop-opacity=".36" offset="1"/>
    </linearGradient>
    <linearGradient id="paint8_linear_1133_10391" x1="195.1" x2="195.1" y1="172.9" y2="181.7" gradientUnits="userSpaceOnUse">
      <stop stop-color="#FEFFFE" offset="0"/>
      <stop stop-color="#FEFFFE" stop-opacity=".36" offset="1"/>
    </linearGradient>
    <linearGradient id="paint9_linear_1133_10391" x1="66.86" x2="66.86" y1="175.5" y2="184.3" gradientUnits="userSpaceOnUse">
      <stop stop-color="#FEFFFE" offset="0"/>
      <stop stop-color="#FEFFFE" stop-opacity=".36" offset="1"/>
    </linearGradient>
    <linearGradient id="paint10_linear_1133_10391" x1="102.2" x2="102.2" y1="207.7" y2="215.3" gradientUnits="userSpaceOnUse">
      <stop stop-color="#FEFFFE" offset="0"/>
      <stop stop-color="#FEFFFE" stop-opacity=".36" offset="1"/>
    </linearGradient>
    <linearGradient id="paint11_linear_1133_10391" x1="147.4" x2="147.4" y1="207.7" y2="215.3" gradientUnits="userSpaceOnUse">
      <stop stop-color="#FEFFFE" offset="0"/>
      <stop stop-color="#FEFFFE" stop-opacity=".36" offset="1"/>
    </linearGradient>
    <linearGradient id="paint12_linear_1133_10391" x1="102.2" x2="102.2" y1="195.4" y2="211.9" gradientUnits="userSpaceOnUse">
      <stop stop-color="#F8991D" offset="0"/>
      <stop stop-color="#E76506" offset="1"/>
    </linearGradient>
    <linearGradient id="paint13_linear_1133_10391" x1="147.5" x2="147.5" y1="195.4" y2="211.9" gradientUnits="userSpaceOnUse">
      <stop stop-color="#F8991D" offset="0"/>
      <stop stop-color="#E76506" offset="1"/>
    </linearGradient>
    <linearGradient id="paint14_linear_1133_10391" x1="124.5" x2="124.5" y1="94.25" y2="129.6" gradientUnits="userSpaceOnUse">
      <stop stop-color="#F8991D" offset="0"/>
      <stop stop-color="#F07510" offset="1"/>
    </linearGradient>
  </defs>
</svg>