<svg xmlns="http://www.w3.org/2000/svg" width="250" height="250" fill="none" viewBox="0 0 250 250">
  <path d="m185 149.9c-3.88-14.86-11.11-21.71-19.01-25.97 11.49-8.75 17.44-19.85 17.44-36.46 0-30.34-24.35-58.68-59.04-58.68h-0.75c-31.35 0-53.47 23.01-57.56 48.32l-1.05-0.54-1.3 2.86 1.82 0.95c-0.23 2.32-0.37 4.67-0.37 7.03 0 14.22 5.56 25.32 16.06 33.68l-1.26 1.54c-7.98-2.29-14.8-6.06-21.04-13.71-3.77-4.1-9.84-1.89-8.92 5.29 0.34 2.86 1.41 5.52 2.77 7.87-4.17 0.69-3.83 6.11-1.75 10.9 4.71 10.95 15.94 16.75 24.18 18.23-1.07 15.84 8.05 29.67 28.98 35.91v9.12h-7.48c-4.6 0-7.09 5.09-7.09 7.58 0 1.36 0.69 2.2 2.14 2.2h21.62c1.23 0 1.84-0.84 1.84-2.06v-12.93c2.86 0.34 5.72 0.51 8.75 0.51 3.2 0 6.4-0.24 9.43-0.78v12.72c0 1.36 0.85 2.21 2.33 2.21h22.77c1.61 0 2.3-1.05 2.3-2.21 0-3.33-2.86-7.45-7.19-7.45h-7.48v-7.99c10.93-3.26 19.88-9.5 25.03-18.62 2.86 2.56 8.8 3.11 12.06-3.34 2.73-5.49 2.9-11.73 1.77-16.18z" fill="#000" opacity=".15"/>
  <path d="m104.6 188.4v7.45h-7.48c-4.6 0-6.74 4.86-6.74 6.63 0 1.06 0.41 1.47 1.36 1.47h20.85c0.99 0 1.5-0.62 1.5-1.67v-13.88h-9.49z" fill="#F7941D" stroke="#A75200" stroke-linecap="round" stroke-linejoin="round" stroke-miterlimit="10" stroke-width="1.5"/>
  <path d="m144.8 187.8v8.26h8.53c4.33 0 6.17 4.26 6.17 6.23 0 0.99-0.68 1.53-1.74 1.53h-20.58c-1.48 0-2.02-0.75-2.02-1.97v-14.05h9.64z" fill="#F7941D" stroke="#A75200" stroke-linecap="round" stroke-linejoin="round" stroke-miterlimit="10" stroke-width="1.5"/>
  <path d="m159 120.1c9.77 3.97 19.97 11.75 24.17 28.36 1.83 7.18 0.68 12.91-1.47 17.57-2.86 6.37-9.68 3.11-10.97-0.41l-11.73-45.52z" fill="#EAEAEA" stroke="#9E9E9E" stroke-linecap="round" stroke-linejoin="round" stroke-miterlimit="10" stroke-width="1.5"/>
  <path d="m123.5 29.02c-33.32 0-55.83 26.87-55.83 57.62 0 27.27 20.38 44.09 55.08 44.09h0.75c31.35 0 57.4-16.82 57.4-44.09 0-30.35-24.08-57.62-57.4-57.62z" fill="#EAEAEA" stroke="#9E9E9E" stroke-linecap="round" stroke-linejoin="round" stroke-miterlimit="10" stroke-width="1.5"/>
  <path d="m162.1 123c-10.93 7.25-24.2 10.45-38.7 10.45h-0.75c-13.2 0-24.8-3-33.85-8.56-7.99 8.36-13.14 19.53-13.14 30.62 0 19.41 18.75 33.49 47.5 33.49 25.78 0 49.73-13.87 50.48-33.55 0.47-10.83-4.74-23.82-11.54-32.45z" fill="#EAEAEA" stroke="#9E9E9E" stroke-linecap="round" stroke-linejoin="round" stroke-miterlimit="10" stroke-width="1.5"/>
  <path d="m172.5 152.1c-4.43 16.89-18.47 29.21-48.08 29.21-26.68 0-42.37-10.96-47-25.95 0 18.32 16.33 32.57 45.52 32.57 26.82 0 50.78-14.45 49.56-35.83z" fill="#000" opacity=".2"/>
  <path d="m110 58.41c-5.29-4.35-12.25-6.06-19.87-4.15" stroke="#9E9E9E" stroke-linecap="round" stroke-linejoin="round" stroke-miterlimit="10" stroke-width="2.5"/>
  <path d="m114.7 77.9c0 10.32-8.38 17.43-17.7 16.96-9.97-0.54-16.93-9.04-16.93-16.96 0-9.12 7.58-18.78 16.93-18.78 9.7 0 17.7 8.29 17.7 18.78z" fill="#fff" stroke="#C39949" stroke-linecap="round" stroke-linejoin="round" stroke-miterlimit="10" stroke-width="2"/>
  <path d="m110 77.62c0 8.61-6.76 13.6-13.1 13.2-8-0.41-13.29-7.05-13.29-13.2 0-7.75 6.34-14.79 13.29-14.79 7.72 0 13.1 7.18 13.1 14.79z" fill="#000"/>
  <path d="m106.3 72.6c0 3.53-2.86 4.96-4.57 4.82-3.26-0.27-4.75-2.79-4.75-4.82 0-3 2.38-4.58 4.75-4.58 2.87 0 4.57 2.19 4.57 4.58z" fill="#fff"/>
  <path d="m149 101.1c-7.76-1.45-12.91-4.84-15.9-10.6-2.08-3.39-5.89-4.48-8.51-4.48-3.6 0-6.19 1.09-8.88 4.48-4.57 5.76-8 8.11-14.51 9.82-5.15 1.39-6.21 7.43-3.56 10.62 3.26 4.13 8.48 5.29 14.65 8.02 3.81 1.67 8.14 1.81 12.03 1.81 5.8 0 9.87-1.16 18.37-4.62 4.4-1.83 9.55-4.39 10.6-8.06 0.93-3.43-0.78-6.38-4.29-6.99z" fill="#F7941D" stroke="#CC6405" stroke-linecap="round" stroke-linejoin="round" stroke-miterlimit="10" stroke-width="2"/>
  <path d="m118.6 94.62-0.51 2.09" stroke="#CC6405" stroke-linecap="round" stroke-linejoin="round" stroke-miterlimit="10" stroke-width="2.5"/>
  <path d="m129.6 94.62 0.79 2.09" stroke="#CC6405" stroke-linecap="round" stroke-linejoin="round" stroke-miterlimit="10" stroke-width="2.5"/>
  <path d="m102.7 107.6c6.51 3.06 13.34 4.21 21.06 4.21 9.05 0 17.04-2.35 23.86-5.95" stroke="#CC6405" stroke-linecap="round" stroke-linejoin="round" stroke-miterlimit="10" stroke-width="2"/>
  <path d="m146.1 105.6 2.08 1.5" stroke="#CC6405" stroke-linecap="round" stroke-linejoin="round" stroke-miterlimit="10" stroke-width="2"/>
  <path d="m110.6 77.9c3.99-2.66 6.79-3.81 11.5-3.81 4.53 0 7.39 1.22 11.99 3.81" stroke="#C39949" stroke-linecap="round" stroke-linejoin="round" stroke-miterlimit="10" stroke-width="2"/>
  <path d="m178.8 72.06-7.65 4.07" stroke="#C39949" stroke-linecap="round" stroke-linejoin="round" stroke-miterlimit="10" stroke-width="2"/>
  <path d="m70.23 72.06 7.65 4.07" stroke="#C39949" stroke-linecap="round" stroke-linejoin="round" stroke-miterlimit="10" stroke-width="2"/>
  <path d="m170.4 77.62c0 10.33-8.83 17.44-17.85 16.97-9.49-0.54-17.08-8.43-17.42-16.97 0-9.11 8.07-18.77 17.42-18.77 9.7 0 17.85 8.29 17.85 18.77z" fill="#fff" stroke="#C39949" stroke-linecap="round" stroke-linejoin="round" stroke-miterlimit="10" stroke-width="2"/>
  <path d="m166.2 77.62c0 8.61-7.31 13.6-13.38 13.2-8.31-0.41-13.91-7.05-13.91-13.2 0-7.75 6.96-14.11 13.91-14.11 8 0 13.38 6.5 13.38 14.11z" fill="#000"/>
  <path d="m162.6 72.6c0 3.53-3.1 4.69-4.58 4.48-3.03-0.4-4.74-2.45-4.74-4.48 0-3 2.52-4.58 4.74-4.58 2.86 0 4.58 2.19 4.58 4.58z" fill="#fff"/>
  <path d="m96.09 124.9c-11.49 0-24.63-2.49-35.86-14.88-5.52-6.51-9.95-2.74-9.61 2.61 0.34 4.42 3.03 8.98 5.65 11.58-4.17-1.8-6.26-0.98-5.65 4.2 0.89 7.82 11.59 18.68 24.86 20.7" fill="#EAEAEA"/>
  <path d="m96.09 124.9c-11.49 0-24.63-2.49-35.86-14.88-5.52-6.51-9.95-2.74-9.61 2.61 0.34 4.42 3.03 8.98 5.65 11.58-4.17-1.8-6.26-0.98-5.65 4.2 0.89 7.82 11.59 18.68 24.86 20.7" stroke="#9E9E9E" stroke-linecap="round" stroke-linejoin="round" stroke-miterlimit="10" stroke-width="1.5"/>
  <path d="m11.41 90.51 49.43-9.45c1.06-0.23 2.07 0.47 2.29 1.59l6.68 34.44c0.22 1.12-0.5 2.24-1.56 2.47l-49.43 9.22c-1.06 0.23-2.21-0.54-2.43-1.66l-6.3-34.03c-0.22-1.2 0.26-2.36 1.32-2.58z" fill="#9E7759" stroke="#806147" stroke-linecap="round" stroke-linejoin="round" stroke-miterlimit="10" stroke-width="1.5"/>
  <path d="m12.93 93.12 47.88-9.66 6.82 33.25-48.92 8.98-5.78-32.57z" fill="#36484E" stroke="#293B40" stroke-linecap="round" stroke-linejoin="round" stroke-miterlimit="10" stroke-width="1.5"/>
  <path d="m20.01 106.7 2.08-0.61 0.41 1.62" stroke="#6D828A" stroke-linecap="round" stroke-linejoin="round" stroke-miterlimit="10" stroke-width=".5"/>
  <path d="m24.01 113.8 0.34-0.07" stroke="#6D828A" stroke-linecap="round" stroke-linejoin="round" stroke-miterlimit="10" stroke-width=".75"/>
  <path d="m26.16 113.4 0.34-0.07" stroke="#6D828A" stroke-linecap="round" stroke-linejoin="round" stroke-miterlimit="10" stroke-width=".75"/>
  <path d="m28.31 113 0.34-0.07" stroke="#6D828A" stroke-linecap="round" stroke-linejoin="round" stroke-miterlimit="10" stroke-width=".75"/>
  <path d="m29.43 111.3 16.83-3.7" stroke="#6D828A" stroke-linecap="round" stroke-linejoin="round" stroke-miterlimit="10" stroke-width=".5"/>
  <path d="m43.06 104.2 1.85-1.48 1.41 1-1.61 1.9" stroke="#6D828A" stroke-linecap="round" stroke-linejoin="round" stroke-miterlimit="10" stroke-width=".5"/>
  <path d="m20.69 117 1.74-0.41" stroke="#6D828A" stroke-linecap="round" stroke-linejoin="round" stroke-miterlimit="10" stroke-width=".5"/>
  <path d="m22.98 115.1 0.34-0.07" stroke="#6D828A" stroke-linecap="round" stroke-linejoin="round" stroke-miterlimit="10" stroke-width=".5"/>
  <path d="m23.46 116.3 0.2 1.56" stroke="#6D828A" stroke-linecap="round" stroke-linejoin="round" stroke-miterlimit="10" stroke-width=".5"/>
  <path d="m24.94 116 0.41 1.69c0.07 0.34 0.41 0.54 0.75 0.41 0.41-0.14 0.92-0.61 0.71-1.42l-0.27-1.16" stroke="#6D828A" stroke-linecap="round" stroke-linejoin="round" stroke-miterlimit="10" stroke-width=".5"/>
  <path d="m28.11 115.4 0.54 2.17" stroke="#6D828A" stroke-linecap="round" stroke-linejoin="round" stroke-miterlimit="10" stroke-width=".5"/>
  <path d="m28.17 115.5c0.34-0.68 1.54-1.16 2.08-0.41 0.27 0.41 0.48 1.23 0.61 1.84" stroke="#6D828A" stroke-linecap="round" stroke-linejoin="round" stroke-miterlimit="10" stroke-width=".5"/>
  <path d="m31.41 114 0.75 2.73c0.13 0.47 0.61 0.4 0.88 0.13" stroke="#6D828A" stroke-linecap="round" stroke-linejoin="round" stroke-miterlimit="10" stroke-width=".5"/>
  <path d="m31.41 114.4 1.29-0.34" stroke="#6D828A" stroke-linecap="round" stroke-linejoin="round" stroke-miterlimit="10" stroke-width=".5"/>
  <path d="m33.79 113.6 0.75 2.86" stroke="#6D828A" stroke-linecap="round" stroke-linejoin="round" stroke-miterlimit="10" stroke-width=".5"/>
  <path d="m34.06 112.6c0.14-0.07 0.34 0.07 0.41 0.2" stroke="#6D828A" stroke-linecap="round" stroke-linejoin="round" stroke-miterlimit="10" stroke-width=".5"/>
  <path d="m35.71 114.7c-0.27 0.75 0 1.64 0.95 1.77 0.82 0.14 1.5-0.47 1.5-1.29-0.07-0.96-0.75-1.3-1.29-1.23s-0.95 0.34-1.16 0.75z" stroke="#6D828A" stroke-linecap="round" stroke-linejoin="round" stroke-miterlimit="10" stroke-width=".5"/>
  <path d="m39.22 113.4 0.75 2.66" stroke="#6D828A" stroke-linecap="round" stroke-linejoin="round" stroke-miterlimit="10" stroke-width=".5"/>
  <path d="m39.29 113.5c0.41-0.75 1.43-0.95 1.97-0.21 0.34 0.48 0.48 1.23 0.61 1.77" stroke="#6D828A" stroke-linecap="round" stroke-linejoin="round" stroke-miterlimit="10" stroke-width=".5"/>
  <path d="m42.72 112.9c0.34-0.14 0.88-0.27 1.02 0.2 0.13 0.41-0.28 0.75-0.48 0.88 0.34 0.14 0.75 0.34 0.61 0.82-0.13 0.41-0.61 0.61-1.08 0.68" stroke="#6D828A" stroke-linecap="round" stroke-linejoin="round" stroke-miterlimit="10" stroke-width=".5"/>
  <path d="m20.35 96.81 1.91 4.96" stroke="#fff" stroke-linecap="round" stroke-linejoin="round" stroke-miterlimit="10" stroke-width="1.25"/>
  <path d="m20.76 96.94c0.96-0.61 2.87-0.88 3.55 0.14 0.82 1.22-0.2 2.38-1.16 2.72l2.32 1.63" stroke="#fff" stroke-linecap="round" stroke-linejoin="round" stroke-miterlimit="10" stroke-width="1.25"/>
  <path d="m26.76 98.71c0.27 0.82 1.16 0.95 1.77 0.68 0.82-0.34 1.23-1.29 1.03-2.18-0.27-1.09-1.85-0.95-2.39-0.2-0.61 0.82-0.68 1.7-0.41 2.52" stroke="#fff" stroke-linecap="round" stroke-linejoin="round" stroke-miterlimit="10" stroke-width=".75"/>
  <path d="m33.45 95.72-0.68 2.51c-0.21 0.75-0.07 1.5 0.68 1.57 0.82 0.07 1.5-0.68 1.71-1.84 0.27-1.36-0.41-2.24-1.3-2.24-1.16-0.07-2.05 1.09-2.11 2.24" stroke="#fff" stroke-linecap="round" stroke-linejoin="round" stroke-miterlimit="10" stroke-width=".75"/>
  <path d="m39.08 93.33-1.48 5.58c-0.2 0.75 0.07 1.3 0.75 1.3" stroke="#fff" stroke-linecap="round" stroke-linejoin="round" stroke-miterlimit="10" stroke-width=".75"/>
  <path d="m39.42 96.12 2.39 1.71" stroke="#fff" stroke-linecap="round" stroke-linejoin="round" stroke-miterlimit="10" stroke-width=".75"/>
  <path d="m42.42 95.92c-0.14 1.29 0.54 2.38 1.7 2.38 1.29 0 2.04-1.22 1.97-2.58-0.13-1.16-1.05-1.84-2.11-1.57-0.92 0.27-1.5 0.95-1.56 1.77z" stroke="#fff" stroke-linecap="round" stroke-linejoin="round" stroke-miterlimit="10" stroke-width=".75"/>
  <path d="m49.63 92.04-1.12 4.09c-0.27 1.02 0.2 1.7 0.92 1.63 0.92-0.07 1.6-0.95 1.67-2.04 0.13-1.3-0.75-2.18-1.74-1.98" stroke="#fff" stroke-linecap="round" stroke-linejoin="round" stroke-miterlimit="10" stroke-width=".75"/>
  <path d="m52.39 94.62c0.13 0.89 0.95 1.23 1.63 1.1 0.93-0.21 1.54-1.03 1.54-1.98 0-1.16-1.54-1.36-2.22-0.68-0.82 0.68-1.09 1.56-0.95 2.45" stroke="#fff" stroke-linecap="round" stroke-linejoin="round" stroke-miterlimit="10" stroke-width=".75"/>
  <path d="m90.27 85.08c1.8 0 2.35-1.32 2.28-1.92-0.2-1.49-1.33-1.63-2.28-1.49-1.23 0.2-1.84 1.08-1.84 1.76 0.07 1.02 0.89 1.65 1.84 1.65z" fill="#fff"/>
  <path d="m145.9 85.96c1.8 0.4 2.55-0.88 2.62-1.57 0.2-1.64-1.03-2.18-1.91-2.18-1.42 0-2.17 1.02-2.17 1.83-0.07 1.04 0.68 1.72 1.46 1.92z" fill="#fff"/>
  <path d="m121.4 145.9-6.2 19.34" stroke="#4D4D4D" stroke-linecap="round" stroke-linejoin="round" stroke-miterlimit="10" stroke-width="3"/>
  <path d="m133.9 151-8.55 5.42 8.55 5.66" stroke="#4D4D4D" stroke-linecap="round" stroke-linejoin="round" stroke-miterlimit="10" stroke-width="3"/>
</svg>