<svg xmlns="http://www.w3.org/2000/svg" width="250" height="250" fill="none" viewBox="0 0 250 250">
  <path d="m168.1 124.9c9.62 11.98 17.27 27.88 17.27 42.23 0 15.27-9.95 30.1-14.79 29.9-5.2-0.2-4.18-10.45-2.96-15.3-10.61 10.15-24.19 15.85-44.05 15.85-19.52 0-33.57-6.65-41.57-17-9.98 0-17.63-5.49-17.63-17.97 0-13.91 7.82-27.11 17.7-37.98l2.22-1.62 82.38 0.27 1.43 1.62z" fill="#E0E0E0" stroke="#A7A9AC" stroke-miterlimit="10" stroke-width="1.701"/>
  <path d="m162 210.8c0-4.81-3.91-7.11-6.3-7.11h-10.47v-9.48l-10.54 1.21v15.38c0 1.99 1.43 2.26 2.45 2.26h22.44c1.36 0 2.42-0.61 2.42-2.26z" fill="url(#paint0_linear_1336_2142)" stroke="url(#paint1_linear_1336_2142)" stroke-miterlimit="10" stroke-width="1.701"/>
  <path d="m90.11 210.3c0-3.99 3.63-6.63 6.22-6.63h8.58v-8.4l9.17 1.21v13.82c0 1.99-0.75 2.27-1.97 2.27h-19.51c-1.67 0-2.49-0.88-2.49-2.27z" fill="url(#paint2_linear_1336_2142)" stroke="url(#paint3_linear_1336_2142)" stroke-miterlimit="10" stroke-width="1.701"/>
  <path d="m124.7 37.93c-38.6-0.68-56.64 29.8-56.64 58.5 0 22.73 18.04 43.64 55.54 42.69 32.38-0.88 57.62-16.98 57.62-42.42 0-26.57-17.97-58.09-56.52-58.77z" fill="#E8E8E6" stroke="#A7A9AC" stroke-miterlimit="10" stroke-width="1.701"/>
  <path d="m165.1 127.1c-1.89 1.85-4.67 3.76-5.55 4.37 2.02 10.66-1.52 31.75-1.72 41.73-0.2 7.93 1.92 10.49 5.38 9.47 3.46-1.01 5.42-6.56 6.57-9.95-1.83 7.93-4.95 21.13 0.48 23.77 3.82 1.84 14.59-13.34 14.59-29.29 0-14.49-8.32-30.59-16.42-41.65l-3.33 1.55z" fill="#DBDBDB" stroke="#A7A9AC" stroke-miterlimit="10" stroke-width="1.701"/>
  <path d="m90.11 131.8-1.29 7.28 5.53-4.88-4.24-2.4z" fill="#A7A9AC"/>
  <path d="m86.52 180.5c10.4 6.35 20.51 9.88 38.12 10.69 14.31 0.68 27.61-5.5 34.75-11.02-1.86-3.13-0.67-10.05 0.14-15.54 1.5-10.15 2.18-20.6 0.68-33.17-10.08 6.74-23.05 9.91-36.6 9.91-6.25 0-11.84-0.75-16.94-2.15l-16.56 13.95-3.59 27.33z" fill="#E8E8E6"/>
  <path d="m140 64.43c-0.48-1.08 2.98-2.36 6.8-2.7 5.4-0.47 10.89 2.7 10.89 2.7" stroke="#000" stroke-linecap="round" stroke-linejoin="round" stroke-width="2.799"/>
  <path d="m108 66.99s-3.6-1.75-9.26-1.75c-3.6 0-6.92 1.41-6.92 1.41" stroke="#000" stroke-linecap="round" stroke-linejoin="round" stroke-width="2.799"/>
  <path d="m150.1 102.9c9.96 0 16.27-8.2 16.27-15.82 0-8.53-6.95-16.28-16.27-16.28-10.14 0-15.27 9.21-15.27 16.28 0 8.66 6.39 15.82 15.27 15.82z" fill="#5A82A3" stroke="#778CA3" stroke-miterlimit="10" stroke-width="1.417"/>
  <path d="m150.9 75.11c-5.79 1.02-6.81 6.64-6.81 10.07 0 6.09 4.76 11.25 11.12 11.25 4.05 0 7.01-2.09 8.87-4.82 0.62-1.89 0.97-3.37 0.97-5.19-0.55-5.72-5.82-12.66-14.15-11.31z" fill="#F1F9FE"/>
  <path d="m155.4 75.38c-6.42 0-8.61 5.59-8.61 9.73 0 5.82 4.43 9.25 9.2 9.25 5.69 0 9.02-4.98 9.02-9.18 0-4.82-4.22-9.8-9.61-9.8z" fill="#000"/>
  <path d="m152.9 83.75c2.42 0 2.97-1.72 2.97-2.85 0-1.66-1.36-2.67-2.59-2.67-1.86 0-3.01 1.42-3.01 2.67 0 1.43 1.08 2.85 2.63 2.85z" fill="#D3EEFB"/>
  <path d="m161 89.72c1.15 0 1.45-0.95 1.45-1.49 0-0.95-0.81-1.49-1.45-1.49-1.02 0-1.6 0.81-1.6 1.49 0 0.81 0.64 1.49 1.6 1.49z" fill="#94C3D6"/>
  <path d="m97.61 102.4c-9.54 0-14.3-8.49-14.3-14.88 0-8.92 7.07-16.47 14.98-16.47 8.88 0 14.97 8.43 14.97 15.73 0 8.3-6.63 15.62-15.65 15.62z" fill="#5A82A3" stroke="#778CA3" stroke-miterlimit="10" stroke-width="1.417"/>
  <path d="m96.93 75.11c-6.28 1.02-10.51 6.91-10.92 10.92-0.58 6.12 3.72 13.88 12.76 13.88 7.96 0 12.46-6.99 12.46-12.49 0-6.38-5.42-13.66-14.3-12.31z" fill="#F1F9FE"/>
  <path d="m102.8 75.38c-6.42 0-8.6 5.59-8.6 9.73 0 5.82 4.42 9.25 9.19 9.25 5.69 0 8.58-5.25 8.58-9.18 0-4.82-3.78-9.8-9.17-9.8z" fill="#000"/>
  <path d="m100.7 83.75c1.89 0 2.58-1.49 2.58-2.85 0-1.66-1.36-2.54-2.58-2.54-1.86 0-2.88 1.36-2.88 2.54 0 1.53 1.09 2.85 2.88 2.85z" fill="#D3EEFB"/>
  <path d="m107.5 89.38c1.09 0 1.43-0.88 1.43-1.49 0-1.01-0.88-1.48-1.49-1.48-1.02 0-1.6 0.87-1.6 1.48 0 0.88 0.75 1.49 1.66 1.49z" fill="#94C3D6"/>
  <path d="m147 108.4c-8.24-2.09-11.17-6.27-13.56-9.9-2.52-3.89-7.36-3.89-8.96-3.89-6.35 0-8.5 3.62-11.69 7.66-3.13 3.97-7.73 5.32-10.55 6.2-4.42 1.42-6.58 4.25-6.51 7.15 0.14 5.16 5.34 8 12 8.47 2.29 2.2 6.01 3.41 13.21 3.41s13.93-2.39 18.23-5.87c1.76 0.81 3.19 1.08 5.02 1.08 5.43 0 9.44-3.92 9.44-6.82 0-3.78-2.39-6.41-6.63-7.49z" fill="url(#paint4_linear_1336_2142)" stroke="#C65806" stroke-miterlimit="10" stroke-width="1.417"/>
  <path d="m115.1 117.2c1.93-1.18 4.92-2.13 9.88-2.13 4.7 0 8.41 1.08 11.53 2.33-2.71-2.33-7.31-6.11-11.53-6.11-4.36 0-7.58 3.37-9.88 5.91z" fill="#9E390B"/>
  <path d="m118.7 103-0.54 2.56" stroke="#C65806" stroke-linecap="round" stroke-linejoin="round" stroke-width="2.799"/>
  <path d="m129.6 103.5 0.82 2.08" stroke="#C65806" stroke-linecap="round" stroke-linejoin="round" stroke-width="2.799"/>
  <path d="m119.8 154-4.7 15.11-0.03 0.05-0.01 0.04-0.02 0.04 0.01-0.02-0.01 0.03v0 0.01l0.01-0.03-1 3.89" stroke="#3F3F3F" stroke-linecap="round" stroke-linejoin="round" stroke-width="2.799"/>
  <path d="m133.8 159.1-8.88 5.59 8.88 5.32" stroke="#3F3F3F" stroke-linecap="round" stroke-linejoin="round" stroke-width="2.799"/>
  <path d="m80.05 147.8c9.55-7.22 17.87-17.74 24.59-27.82 3.33-4.92 8.59-3.77 8.93 2.6 0.34 6.02-2.85 13.51-7.45 20.28 2.49-1.43 2.69-9.05 7.39-7.96 3.4 0.81 3.4 13.44-6.41 28.77-7.99 12.62-17.94 15.75-25.07 15.75-9.95 0-16.81-5.85-16.81-16.9 0-12.45 6.93-25.15 16.38-36.01l1.36 0.5c2.26 2.9 4.78 4.65 7.17 5.79l-1.02 6.13c-3.19 3.39-7 6.68-12.67 9.24" fill="#DBDBDB"/>
  <path d="m80.05 147.8c9.55-7.22 17.87-17.74 24.59-27.82 3.33-4.92 8.59-3.77 8.93 2.6 0.34 6.02-2.85 13.51-7.45 20.28 2.49-1.43 2.69-9.05 7.39-7.96 3.4 0.81 3.4 13.44-6.41 28.77-7.99 12.62-17.94 15.75-25.07 15.75-9.95 0-16.81-5.85-16.81-16.9 0-12.45 6.93-25.15 16.38-36.01l1.36 0.5c2.26 2.9 4.78 4.65 7.17 5.79l-1.02 6.13c-3.19 3.39-7 6.68-12.67 9.24" stroke="#A7A9AC" stroke-linecap="round" stroke-miterlimit="10" stroke-width="1.701"/>
  <path d="m173.7 38.81c-1.44-0.54-4.36-2.39-4.36-5.75 0-4.64 4.08-6.59 6.01-7.2 0.41-3.63 3.34-7.06 8.1-7.06 2.32 0 4.21 0.95 5.1 1.7 0.95-2.1 3.44-3.45 6.5-3.45 4.18 0 5.94 3.17 6.62 5.25 1.19-0.75 2.69-1.29 4.52-1.29 4.63 0 5.78 4.1 5.98 5.89 2.06 0.81 3.76 3.21 3.76 6.24 0 4.32-2.86 6.65-4.98 7.46-0.48 5.32-4.52 8.02-7.95 8.02-2.35 0-4.05-1.21-4.93-2.16-1.29 1.89-3.97 3.44-8.08 3.44-4.29 0-6.81-3.03-7.69-4.72-0.89 0.54-2.04 0.95-3.54 0.95-3.81 0-5-3.17-5.06-7.32z" fill="#FEFFFE" stroke="#999" stroke-miterlimit="10" stroke-width="1.063"/>
  <path d="m184.2 37.53h0.41c1.15 0 1.63-0.81 1.63-1.62 0-1.15-0.88-1.76-1.7-1.76-1.22 0-1.97 0.88-1.97 1.76 0 1.01 0.81 1.62 1.63 1.62z" fill="#666"/>
  <path d="m191.9 37.53h0.41c1.15 0 1.63-0.81 1.63-1.62 0-1.15-0.88-1.76-1.7-1.76-1.22 0-1.97 0.88-1.97 1.76 0 1.01 0.81 1.62 1.63 1.62z" fill="#666"/>
  <path d="m199.6 37.53h0.41c1.15 0 1.63-0.81 1.63-1.62 0-1.15-0.88-1.76-1.7-1.76-1.22 0-1.97 0.88-1.97 1.76 0 1.01 0.81 1.62 1.63 1.62z" fill="#666"/>
  <path d="m179.5 58.34c2.09 0 3.11-1.49 3.11-2.98 0-1.72-1.3-2.93-2.9-2.93-2.05 0-3.13 1.42-3.13 2.85 0 1.65 1.22 3.06 2.92 3.06z" fill="#FEFFFE" stroke="#999" stroke-miterlimit="10" stroke-width="1.417"/>
  <defs>
    <linearGradient id="paint0_linear_1336_2142" x1="148.4" x2="148.4" y1="193.9" y2="212.9" gradientUnits="userSpaceOnUse">
      <stop stop-color="#F7941D" offset="0"/>
      <stop stop-color="#D56200" offset="1"/>
    </linearGradient>
    <linearGradient id="paint1_linear_1336_2142" x1="148.4" x2="148.4" y1="193.9" y2="212.9" gradientUnits="userSpaceOnUse">
      <stop stop-color="#A74200" offset="0"/>
      <stop stop-color="#7C3100" offset="1"/>
    </linearGradient>
    <linearGradient id="paint2_linear_1336_2142" x1="102.1" x2="102.1" y1="195.1" y2="212.1" gradientUnits="userSpaceOnUse">
      <stop stop-color="#F7941D" offset="0"/>
      <stop stop-color="#D56200" offset="1"/>
    </linearGradient>
    <linearGradient id="paint3_linear_1336_2142" x1="102.1" x2="102.1" y1="195.1" y2="212.1" gradientUnits="userSpaceOnUse">
      <stop stop-color="#A74200" offset="0"/>
      <stop stop-color="#7C3100" offset="1"/>
    </linearGradient>
    <linearGradient id="paint4_linear_1336_2142" x1="124.7" x2="124.7" y1="94.14" y2="127.5" gradientUnits="userSpaceOnUse">
      <stop stop-color="#F7941D" offset="0"/>
      <stop stop-color="#D56200" offset="1"/>
    </linearGradient>
  </defs>
</svg>