<svg xmlns="http://www.w3.org/2000/svg" width="200" height="200" fill="none" viewBox="0 0 200 200">
<!-- SVG created with Arrow, by QuiverAI (https://quiver.ai) -->
  <path d="m118.3 183h-8.4v-12.17l-11.08 2.33v16.65c0 2.25 1.13 3.32 2.65 3.32h22.28c2.09 0 2.7-1.09 2.53-3.22-0.37-4.55-3.89-6.91-7.98-6.91z" fill="#E5820D" stroke="#994D07" stroke-linecap="round" stroke-linejoin="round" stroke-width="1.3"/>
  <path d="m58.92 183h9.32v-10.06l10.09 1.12v15.75c0 2.25-1.12 3.32-2.65 3.32h-21.26c-2.09 0-2.7-1.09-2.53-3.22 0.37-4.55 3.62-6.91 7.03-6.91z" fill="#E5820D" stroke="#994D07" stroke-linecap="round" stroke-linejoin="round" stroke-width="1.3"/>
  <path d="m126.9 104.4c8.55-0.53 16.03-4.52 23.05-11.63 6.78-6.88 11.94-3.05 13.03 2.35 2.3 11.41-9.11 25.6-25.34 31.95l-10.74-22.67z" fill="#E8E8E7" stroke="#8A8A8A" stroke-linecap="round" stroke-linejoin="round" stroke-width="1.7"/>
  <path d="m48.18 106.6c-13.83 7.14-22.06 21.73-21.47 35.37 0.41 9.27 4.75 14.94 9.51 11.7 2.87-2 3.69-5.25 4.1-6.89l7.86-40.18z" fill="#E8E8E7" stroke="#8A8A8A" stroke-linecap="round" stroke-linejoin="round" stroke-width="1.7"/>
  <path d="m87.39 6.22h-0.01c-32.49 0-59.67 25.45-59.67 62.94 0 29.11 22.2 45.72 57.95 45.72h1.45c30.94 0 61.2-17.05 61.2-46.16 0-30.3-25.38-62.5-60.92-62.5z" fill="#E8E8E7" stroke="#8A8A8A" stroke-linecap="round" stroke-linejoin="round" stroke-width="1.7"/>
  <path d="m57.92 37.06h0.52c10.57 0 20.25 10.05 20.25 20.46s-9.14 19.73-19.71 19.73-20.25-8.64-20.25-19.05 8.62-21.14 19.19-21.14z" fill="#E8E8E7" stroke="#8A8A8A" stroke-linecap="round" stroke-linejoin="round" stroke-width="1.7"/>
  <path d="m118 37.31h0.52c9.71 0 18.4 9.08 18.4 18.75s-9.14 18.92-19.29 18.92-19.36-7.47-19.36-17.14 9.05-20.53 19.73-20.53z" fill="#E8E8E7" stroke="#8A8A8A" stroke-linecap="round" stroke-linejoin="round" stroke-width="1.7"/>
  <path d="m58.12 42.49h0.39c8.38 0 14.97 7.92 14.97 15.58s-6.99 14.71-14.71 14.71c-8.05 0-14.45-7.27-14.45-14.93s6.59-15.36 13.8-15.36z" fill="#000"/>
  <path d="m117.3 42.49h0.39c8.38 0 14.7 7.92 14.7 14.92 0 7.66-6.99 15.09-14.7 15.09-8.38 0-15.1-6.99-15.1-14.65s6.59-15.36 14.71-15.36z" fill="#000"/>
  <path d="m64.94 47.79c3.74 0 5.07 2.72 4.78 5.34-0.33 3.02-2.61 4.58-4.78 4.58-3.23 0-5.56-2.23-5.56-5s1.97-4.92 5.56-4.92z" fill="#FEFFFE"/>
  <path d="m123.2 47.73c4.07 0 5.1 3.15 4.76 5.51-0.47 3.15-3.19 4.33-4.76 4.27-3.74-0.15-5.38-2.58-5.38-4.94 0-2.77 1.97-4.84 5.38-4.84z" fill="#FEFFFE"/>
  <path d="m51.81 63.2c2.05-0.53 2.72 0.76 2.6 2.16-0.14 1.66-1.4 2.25-2.28 2.12-1.62-0.26-2.27-1.51-2.14-2.67s0.82-1.33 1.82-1.61z" fill="#FEFFFE"/>
  <path d="m110.5 63.2c2.05-0.53 2.72 0.76 2.6 2.16-0.14 1.66-1.4 2.12-2.28 1.99-1.62-0.26-2.12-1.25-1.99-2.41s0.67-1.46 1.67-1.74z" fill="#FEFFFE"/>
  <path d="m126.7 105.7c-12.58 7.99-24.76 10.71-41.06 10.71-13.57 0-24.52-1.67-35.55-8.72-8.23 7.4-13.02 20.27-13.02 30.97 0 17.09 19.02 36.84 49.73 36.84 22.79 0 53.62-14.46 53.62-34.35 0-10.87-6.69-27.86-13.72-35.45z" fill="#E8E8E7" stroke="#8A8A8A" stroke-linecap="round" stroke-linejoin="round" stroke-width="1.7"/>
  <path d="m139.4 139.2c-3.22 11.89-14.47 28.56-49.23 29.1-29.89 0.47-48.07-12.43-52.42-25.39 1.97 14.16 18.21 31.45 48.1 31.45 25.06 0 53.05-15.45 53.55-32.31v-2.85z" fill="#595959" opacity=".2"/>
  <path d="m149.4 84.11c1.87-2.98 4.38-4.04 8.11-4.04" stroke="#8A8A8A" stroke-linecap="round" stroke-linejoin="round" stroke-width="1.7"/>
  <path d="m149.6 87.4c2.25-2.39 4.59-3.99 9.45-3.29" stroke="#8A8A8A" stroke-linecap="round" stroke-linejoin="round" stroke-width="1.7"/>
  <path d="m167.6 90.41c1.92 3 2.13 7.67 0.66 12.34" stroke="#8A8A8A" stroke-linecap="round" stroke-linejoin="round" stroke-width="1.3"/>
  <path d="m171.6 89.41c1.92 3 2.25 6.45 1.03 9" stroke="#8A8A8A" stroke-linecap="round" stroke-linejoin="round" stroke-width="1.3"/>
  <path d="m85.35 131-6.54 19.89" stroke="#474747" stroke-linecap="round" stroke-linejoin="round" stroke-width="2.7"/>
  <path d="m97.73 135.9-8.32 5.79 8.32 5.4" stroke="#474747" stroke-linecap="round" stroke-linejoin="round" stroke-width="2.7"/>
  <path d="m113.2 82.27c-5.44-1.56-10.31-4.15-14.21-10.08-2.7-4.11-6.39-4.98-10.08-4.98h-0.21c-4.11 0-8.22 1.5-10.44 5.49-3.36 6.08-8.56 8.12-15 10.15-5.87 1.91-7 9.64 0 11.86 6.44 1.7 9.14 4.58 14.16 7.7 3.26 2.06 6.74 2.76 10.43 2.76 5.87 0 11.58-3.46 15.69-6.92 2.45-1.91 4.9-2.94 8.16-3.64 7.37-1.7 8.29-10.29 1.5-12.34z" fill="#E98B10" stroke="#B75710" stroke-linecap="round" stroke-linejoin="round" stroke-width="1.7"/>
  <path d="m62.91 89.18c1.4-1.81 2.2-2.3 3.1-2.3" stroke="#B75710" stroke-linecap="round" stroke-linejoin="round" stroke-width="1.7"/>
  <path d="m113.8 88.15c0.63 0.46 0.55 1.67-0.59 2.04" stroke="#B75710" stroke-linecap="round" stroke-linejoin="round" stroke-width="1.7"/>
  <path d="m65.91 88.81c3.07 4.11 7.3 4.97 15.3 2.62l7.11-2.22c6.69 2.5 10.49 3.47 15.46 3.1 4.11-0.32 6.45-2.4 7.94-4.53" stroke="#B75710" stroke-linecap="round" stroke-linejoin="round" stroke-width="1.7"/>
  <path d="m77.81 93.97c3.66 0.86 5.81 3.22 10.28 3.22 4.82 0 7.69-2.28 11.05-4.28l-10.73-3.12-10.6 4.18z" fill="#A82F28" stroke="#994D07" stroke-linecap="round" stroke-linejoin="round" stroke-width="1.3"/>
  <path d="m82.87 76.74-0.31 1.98" stroke="#B75710" stroke-linecap="round" stroke-linejoin="round" stroke-width="3"/>
  <path d="m93.91 77.19 0.37 1.8" stroke="#B75710" stroke-linecap="round" stroke-linejoin="round" stroke-width="3"/>
</svg>